<svg width="176" height="80" viewBox="0 0 176 80" fill="none" xmlns="http://www.w3.org/2000/svg">
<rect width="176" height="80" rx="16" fill="white"/>
<path d="M98 45.3201C98 45.7468 97.8933 46.2268 97.68 46.7601C97.4267 47.3868 97.0933 47.8734 96.68 48.2201C96.5867 48.2868 96.5067 48.3034 96.44 48.2701C96.3733 48.2368 96.36 48.1734 96.4 48.0801C96.6267 47.5068 96.7933 47.0534 96.9 46.7201C97.0867 46.1068 97.1133 45.7268 96.98 45.5801C96.82 45.3801 96.24 45.3201 95.24 45.4001L94.92 45.4401C94.68 45.4668 94.51 45.4868 94.41 45.5001C94.31 45.5134 94.2533 45.4834 94.24 45.4101C94.2267 45.3368 94.2733 45.2668 94.38 45.2001C94.6467 45.0134 94.9333 44.8734 95.24 44.7801C95.6 44.6734 95.9933 44.6134 96.42 44.6001C96.7667 44.5868 97.0867 44.6068 97.38 44.6601C97.6733 44.7134 97.85 44.7734 97.91 44.8401C97.97 44.9068 98 45.0668 98 45.3201ZM96.08 46.6201C95.8267 46.8068 95.5467 46.9868 95.24 47.1601C94.2133 47.7868 93.04 48.2734 91.72 48.6201C90.4533 48.9401 89.2067 49.1001 87.98 49.1001C86.1 49.1001 84.3 48.7668 82.58 48.1001C80.9267 47.4601 79.4333 46.5334 78.1 45.3201C78.0333 45.2668 78 45.2068 78 45.1401C78 45.0734 78.0333 45.0234 78.1 44.9901C78.1667 44.9568 78.24 44.9668 78.32 45.0201C79.76 45.8601 81.3133 46.5001 82.98 46.9401C84.7 47.4068 86.4467 47.6401 88.22 47.6401C89.38 47.6401 90.54 47.5334 91.7 47.3201C92.9267 47.0934 94.1067 46.7601 95.24 46.3201L95.76 46.1201C95.8667 46.0668 95.97 46.0634 96.07 46.1101C96.17 46.1568 96.2233 46.2334 96.23 46.3401C96.2367 46.4468 96.1867 46.5401 96.08 46.6201ZM89.9 35.5801C89.9 35.5134 89.9 35.4134 89.9 35.2801C89.9133 34.7601 89.9067 34.4001 89.88 34.2001C89.84 33.8801 89.7433 33.6101 89.59 33.3901C89.4367 33.1701 89.23 33.0034 88.97 32.8901C88.71 32.7768 88.4 32.7334 88.04 32.7601C87.6133 32.7734 87.2267 32.9134 86.88 33.1801C86.5067 33.4601 86.2667 33.8268 86.16 34.2801C86.1067 34.5601 85.96 34.7201 85.72 34.7601L83.28 34.4601C83.1733 34.4334 83.0867 34.3801 83.02 34.3001C82.9267 34.2068 82.9 34.0868 82.94 33.9401C83.18 32.6601 83.8133 31.6868 84.84 31.0201C85.7067 30.4734 86.7733 30.1668 88.04 30.1001H88.56C89.24 30.1001 89.9 30.1934 90.54 30.3801C91.2733 30.6068 91.8733 30.9334 92.34 31.3601C92.6867 31.6801 92.9467 32.0601 93.12 32.5001C93.2667 32.8601 93.36 33.2934 93.4 33.8001C93.4267 34.1068 93.44 34.5868 93.44 35.2401V39.6001C93.44 40.0934 93.5267 40.5268 93.7 40.9001C93.8067 41.1268 94.0067 41.4268 94.3 41.8001L94.4 41.9201C94.4667 42.0401 94.5 42.1568 94.5 42.2701C94.5 42.3834 94.4467 42.4868 94.34 42.5801C93.8067 43.0601 93.1733 43.6068 92.44 44.2201C92.3467 44.2868 92.2367 44.3234 92.11 44.3301C91.9833 44.3368 91.8867 44.3201 91.82 44.2801C91.54 44.0268 91.3 43.7934 91.1 43.5801C90.98 43.4334 90.82 43.2134 90.62 42.9201L90.38 42.6201C89.9667 43.0468 89.5767 43.3901 89.21 43.6501C88.8433 43.9101 88.4533 44.1001 88.04 44.2201C87.4667 44.3668 86.8667 44.4401 86.24 44.4401C85.5333 44.4401 84.8967 44.2934 84.33 44.0001C83.7633 43.7068 83.32 43.2801 83 42.7201C82.6667 42.1201 82.5 41.4001 82.5 40.5601C82.5 39.5734 82.7467 38.7134 83.24 37.9801C83.7067 37.3134 84.36 36.8068 85.2 36.4601C85.9067 36.1668 86.8 35.9401 87.88 35.7801C88.6933 35.6601 89.3667 35.5934 89.9 35.5801ZM89.42 40.7801C89.6467 40.4068 89.7867 40.0001 89.84 39.5601C89.88 39.2668 89.9 38.7201 89.9 37.9201V37.6001C89.1667 37.6001 88.5467 37.6601 88.04 37.7801C87.4667 37.9401 87.02 38.1934 86.7 38.5401C86.34 38.9401 86.16 39.4668 86.16 40.1201C86.16 40.6801 86.2967 41.1268 86.57 41.4601C86.8433 41.7934 87.2133 41.9601 87.68 41.9601C87.8133 41.9601 87.9333 41.9468 88.04 41.9201C88.3733 41.8268 88.65 41.6901 88.87 41.5101C89.09 41.3301 89.2733 41.0868 89.42 40.7801Z" fill="#4B5563"/>
</svg>
