<svg width="176" height="80" viewBox="0 0 176 80" fill="none" xmlns="http://www.w3.org/2000/svg">
<rect width="176" height="80" rx="16" fill="white"/>
<path d="M88 49.6001C86.64 49.6001 85.34 49.3401 84.1 48.8201C82.9133 48.3134 81.8567 47.5968 80.93 46.6701C80.0033 45.7434 79.2867 44.6868 78.78 43.5001C78.26 42.2601 78 40.9601 78 39.6001C78 38.2401 78.26 36.9401 78.78 35.7001C79.2867 34.5134 80.0033 33.4568 80.93 32.5301C81.8567 31.6034 82.9133 30.8868 84.1 30.3801C85.34 29.8601 86.64 29.6001 88 29.6001C89.36 29.6001 90.66 29.8601 91.9 30.3801C93.0867 30.8868 94.1433 31.6034 95.07 32.5301C95.9967 33.4568 96.7133 34.5134 97.22 35.7001C97.74 36.9401 98 38.2401 98 39.6001C98 40.9601 97.74 42.2601 97.22 43.5001C96.7133 44.6868 95.9967 45.7434 95.07 46.6701C94.1433 47.5968 93.0867 48.3134 91.9 48.8201C90.66 49.3401 89.36 49.6001 88 49.6001ZM88 47.6001C89.4533 47.6001 90.8 47.2334 92.04 46.5001C93.24 45.7934 94.1933 44.8401 94.9 43.6401C95.6333 42.4001 96 41.0534 96 39.6001C96 38.1468 95.6333 36.8001 94.9 35.5601C94.1933 34.3601 93.24 33.4068 92.04 32.7001C90.8 31.9668 89.4533 31.6001 88 31.6001C86.5467 31.6001 85.2 31.9668 83.96 32.7001C82.76 33.4068 81.8067 34.3601 81.1 35.5601C80.3667 36.8001 80 38.1468 80 39.6001C80 41.0534 80.3667 42.4001 81.1 43.6401C81.8067 44.8401 82.76 45.7934 83.96 46.5001C85.2 47.2334 86.5467 47.6001 88 47.6001Z" fill="#4B5563"/>
</svg>
