<svg width="176" height="80" viewBox="0 0 176 80" fill="none" xmlns="http://www.w3.org/2000/svg">
<rect width="176" height="80" rx="16" fill="white"/>
<path d="M96.5999 37.7801C96.8265 37.1401 96.9065 36.4534 96.8399 35.7201C96.7865 35.1068 96.5799 34.4401 96.2199 33.7201C95.9399 33.2534 95.5999 32.8368 95.1999 32.4701C94.7999 32.1034 94.3665 31.8134 93.8999 31.6001C92.8599 31.1468 91.8199 31.0401 90.7799 31.2801C90.2332 30.7468 89.6699 30.3334 89.0899 30.0401C88.5099 29.7468 87.8265 29.6001 87.0399 29.6001C86.4932 29.6001 85.9632 29.6801 85.4499 29.8401C84.9365 30.0001 84.4632 30.2334 84.0299 30.5401C83.5965 30.8468 83.2265 31.2134 82.9199 31.6401C82.6132 32.0668 82.3799 32.5334 82.2199 33.0401C81.6065 33.1868 80.9399 33.4801 80.2199 33.9201C79.7532 34.2801 79.2932 34.8001 78.8399 35.4801C78.2932 36.3868 78.0865 37.4068 78.2199 38.5401C78.3399 39.6201 78.7532 40.5801 79.4599 41.4201C79.2332 42.0601 79.1532 42.7468 79.2199 43.4801C79.2732 44.0934 79.4799 44.7601 79.8399 45.4801C80.1199 45.9468 80.4599 46.3634 80.8599 46.7301C81.2599 47.0968 81.6932 47.3868 82.1599 47.6001C83.1999 48.0534 84.2399 48.1601 85.2799 47.9201C85.8265 48.4534 86.3899 48.8668 86.9699 49.1601C87.5499 49.4534 88.2399 49.6001 89.0399 49.6001C89.5732 49.6001 90.0965 49.5201 90.6099 49.3601C91.1232 49.2001 91.5965 48.9668 92.0299 48.6601C92.4632 48.3534 92.8332 47.9868 93.1399 47.5601C93.4465 47.1334 93.6799 46.6668 93.8399 46.1601C94.5465 46.0268 95.1932 45.7334 95.7799 45.2801C96.4332 44.7868 96.8932 44.2668 97.1599 43.7201C97.7065 42.8134 97.9132 41.7934 97.7799 40.6601C97.6465 39.5268 97.2532 38.5668 96.5999 37.7801ZM89.0999 48.2801C88.6065 48.2801 88.1665 48.2068 87.7799 48.0601C87.3932 47.9134 87.0199 47.7001 86.6599 47.4201L86.6999 47.3801C86.7265 47.3534 86.7532 47.3401 86.7799 47.3401L90.7799 45.0401C90.8865 44.9868 90.9732 44.9001 91.0399 44.7801C91.0799 44.7001 91.0999 44.6001 91.0999 44.4801V38.8401L92.7799 39.8401V44.4801C92.8065 45.1868 92.6465 45.8401 92.2999 46.4401C91.9665 47.0001 91.5132 47.4468 90.9399 47.7801C90.3665 48.1134 89.7532 48.2801 89.0999 48.2801ZM81.0399 44.8401C80.8132 44.4668 80.6599 44.0668 80.5799 43.6401C80.4999 43.2134 80.5065 42.7801 80.5999 42.3401L80.6399 42.3801C80.6665 42.4068 80.6932 42.4201 80.7199 42.4201L84.7199 44.7201C84.7999 44.7601 84.9065 44.7801 85.0399 44.7801C85.1999 44.7801 85.2999 44.7601 85.3399 44.7201L90.2199 41.9201V43.8401L86.1599 46.2201C85.7199 46.4734 85.2599 46.6301 84.7799 46.6901C84.2999 46.7501 83.8165 46.7201 83.3299 46.6001C82.8432 46.4801 82.3999 46.2668 81.9999 45.9601C81.5999 45.6534 81.2799 45.2801 81.0399 44.8401ZM79.9599 36.1601C80.1865 35.7868 80.4665 35.4634 80.7999 35.1901C81.1332 34.9168 81.4999 34.7001 81.8999 34.5401V39.2801C81.8999 39.4534 81.9199 39.5601 81.9599 39.6001C82.0265 39.7068 82.1132 39.7868 82.2199 39.8401L87.0999 42.6601L85.3999 43.6601L81.3999 41.3401C80.9732 41.1001 80.6065 40.7834 80.2999 40.3901C79.9932 39.9968 79.7765 39.5601 79.6499 39.0801C79.5232 38.6001 79.4865 38.1068 79.5399 37.6001C79.5799 37.0668 79.7199 36.5868 79.9599 36.1601ZM93.7799 39.3401L88.8999 36.5401L90.5999 35.5401L94.5999 37.8401C95.2532 38.2401 95.7332 38.7401 96.0399 39.3401C96.3865 40.0468 96.5265 40.7401 96.4599 41.4201C96.3932 42.1534 96.1465 42.7934 95.7199 43.3401C95.2532 43.9401 94.6932 44.3601 94.0399 44.6001V39.8401C94.0399 39.6801 94.0132 39.5801 93.9599 39.5401L93.9199 39.4601C93.8799 39.4068 93.8332 39.3668 93.7799 39.3401ZM95.4599 36.8401C95.4465 36.8401 95.4299 36.8301 95.4099 36.8101C95.3899 36.7901 95.3665 36.7801 95.3399 36.7801L91.3399 34.4801C91.2599 34.4401 91.1599 34.4201 91.0399 34.4201C90.8665 34.4201 90.7599 34.4401 90.7199 34.4801L85.8399 37.2801V35.3401L89.8999 32.9801C90.4599 32.6468 91.1465 32.4801 91.9599 32.4801C92.6399 32.4801 93.3065 32.7068 93.9599 33.1601C94.6132 33.6668 95.0532 34.2068 95.2799 34.7801C95.3999 35.1001 95.4765 35.4401 95.5099 35.8001C95.5432 36.1601 95.5265 36.5068 95.4599 36.8401ZM84.9599 40.3401L83.2799 39.3401V34.6601C83.2799 34.3134 83.3265 33.9634 83.4199 33.6101C83.5132 33.2568 83.6532 32.9401 83.8399 32.6601C84.1865 32.1001 84.7065 31.6401 85.3999 31.2801C85.7199 31.1334 86.0599 31.0301 86.4199 30.9701C86.7799 30.9101 87.1265 30.9134 87.4599 30.9801C88.1399 31.0334 88.7865 31.3001 89.3999 31.7801L89.3599 31.8201C89.3332 31.8334 89.3065 31.8401 89.2799 31.8401L85.2799 34.1601C85.1732 34.2134 85.0932 34.3001 85.0399 34.4201C84.9865 34.5001 84.9599 34.6001 84.9599 34.7201V40.3401ZM85.8399 38.3401L88.0399 37.1001L90.2199 38.3401V40.8401L88.0399 42.1001L85.8399 40.8401V38.3401Z" fill="#4B5563"/>
</svg>
