<svg width="176" height="80" viewBox="0 0 176 80" fill="none" xmlns="http://www.w3.org/2000/svg">
<rect width="176" height="80" rx="16" fill="white"/>
<path d="M79.2602 35.1001C79.8069 34.0201 80.5335 33.0634 81.4402 32.2301C82.3469 31.3968 83.3735 30.7534 84.5202 30.3001C85.6935 29.8334 86.9202 29.6001 88.2002 29.6001C89.5202 29.6001 90.7535 29.8334 91.9002 30.3001C93.0069 30.7401 94.0069 31.3734 94.9002 32.2001L92.0202 35.0801C91.5002 34.5868 90.9169 34.2134 90.2702 33.9601C89.6235 33.7068 88.9335 33.5801 88.2002 33.5801C87.3469 33.5801 86.5335 33.7601 85.7602 34.1201C85.0269 34.4668 84.3835 34.9534 83.8302 35.5801C83.2769 36.2068 82.8669 36.9134 82.6002 37.7001C82.4002 38.3268 82.3002 38.9601 82.3002 39.6001C82.3002 40.2401 82.4002 40.8734 82.6002 41.5001C82.8669 42.2868 83.2769 42.9934 83.8302 43.6201C84.3835 44.2468 85.0269 44.7334 85.7602 45.0801C86.5335 45.4401 87.3469 45.6201 88.2002 45.6201C89.5069 45.6201 90.6335 45.3001 91.5802 44.6601C92.1135 44.3134 92.5502 43.8801 92.8902 43.3601C93.2302 42.8401 93.4602 42.2668 93.5802 41.6401H88.2002V37.7801H97.6202C97.7402 38.4468 97.8002 39.1268 97.8002 39.8201C97.8002 41.3268 97.5435 42.7101 97.0302 43.9701C96.5169 45.2301 95.7802 46.3001 94.8202 47.1801C93.9802 47.9534 93.0069 48.5468 91.9002 48.9601C90.7669 49.3868 89.5335 49.6001 88.2002 49.6001C86.9202 49.6001 85.6935 49.3668 84.5202 48.9001C83.3735 48.4468 82.3469 47.8034 81.4402 46.9701C80.5335 46.1368 79.8069 45.1801 79.2602 44.1001C78.5535 42.6868 78.2002 41.1868 78.2002 39.6001C78.2002 38.0134 78.5535 36.5134 79.2602 35.1001Z" fill="#4B5563"/>
</svg>
