<svg width="40" height="40" viewBox="0 0 40 40" fill="none" xmlns="http://www.w3.org/2000/svg">
<rect width="40" height="40" rx="16" fill="#1F2937"/>
<path d="M27.4849 14.9652C26.9178 15.2097 26.3311 15.371 25.7249 15.4492C26.0378 15.2537 26.3116 15.0092 26.5462 14.7159C26.7809 14.4225 26.952 14.0999 27.0596 13.7479C26.4533 14.1097 25.808 14.359 25.1236 14.4959C24.8302 14.183 24.488 13.9434 24.0969 13.7772C23.7058 13.611 23.3 13.5279 22.8796 13.5279C22.3222 13.5279 21.8089 13.6648 21.3396 13.9385C20.8702 14.2123 20.4987 14.5839 20.2249 15.0532C19.9511 15.5225 19.8142 16.0359 19.8142 16.5932C19.8142 16.8279 19.8387 17.0625 19.8876 17.2972C18.636 17.2288 17.4529 16.911 16.3382 16.3439C15.2627 15.7865 14.3387 15.0337 13.5662 14.0852C13.2925 14.5643 13.1556 15.0777 13.1556 15.6252C13.1556 16.1532 13.2778 16.6421 13.5222 17.0919C13.7667 17.5417 14.0991 17.9034 14.5196 18.1772C14.0307 18.1674 13.5662 18.0403 13.1262 17.7959V17.8399C13.1262 18.3288 13.2338 18.7834 13.4489 19.2039C13.664 19.6243 13.9598 19.9788 14.3362 20.2672C14.7127 20.5557 15.1307 20.7488 15.5902 20.8465C15.3262 20.915 15.0573 20.9492 14.7836 20.9492C14.588 20.9492 14.3973 20.9297 14.2116 20.8905C14.4071 21.5065 14.7665 22.0125 15.2896 22.4085C15.8127 22.8045 16.4067 23.0123 17.0716 23.0319C16.524 23.4523 15.9251 23.775 15.2749 23.9999C14.6247 24.2248 13.9525 24.3372 13.2582 24.3372C13.0138 24.3372 12.7693 24.3225 12.5249 24.2932C13.2289 24.743 13.9818 25.0852 14.7836 25.3199C15.5853 25.5545 16.4018 25.6719 17.2329 25.6719C18.5822 25.6719 19.8289 25.4079 20.9729 24.8799C22.0191 24.391 22.9333 23.7065 23.7156 22.8265C24.4391 22.0052 24.9965 21.0714 25.3876 20.0252C25.7689 19.0083 25.9596 17.9817 25.9596 16.9452C25.9596 16.8181 25.9547 16.6861 25.9449 16.5492C26.5511 16.1092 27.0645 15.5812 27.4849 14.9652Z" fill="white"/>
</svg>
