<svg width="176" height="80" viewBox="0 0 176 80" fill="none" xmlns="http://www.w3.org/2000/svg">
<rect width="176" height="80" rx="16" fill="white"/>
<path d="M88 29.8398C86.64 29.8398 85.34 30.1065 84.1 30.6398C82.9133 31.1465 81.8567 31.8598 80.93 32.7798C80.0033 33.6998 79.2867 34.7598 78.78 35.9598C78.26 37.1998 78 38.4931 78 39.8398C78 41.2931 78.2933 42.6731 78.88 43.9798C79.4533 45.2465 80.26 46.3465 81.3 47.2798C82.34 48.2131 83.52 48.8998 84.84 49.3398C85.0667 49.3798 85.2367 49.3465 85.35 49.2398C85.4633 49.1331 85.52 49.0065 85.52 48.8598V46.9998C84.4133 47.1998 83.56 47.1331 82.96 46.7998C82.5733 46.5731 82.3 46.2465 82.14 45.8198C82.0733 45.6198 81.9467 45.3798 81.76 45.0998C81.52 44.7398 81.3067 44.5065 81.12 44.3998C80.88 44.2798 80.7333 44.1531 80.68 44.0198C80.6 43.8465 80.7367 43.7565 81.09 43.7498C81.4433 43.7431 81.78 43.8731 82.1 44.1398C82.3133 44.3131 82.4933 44.5265 82.64 44.7798C83.04 45.4331 83.5667 45.7865 84.22 45.8398C84.66 45.8798 85.1067 45.7998 85.56 45.5998C85.64 44.9998 85.8533 44.5531 86.2 44.2598C85.3333 44.1665 84.6133 43.9865 84.04 43.7198C83.2933 43.3865 82.7267 42.8931 82.34 42.2398C81.8733 41.4931 81.64 40.5198 81.64 39.3198C81.64 38.2798 81.9867 37.3865 82.68 36.6398C82.5733 36.3731 82.5067 36.0731 82.48 35.7398C82.44 35.1531 82.54 34.5665 82.78 33.9798L82.94 33.9598C83.0867 33.9598 83.2533 33.9798 83.44 34.0198C83.6933 34.0731 83.9733 34.1665 84.28 34.2998C84.6667 34.4731 85.08 34.7065 85.52 34.9998C86.32 34.7865 87.1533 34.6798 88.02 34.6798C88.8867 34.6798 89.72 34.7865 90.52 34.9998C91.32 34.4665 92.02 34.1331 92.62 33.9998C92.9133 33.9465 93.1333 33.9398 93.28 33.9798C93.5067 34.5665 93.6 35.1531 93.56 35.7398C93.5467 36.0731 93.4867 36.3731 93.38 36.6398C94.06 37.3865 94.4 38.2798 94.4 39.3198C94.4 40.5198 94.1733 41.4998 93.72 42.2598C93.32 42.8998 92.7467 43.3865 92 43.7198C91.4267 43.9865 90.7067 44.1665 89.84 44.2598C90.04 44.4331 90.2 44.6598 90.32 44.9398C90.4533 45.2731 90.52 45.6598 90.52 46.0998L90.5 48.8598C90.5 49.0198 90.5567 49.1498 90.67 49.2498C90.7833 49.3498 90.9533 49.3798 91.18 49.3398C92.5267 48.8865 93.7167 48.1865 94.75 47.2398C95.7833 46.2931 96.5833 45.1798 97.15 43.8998C97.7167 42.6198 98 41.2665 98 39.8398C98 38.4931 97.74 37.1998 97.22 35.9598C96.7133 34.7598 95.9967 33.6998 95.07 32.7798C94.1433 31.8598 93.0867 31.1465 91.9 30.6398C90.66 30.1065 89.36 29.8398 88 29.8398Z" fill="#4B5563"/>
</svg>
