<svg width="32" height="31" viewBox="0 0 32 31" fill="none" xmlns="http://www.w3.org/2000/svg">
<g opacity="0.6">
<path d="M28.125 22.3497C28.125 22.883 27.9917 23.483 27.725 24.1497C27.4083 24.933 26.9917 25.5414 26.475 25.9747C26.3583 26.058 26.2583 26.0789 26.175 26.0372C26.0917 25.9955 26.075 25.9164 26.125 25.7997C26.4083 25.083 26.6167 24.5164 26.75 24.0997C26.9833 23.333 27.0167 22.858 26.85 22.6747C26.65 22.4247 25.925 22.3497 24.675 22.4497L24.275 22.4997C23.975 22.533 23.7625 22.558 23.6375 22.5747C23.5125 22.5914 23.4417 22.5539 23.425 22.4622C23.4083 22.3705 23.4667 22.283 23.6 22.1997C23.9333 21.9664 24.2917 21.7914 24.675 21.6747C25.125 21.5414 25.6167 21.4664 26.15 21.4497C26.5833 21.433 26.9833 21.458 27.35 21.5247C27.7167 21.5914 27.9375 21.6664 28.0125 21.7497C28.0875 21.833 28.125 22.033 28.125 22.3497ZM25.725 23.9747C25.4083 24.208 25.0583 24.433 24.675 24.6497C23.3917 25.433 21.925 26.0414 20.275 26.4747C18.6917 26.8747 17.1333 27.0747 15.6 27.0747C13.25 27.0747 11 26.658 8.85 25.8247C6.78333 25.0247 4.91667 23.8664 3.25 22.3497C3.16667 22.283 3.125 22.208 3.125 22.1247C3.125 22.0414 3.16667 21.9789 3.25 21.9372C3.33333 21.8955 3.425 21.908 3.525 21.9747C5.325 23.0247 7.26667 23.8247 9.35 24.3747C11.5 24.958 13.6833 25.2497 15.9 25.2497C17.35 25.2497 18.8 25.1164 20.25 24.8497C21.7833 24.5664 23.2583 24.1497 24.675 23.5997L25.325 23.3497C25.4583 23.283 25.5875 23.2789 25.7125 23.3372C25.8375 23.3955 25.9042 23.4914 25.9125 23.6247C25.9208 23.758 25.8583 23.8747 25.725 23.9747ZM18 10.1747C18 10.0914 18 9.96637 18 9.79971C18.0167 9.14971 18.0083 8.69971 17.975 8.44971C17.925 8.04971 17.8042 7.71221 17.6125 7.43721C17.4208 7.16221 17.1625 6.95387 16.8375 6.81221C16.5125 6.67054 16.125 6.61637 15.675 6.64971C15.1417 6.66637 14.6583 6.84137 14.225 7.17471C13.7583 7.52471 13.4583 7.98304 13.325 8.54971C13.2583 8.89971 13.075 9.09971 12.775 9.14971L9.725 8.77471C9.59167 8.74137 9.48333 8.67471 9.4 8.57471C9.28333 8.45804 9.25 8.30804 9.3 8.12471C9.6 6.52471 10.3917 5.30804 11.675 4.47471C12.7583 3.79137 14.0917 3.40804 15.675 3.32471H16.325C17.175 3.32471 18 3.44137 18.8 3.67471C19.7167 3.95804 20.4667 4.36637 21.05 4.89971C21.4833 5.29971 21.8083 5.77471 22.025 6.32471C22.2083 6.77471 22.325 7.31637 22.375 7.94971C22.4083 8.33304 22.425 8.93304 22.425 9.74971V15.1997C22.425 15.8164 22.5333 16.358 22.75 16.8247C22.8833 17.108 23.1333 17.483 23.5 17.9497L23.625 18.0997C23.7083 18.2497 23.75 18.3955 23.75 18.5372C23.75 18.6789 23.6833 18.808 23.55 18.9247C22.8833 19.5247 22.0917 20.208 21.175 20.9747C21.0583 21.058 20.9208 21.1039 20.7625 21.1122C20.6042 21.1205 20.4833 21.0997 20.4 21.0497C20.05 20.733 19.75 20.4414 19.5 20.1747C19.35 19.9914 19.15 19.7164 18.9 19.3497L18.6 18.9747C18.0833 19.508 17.5958 19.9372 17.1375 20.2622C16.6792 20.5872 16.1917 20.8247 15.675 20.9747C14.9583 21.158 14.2083 21.2497 13.425 21.2497C12.5417 21.2497 11.7458 21.0664 11.0375 20.6997C10.3292 20.333 9.775 19.7997 9.375 19.0997C8.95833 18.3497 8.75 17.4497 8.75 16.3997C8.75 15.1664 9.05833 14.0914 9.675 13.1747C10.2583 12.3414 11.075 11.708 12.125 11.2747C13.0083 10.908 14.125 10.6247 15.475 10.4247C16.4917 10.2747 17.3333 10.1914 18 10.1747ZM17.4 16.6747C17.6833 16.208 17.8583 15.6997 17.925 15.1497C17.975 14.783 18 14.0997 18 13.0997V12.6997C17.0833 12.6997 16.3083 12.7747 15.675 12.9247C14.9583 13.1247 14.4 13.4414 14 13.8747C13.55 14.3747 13.325 15.033 13.325 15.8497C13.325 16.5497 13.4958 17.108 13.8375 17.5247C14.1792 17.9414 14.6417 18.1497 15.225 18.1497C15.3917 18.1497 15.5417 18.133 15.675 18.0997C16.0917 17.983 16.4375 17.8122 16.7125 17.5872C16.9875 17.3622 17.2167 17.058 17.4 16.6747Z" fill="#4B5563"/>
</g>
</svg>
