<svg width="32" height="31" viewBox="0 0 32 31" fill="none" xmlns="http://www.w3.org/2000/svg">
<g opacity="0.6">
<path d="M14.75 5.09984L17.25 12.2498L17.75 13.6248L17.775 1.59984H23.125V15.1748C23.125 24.2415 23.1167 28.7832 23.1 28.7998C23.0833 28.8165 22.9 28.8082 22.55 28.7748C21.05 28.5915 19.6583 28.4748 18.375 28.4248C17.8583 28.3915 17.6 28.3748 17.6 28.3748L13.525 16.8748L13.5 22.5998C13.5 25.3165 13.4958 26.954 13.4875 27.5123C13.4792 28.0707 13.4583 28.3498 13.425 28.3498C13.325 28.3498 12.9458 28.3748 12.2875 28.4248C11.6292 28.4748 11.1583 28.5082 10.875 28.5248C10.325 28.5748 9.75833 28.6332 9.175 28.6998C8.49167 28.7832 8.14583 28.8207 8.1375 28.8123C8.12917 28.804 8.125 24.2665 8.125 15.1998V1.59984H13.5L14.75 5.07484V5.09984Z" fill="#4B5563"/>
</g>
</svg>
