<svg width="25" height="25" viewBox="0 0 25 25" fill="none" xmlns="http://www.w3.org/2000/svg">
<path d="M4.5 11.7399L0.5 9.3999L12.5 2.3999L24.5 9.3999V17.8999H22.5V10.5599L20.5 11.7399V18.4199L20.28 18.6799C19.3467 19.8399 18.2133 20.7466 16.88 21.3999C15.5067 22.0666 14.0467 22.3999 12.5 22.3999C10.9533 22.3999 9.49333 22.0666 8.12 21.3999C6.78667 20.7466 5.65333 19.8399 4.72 18.6799L4.5 18.4199V11.7399ZM6.5 12.8999V17.6999C7.24667 18.5399 8.13333 19.1932 9.16 19.6599C10.2133 20.1532 11.3267 20.3999 12.5 20.3999C13.6733 20.3999 14.7867 20.1532 15.84 19.6599C16.8667 19.1932 17.7533 18.5399 18.5 17.6999V12.8999L12.5 16.3999L6.5 12.8999ZM4.46 9.3999L12.5 14.0799L20.54 9.3999L12.5 4.7199L4.46 9.3999Z" fill="white"/>
</svg>
