<svg width="32" height="31" viewBox="0 0 32 31" fill="none" xmlns="http://www.w3.org/2000/svg">
<g opacity="0.6">
<path d="M15.8002 9.30013C15.5835 9.30013 15.3252 9.25013 15.0252 9.15013C14.8252 9.10013 14.5169 8.98347 14.1002 8.80013C13.5002 8.5668 13.0419 8.40847 12.7252 8.32513C12.1752 8.15847 11.6752 8.08347 11.2252 8.10013C10.0585 8.1168 8.9627 8.43763 7.9377 9.06263C6.9127 9.68763 6.1002 10.5251 5.5002 11.5751C4.73353 12.9085 4.34186 14.4918 4.3252 16.3251C4.3252 17.9418 4.61686 19.6168 5.2002 21.3501C5.71686 22.9335 6.4002 24.3335 7.2502 25.5501C7.76686 26.2835 8.18353 26.8418 8.5002 27.2251C9.0002 27.8085 9.48353 28.2501 9.9502 28.5501C10.5002 28.9001 11.0585 29.0668 11.6252 29.0501C11.9919 29.0335 12.3502 28.9751 12.7002 28.8751C12.9169 28.8085 13.2252 28.6918 13.6252 28.5251C14.0919 28.3251 14.4585 28.1835 14.7252 28.1001C15.1919 27.9835 15.671 27.9251 16.1627 27.9251C16.6544 27.9251 17.1169 27.9835 17.5502 28.1001C17.8002 28.1668 18.1419 28.296 18.5752 28.4876C19.0085 28.6793 19.3419 28.8085 19.5752 28.8751C19.9585 28.9751 20.3502 29.0251 20.7502 29.0251C21.3335 29.0085 21.8919 28.8335 22.4252 28.5001C22.8752 28.2168 23.3335 27.8001 23.8002 27.2501C24.1002 26.8835 24.5002 26.3335 25.0002 25.6001C25.5502 24.7835 26.0335 23.9001 26.4502 22.9501C26.6669 22.4501 26.8252 22.0251 26.9252 21.6751C26.6752 21.5918 26.3502 21.4085 25.9502 21.1251C25.2169 20.6418 24.6252 20.0585 24.1752 19.3751C23.5419 18.4085 23.2169 17.3001 23.2002 16.0501C23.1835 15.0168 23.4252 14.0501 23.9252 13.1501C24.2919 12.5001 24.7669 11.9168 25.3502 11.4001C25.6669 11.1335 25.9502 10.9335 26.2002 10.8001C25.4835 9.75013 24.5419 8.9918 23.3752 8.52513C22.6919 8.25847 21.9419 8.10013 21.1252 8.05013C20.4919 8.00013 19.8252 8.0668 19.1252 8.25013C18.7085 8.35013 18.1335 8.55013 17.4002 8.85013C16.9835 9.00013 16.6919 9.10847 16.5252 9.17513C16.2252 9.25847 15.9835 9.30013 15.8002 9.30013ZM19.7002 5.77513C20.2169 5.15847 20.6002 4.47513 20.8502 3.72513C21.1335 2.90847 21.2335 2.1168 21.1502 1.35013C20.4502 1.3668 19.721 1.57097 18.9627 1.96263C18.2044 2.3543 17.5752 2.8418 17.0752 3.42513C16.5752 4.00847 16.1835 4.65847 15.9002 5.37513C15.6002 6.1918 15.5002 6.97513 15.6002 7.72513C16.3335 7.7918 17.0835 7.62513 17.8502 7.22513C18.5669 6.87513 19.1835 6.3918 19.7002 5.77513Z" fill="#4B5563"/>
</g>
</svg>
