<svg width="32" height="31" viewBox="0 0 32 31" fill="none" xmlns="http://www.w3.org/2000/svg">
<g opacity="0.6">
<path d="M21.7749 5.82471C20.6916 5.82471 19.6416 6.20804 18.6249 6.97471C17.8082 7.59137 16.9332 8.52471 15.9999 9.77471C14.8999 8.35804 13.8457 7.34554 12.8374 6.73721C11.8291 6.12887 10.7624 5.82471 9.6374 5.82471C8.5124 5.82471 7.44157 6.16637 6.4249 6.84971C5.45824 7.49971 4.60407 8.40804 3.8624 9.57471C3.12074 10.7414 2.54574 12.0664 2.1374 13.5497C1.72907 15.033 1.5249 16.558 1.5249 18.1247C1.5249 19.4414 1.72907 20.583 2.1374 21.5497C2.54574 22.5164 3.13324 23.2622 3.8999 23.7872C4.66657 24.3122 5.58324 24.5747 6.6499 24.5747C7.46657 24.5747 8.18324 24.4164 8.7999 24.0997C9.51657 23.7497 10.2416 23.133 10.9749 22.2497C11.7249 21.333 12.5832 20.0247 13.5499 18.3247L15.6249 14.6497C15.9249 15.133 16.2416 15.6497 16.5749 16.1997L17.9499 18.5247C18.8999 20.108 19.6999 21.2997 20.3499 22.0997C21.0666 22.9997 21.7707 23.6372 22.4624 24.0122C23.1541 24.3872 23.9582 24.5747 24.8749 24.5747C25.9082 24.5747 26.7874 24.308 27.5124 23.7747C28.2374 23.2414 28.7874 22.483 29.1624 21.4997C29.5374 20.5164 29.7249 19.3497 29.7249 17.9997C29.7249 16.383 29.5166 14.8164 29.0999 13.2997C28.6999 11.8497 28.1291 10.558 27.3874 9.42471C26.6457 8.29137 25.7999 7.41637 24.8499 6.79971C23.8666 6.14971 22.8416 5.82471 21.7749 5.82471ZM11.2999 16.9247C10.4832 18.2247 9.83324 19.183 9.3499 19.7997C8.8499 20.4497 8.40824 20.8997 8.0249 21.1497C7.64157 21.3997 7.21657 21.5247 6.7499 21.5247C6.06657 21.5247 5.53324 21.233 5.1499 20.6497C4.76657 20.0664 4.5749 19.2414 4.5749 18.1747C4.5749 16.658 4.80407 15.1789 5.2624 13.7372C5.72074 12.2955 6.3249 11.1414 7.0749 10.2747C7.8749 9.35804 8.70824 8.89971 9.5749 8.89971C10.3416 8.89971 11.0582 9.14971 11.7249 9.64971C12.4416 10.183 13.2666 11.1164 14.1999 12.4497C12.9999 14.283 12.0332 15.7747 11.2999 16.9247ZM20.3249 16.4497L18.6749 13.6997C18.2249 12.9664 17.7999 12.2997 17.3999 11.6997C18.1666 10.4997 18.8666 9.63304 19.4999 9.09971C20.1666 8.53304 20.8582 8.24971 21.5749 8.24971C22.5749 8.24971 23.4999 8.69971 24.3499 9.59971C25.1666 10.483 25.8166 11.6747 26.2999 13.1747C26.7999 14.7247 27.0499 16.408 27.0499 18.2247C27.0499 19.2747 26.8707 20.0872 26.5124 20.6622C26.1541 21.2372 25.6249 21.5247 24.9249 21.5247C24.4749 21.5247 24.0666 21.3914 23.6999 21.1247C23.3332 20.858 22.8916 20.358 22.3749 19.6247C21.9582 19.0414 21.2749 17.983 20.3249 16.4497Z" fill="#4B5563"/>
</g>
</svg>
