<svg width="25" height="25" viewBox="0 0 25 25" fill="none" xmlns="http://www.w3.org/2000/svg">
<path d="M21.5 19.3999H23.5V21.3999H1.5V19.3999H3.5V4.3999C3.5 4.1199 3.59667 3.88324 3.79 3.6899C3.98333 3.49657 4.22 3.3999 4.5 3.3999H14.5C14.78 3.3999 15.0167 3.49657 15.21 3.6899C15.4033 3.88324 15.5 4.1199 15.5 4.3999V19.3999H19.5V11.3999H17.5V9.3999H20.5C20.78 9.3999 21.0167 9.49657 21.21 9.6899C21.4033 9.88324 21.5 10.1199 21.5 10.3999V19.3999ZM5.5 5.3999V19.3999H13.5V5.3999H5.5ZM7.5 11.3999H11.5V13.3999H7.5V11.3999ZM7.5 7.3999H11.5V9.3999H7.5V7.3999Z" fill="white"/>
</svg>
