<svg width="32" height="31" viewBox="0 0 32 31" fill="none" xmlns="http://www.w3.org/2000/svg">
<g opacity="0.6">
<path d="M4.7 9.57471C5.38333 8.22471 6.29167 7.02887 7.425 5.98721C8.55833 4.94554 9.84167 4.14137 11.275 3.57471C12.7417 2.99137 14.275 2.69971 15.875 2.69971C17.525 2.69971 19.0667 2.99137 20.5 3.57471C21.8833 4.12471 23.1333 4.91637 24.25 5.94971L20.65 9.54971C20 8.93304 19.2708 8.46637 18.4625 8.14971C17.6542 7.83304 16.7917 7.67471 15.875 7.67471C14.8083 7.67471 13.7917 7.89971 12.825 8.34971C11.9083 8.78304 11.1042 9.39137 10.4125 10.1747C9.72083 10.958 9.20833 11.8414 8.875 12.8247C8.625 13.608 8.5 14.3997 8.5 15.1997C8.5 15.9997 8.625 16.7914 8.875 17.5747C9.20833 18.558 9.72083 19.4414 10.4125 20.2247C11.1042 21.008 11.9083 21.6164 12.825 22.0497C13.7917 22.4997 14.8083 22.7247 15.875 22.7247C17.5083 22.7247 18.9167 22.3247 20.1 21.5247C20.7667 21.0914 21.3125 20.5497 21.7375 19.8997C22.1625 19.2497 22.45 18.533 22.6 17.7497H15.875V12.9247H27.65C27.8 13.758 27.875 14.608 27.875 15.4747C27.875 17.358 27.5542 19.0872 26.9125 20.6622C26.2708 22.2372 25.35 23.5747 24.15 24.6747C23.1 25.6414 21.8833 26.383 20.5 26.8997C19.0833 27.433 17.5417 27.6997 15.875 27.6997C14.275 27.6997 12.7417 27.408 11.275 26.8247C9.84167 26.258 8.55833 25.4539 7.425 24.4122C6.29167 23.3705 5.38333 22.1747 4.7 20.8247C3.81667 19.058 3.375 17.183 3.375 15.1997C3.375 13.2164 3.81667 11.3414 4.7 9.57471Z" fill="#4B5563"/>
</g>
</svg>
