<svg width="25" height="25" viewBox="0 0 25 25" fill="none" xmlns="http://www.w3.org/2000/svg">
<path d="M8.5 20.3999V14.3999H16.5V20.3999H19.5V4.3999H5.5V20.3999H8.5ZM10.5 20.3999H14.5V16.3999H10.5V20.3999ZM21.5 20.3999H23.5V22.3999H1.5V20.3999H3.5V3.3999C3.5 3.1199 3.59667 2.88324 3.79 2.6899C3.98333 2.49657 4.22 2.3999 4.5 2.3999H20.5C20.78 2.3999 21.0167 2.49657 21.21 2.6899C21.4033 2.88324 21.5 3.1199 21.5 3.3999V20.3999ZM11.5 8.3999V6.3999H13.5V8.3999H15.5V10.3999H13.5V12.3999H11.5V10.3999H9.5V8.3999H11.5Z" fill="white"/>
</svg>
