<svg width="25" height="25" viewBox="0 0 25 25" fill="none" xmlns="http://www.w3.org/2000/svg">
<path d="M4.14014 15.8999V3.8999H2.14014V1.8999H5.14014C5.42014 1.8999 5.6568 1.99657 5.85014 2.1899C6.04347 2.38324 6.14014 2.6199 6.14014 2.8999V14.8999H18.5801L20.5801 6.8999H8.14014V4.8999H21.8601C22.1401 4.8999 22.3768 4.99657 22.5701 5.1899C22.7635 5.38324 22.8601 5.6199 22.8601 5.8999C22.8601 5.9799 22.8468 6.0599 22.8201 6.1399L20.3201 16.1399C20.2668 16.3666 20.1501 16.5499 19.9701 16.6899C19.7901 16.8299 19.5868 16.8999 19.3601 16.8999H5.14014C4.86014 16.8999 4.62347 16.8032 4.43014 16.6099C4.2368 16.4166 4.14014 16.1799 4.14014 15.8999ZM6.14014 22.8999C5.78014 22.8999 5.4468 22.8099 5.14014 22.6299C4.83347 22.4499 4.59014 22.2066 4.41014 21.8999C4.23014 21.5932 4.14014 21.2599 4.14014 20.8999C4.14014 20.5399 4.23014 20.2066 4.41014 19.8999C4.59014 19.5932 4.83347 19.3499 5.14014 19.1699C5.4468 18.9899 5.78014 18.8999 6.14014 18.8999C6.50014 18.8999 6.83347 18.9899 7.14014 19.1699C7.4468 19.3499 7.69014 19.5932 7.87014 19.8999C8.05014 20.2066 8.14014 20.5399 8.14014 20.8999C8.14014 21.2599 8.05014 21.5932 7.87014 21.8999C7.69014 22.2066 7.4468 22.4499 7.14014 22.6299C6.83347 22.8099 6.50014 22.8999 6.14014 22.8999ZM18.1401 22.8999C17.7801 22.8999 17.4468 22.8099 17.1401 22.6299C16.8335 22.4499 16.5901 22.2066 16.4101 21.8999C16.2301 21.5932 16.1401 21.2599 16.1401 20.8999C16.1401 20.5399 16.2301 20.2066 16.4101 19.8999C16.5901 19.5932 16.8335 19.3499 17.1401 19.1699C17.4468 18.9899 17.7801 18.8999 18.1401 18.8999C18.5001 18.8999 18.8335 18.9899 19.1401 19.1699C19.4468 19.3499 19.6901 19.5932 19.8701 19.8999C20.0501 20.2066 20.1401 20.5399 20.1401 20.8999C20.1401 21.2599 20.0501 21.5932 19.8701 21.8999C19.6901 22.2066 19.4468 22.4499 19.1401 22.6299C18.8335 22.8099 18.5001 22.8999 18.1401 22.8999Z" fill="white"/>
</svg>
