<svg width="25" height="25" viewBox="0 0 25 25" fill="none" xmlns="http://www.w3.org/2000/svg">
<path d="M19.5 19.3999H5.5V20.3999C5.5 20.6799 5.40333 20.9166 5.21 21.1099C5.01667 21.3032 4.78 21.3999 4.5 21.3999H3.5C3.22 21.3999 2.98333 21.3032 2.79 21.1099C2.59667 20.9166 2.5 20.6799 2.5 20.3999V10.3999L4.98 4.6199C5.14 4.24657 5.38667 3.9499 5.72 3.7299C6.05333 3.5099 6.42 3.3999 6.82 3.3999H18.18C18.58 3.3999 18.9467 3.5099 19.28 3.7299C19.6133 3.9499 19.86 4.24657 20.02 4.6199L22.5 10.3999V20.3999C22.5 20.6799 22.4033 20.9166 22.21 21.1099C22.0167 21.3032 21.78 21.3999 21.5 21.3999H20.5C20.22 21.3999 19.9833 21.3032 19.79 21.1099C19.5967 20.9166 19.5 20.6799 19.5 20.3999V19.3999ZM20.5 12.3999H4.5V17.3999H20.5V12.3999ZM4.68 10.3999H20.32L18.18 5.3999H6.82L4.68 10.3999ZM7 16.3999C6.58667 16.3999 6.23333 16.2532 5.94 15.9599C5.64667 15.6666 5.5 15.3132 5.5 14.8999C5.5 14.4866 5.64667 14.1332 5.94 13.8399C6.23333 13.5466 6.58667 13.3999 7 13.3999C7.41333 13.3999 7.76667 13.5466 8.06 13.8399C8.35333 14.1332 8.5 14.4866 8.5 14.8999C8.5 15.3132 8.35333 15.6666 8.06 15.9599C7.76667 16.2532 7.41333 16.3999 7 16.3999ZM18 16.3999C17.5867 16.3999 17.2333 16.2532 16.94 15.9599C16.6467 15.6666 16.5 15.3132 16.5 14.8999C16.5 14.4866 16.6467 14.1332 16.94 13.8399C17.2333 13.5466 17.5867 13.3999 18 13.3999C18.4133 13.3999 18.7667 13.5466 19.06 13.8399C19.3533 14.1332 19.5 14.4866 19.5 14.8999C19.5 15.3132 19.3533 15.6666 19.06 15.9599C18.7667 16.2532 18.4133 16.3999 18 16.3999Z" fill="white"/>
</svg>
