<svg width="48" height="48" viewBox="0 0 48 48" fill="none" xmlns="http://www.w3.org/2000/svg">
<rect width="48" height="48" rx="16" fill="#FF6B35" fill-opacity="0.1"/>
<path d="M34 28.18C34 29.1134 33.7933 30 33.38 30.84C32.98 31.64 32.42 32.3234 31.7 32.89C30.98 33.4567 30.1733 33.84 29.28 34.04L28.64 32.12C29.24 32.0267 29.7867 31.8067 30.28 31.46C30.7733 31.1134 31.1667 30.68 31.46 30.16H29C28.64 30.16 28.3067 30.0734 28 29.9C27.6933 29.7267 27.45 29.4867 27.27 29.18C27.09 28.8734 27 28.5334 27 28.16V24.16C27 23.8 27.09 23.4667 27.27 23.16C27.45 22.8534 27.6933 22.61 28 22.43C28.3067 22.25 28.64 22.16 29 22.16H31.94C31.78 20.8667 31.3267 19.6867 30.58 18.62C29.8333 17.5534 28.8933 16.7134 27.76 16.1C26.5867 15.4734 25.3333 15.16 24 15.16C22.6667 15.16 21.4133 15.4734 20.24 16.1C19.1067 16.7134 18.1667 17.5534 17.42 18.62C16.6733 19.6867 16.22 20.8667 16.06 22.16H19C19.36 22.16 19.6933 22.25 20 22.43C20.3067 22.61 20.55 22.8534 20.73 23.16C20.91 23.4667 21 23.8 21 24.16V28.16C21 28.5334 20.91 28.8734 20.73 29.18C20.55 29.4867 20.3067 29.7267 20 29.9C19.6933 30.0734 19.36 30.16 19 30.16H16C15.64 30.16 15.3067 30.0734 15 29.9C14.6933 29.7267 14.45 29.4867 14.27 29.18C14.09 28.8734 14 28.5334 14 28.16V23.16C14 21.8134 14.26 20.52 14.78 19.28C15.2867 18.08 16.0033 17.02 16.93 16.1C17.8567 15.18 18.9133 14.4667 20.1 13.96C21.34 13.4267 22.64 13.16 24 13.16C25.36 13.16 26.66 13.4267 27.9 13.96C29.0867 14.4667 30.1433 15.18 31.07 16.1C31.9967 17.02 32.7133 18.08 33.22 19.28C33.74 20.52 34 21.8134 34 23.16V28.18ZM32 28.16V24.16H29V28.16H32ZM16 24.16V28.16H19V24.16H16Z" fill="#FF6B35"/>
</svg>
