<svg width="48" height="48" viewBox="0 0 48 48" fill="none" xmlns="http://www.w3.org/2000/svg">
<rect width="48" height="48" rx="16" fill="#FF6B35" fill-opacity="0.1"/>
<path d="M16 27.1001H32V16.1001H16V27.1001ZM25 29.1001V31.1001H29V33.1001H19V31.1001H23V29.1001H15C14.72 29.1001 14.4833 29.0034 14.29 28.8101C14.0967 28.6168 14 28.3801 14 28.1001V15.1001C14 14.8334 14.0967 14.6001 14.29 14.4001C14.4833 14.2001 14.72 14.1001 15 14.1001H33C33.28 14.1001 33.5167 14.1968 33.71 14.3901C33.9033 14.5834 34 14.8201 34 15.1001V28.1001C34 28.3668 33.9033 28.6001 33.71 28.8001C33.5167 29.0001 33.28 29.1001 33 29.1001H25Z" fill="#FF6B35"/>
</svg>
