<svg width="48" height="48" viewBox="0 0 48 48" fill="none" xmlns="http://www.w3.org/2000/svg">
<rect width="48" height="48" rx="16" fill="#FF6B35" fill-opacity="0.1"/>
<path d="M24 14.1001C25.2667 14.1001 26.4467 14.4201 27.54 15.0601C28.5933 15.6734 29.4267 16.5068 30.04 17.5601C30.68 18.6534 31 19.8334 31 21.1001V21.4401C31.7733 21.7068 32.4633 22.1201 33.07 22.6801C33.6767 23.2401 34.15 23.9034 34.49 24.6701C34.83 25.4368 35 26.2468 35 27.1001C35 28.1801 34.7267 29.1868 34.18 30.1201C33.6467 31.0268 32.9267 31.7468 32.02 32.2801C31.0867 32.8268 30.08 33.1001 29 33.1001H19C17.92 33.1001 16.9133 32.8268 15.98 32.2801C15.0733 31.7468 14.3533 31.0268 13.82 30.1201C13.2733 29.1868 13 28.1801 13 27.1001C13 26.2468 13.17 25.4368 13.51 24.6701C13.85 23.9034 14.3233 23.2401 14.93 22.6801C15.5367 22.1201 16.2267 21.7068 17 21.4401V21.1001C17 19.8334 17.32 18.6534 17.96 17.5601C18.5733 16.5068 19.4067 15.6734 20.46 15.0601C21.5533 14.4201 22.7333 14.1001 24 14.1001ZM24 16.1001C23.0933 16.1001 22.2567 16.3234 21.49 16.7701C20.7233 17.2168 20.1167 17.8234 19.67 18.5901C19.2233 19.3568 19 20.1934 19 21.1001L19.08 22.8401L17.68 23.3201C16.88 23.6001 16.2333 24.0868 15.74 24.7801C15.2467 25.4734 15 26.2468 15 27.1001C15 27.8201 15.18 28.4868 15.54 29.1001C15.9 29.7134 16.3867 30.2001 17 30.5601C17.6133 30.9201 18.28 31.1001 19 31.1001H29C29.72 31.1001 30.3867 30.9201 31 30.5601C31.6133 30.2001 32.1 29.7134 32.46 29.1001C32.82 28.4868 33 27.8201 33 27.1001C33 26.3801 32.82 25.7134 32.46 25.1001C32.1 24.4868 31.6133 24.0001 31 23.6401C30.3867 23.2801 29.72 23.1001 29 23.1001C28.1333 23.1001 27.35 23.3534 26.65 23.8601C25.95 24.3668 25.4667 25.0268 25.2 25.8401L23.3 25.2001C23.5667 24.4134 23.98 23.7068 24.54 23.0801C25.1 22.4534 25.7667 21.9668 26.54 21.6201C27.3133 21.2734 28.1333 21.1001 29 21.1001C29 20.1934 28.7767 19.3568 28.33 18.5901C27.8833 17.8234 27.2767 17.2168 26.51 16.7701C25.7433 16.3234 24.9067 16.1001 24 16.1001Z" fill="#FF6B35"/>
</svg>
