<svg width="48" height="48" viewBox="0 0 48 48" fill="none" xmlns="http://www.w3.org/2000/svg">
<rect width="48" height="48" rx="16" fill="#FF6B35" fill-opacity="0.1"/>
<path d="M24 12.6001L33.5 18.1001V29.1001L24 34.6001L14.5 29.1001V18.1001L24 12.6001ZM24 14.9201L16.5 19.2601V27.9401L24 32.2801L31.5 27.9401V19.2601L24 14.9201ZM24 27.6001C23.28 27.6001 22.6133 27.4201 22 27.0601C21.3867 26.7001 20.9 26.2134 20.54 25.6001C20.18 24.9868 20 24.3201 20 23.6001C20 22.8801 20.18 22.2134 20.54 21.6001C20.9 20.9868 21.3867 20.5001 22 20.1401C22.6133 19.7801 23.28 19.6001 24 19.6001C24.72 19.6001 25.3867 19.7801 26 20.1401C26.6133 20.5001 27.1 20.9868 27.46 21.6001C27.82 22.2134 28 22.8801 28 23.6001C28 24.3201 27.82 24.9868 27.46 25.6001C27.1 26.2134 26.6133 26.7001 26 27.0601C25.3867 27.4201 24.72 27.6001 24 27.6001ZM24 25.6001C24.36 25.6001 24.6933 25.5101 25 25.3301C25.3067 25.1501 25.55 24.9068 25.73 24.6001C25.91 24.2934 26 23.9601 26 23.6001C26 23.2401 25.91 22.9068 25.73 22.6001C25.55 22.2934 25.3067 22.0501 25 21.8701C24.6933 21.6901 24.36 21.6001 24 21.6001C23.64 21.6001 23.3067 21.6901 23 21.8701C22.6933 22.0501 22.45 22.2934 22.27 22.6001C22.09 22.9068 22 23.2401 22 23.6001C22 23.9601 22.09 24.2934 22.27 24.6001C22.45 24.9068 22.6933 25.1501 23 25.3301C23.3067 25.5101 23.64 25.6001 24 25.6001Z" fill="#FF6B35"/>
</svg>
