<svg width="48" height="48" viewBox="0 0 48 48" fill="none" xmlns="http://www.w3.org/2000/svg">
<rect width="48" height="48" rx="16" fill="#FF6B35" fill-opacity="0.1"/>
<path d="M25 16.1601C26.48 16.3201 27.84 16.8201 29.08 17.6601C30.28 18.4868 31.2267 19.5468 31.92 20.8401C32.64 22.1601 33 23.5801 33 25.1001V34.1001H15V25.1001C15 23.5801 15.36 22.1601 16.08 20.8401C16.7733 19.5468 17.72 18.4868 18.92 17.6601C20.16 16.8201 21.52 16.3201 23 16.1601V13.1001H25V16.1601ZM31 32.1001V25.1001C31 23.8334 30.68 22.6534 30.04 21.5601C29.4267 20.5068 28.5933 19.6734 27.54 19.0601C26.4467 18.4201 25.2667 18.1001 24 18.1001C22.7333 18.1001 21.5533 18.4201 20.46 19.0601C19.4067 19.6734 18.5733 20.5068 17.96 21.5601C17.32 22.6534 17 23.8334 17 25.1001V32.1001H31ZM24 30.1001C23.0933 30.1001 22.2567 29.8768 21.49 29.4301C20.7233 28.9834 20.1167 28.3768 19.67 27.6101C19.2233 26.8434 19 26.0068 19 25.1001C19 24.1934 19.2233 23.3568 19.67 22.5901C20.1167 21.8234 20.7233 21.2168 21.49 20.7701C22.2567 20.3234 23.0933 20.1001 24 20.1001C24.9067 20.1001 25.7433 20.3234 26.51 20.7701C27.2767 21.2168 27.8833 21.8234 28.33 22.5901C28.7767 23.3568 29 24.1934 29 25.1001C29 26.0068 28.7767 26.8434 28.33 27.6101C27.8833 28.3768 27.2767 28.9834 26.51 29.4301C25.7433 29.8768 24.9067 30.1001 24 30.1001ZM24 28.1001C24.5467 28.1001 25.05 27.9668 25.51 27.7001C25.97 27.4334 26.3333 27.0701 26.6 26.6101C26.8667 26.1501 27 25.6468 27 25.1001C27 24.5534 26.8667 24.0501 26.6 23.5901C26.3333 23.1301 25.97 22.7668 25.51 22.5001C25.05 22.2334 24.5467 22.1001 24 22.1001C23.4533 22.1001 22.95 22.2334 22.49 22.5001C22.03 22.7668 21.6667 23.1301 21.4 23.5901C21.1333 24.0501 21 24.5534 21 25.1001C21 25.6468 21.1333 26.1501 21.4 26.6101C21.6667 27.0701 22.03 27.4334 22.49 27.7001C22.95 27.9668 23.4533 28.1001 24 28.1001ZM24 26.1001C23.72 26.1001 23.4833 26.0034 23.29 25.8101C23.0967 25.6168 23 25.3801 23 25.1001C23 24.8201 23.0967 24.5834 23.29 24.3901C23.4833 24.1968 23.72 24.1001 24 24.1001C24.28 24.1001 24.5167 24.1968 24.71 24.3901C24.9033 24.5834 25 24.8201 25 25.1001C25 25.3801 24.9033 25.6168 24.71 25.8101C24.5167 26.0034 24.28 26.1001 24 26.1001Z" fill="#FF6B35"/>
</svg>
