<svg width="48" height="48" viewBox="0 0 48 48" fill="none" xmlns="http://www.w3.org/2000/svg">
<rect width="48" height="48" rx="16" fill="#FF6B35" fill-opacity="0.1"/>
<path d="M23.9949 30.7014L28.1096 26.5701C28.8648 25.826 29.3757 24.9486 29.6422 23.938C29.8977 22.9496 29.8977 21.9612 29.6422 20.9728C29.3757 19.9621 28.8676 19.082 28.118 18.3324C27.3683 17.5827 26.4882 17.0746 25.4776 16.8081C24.4891 16.5527 23.5007 16.5527 22.5123 16.8081C21.5017 17.0746 20.6216 17.5827 19.8719 18.3324C19.1223 19.082 18.6142 19.9621 18.3476 20.9728C18.0922 21.9612 18.0922 22.9496 18.3476 23.938C18.6142 24.9486 19.1251 25.826 19.8802 26.5701L23.9949 30.7014ZM23.9949 33.0503L18.6975 27.7528C17.7313 26.7977 17.0816 25.6649 16.7484 24.3545C16.4152 23.0884 16.4152 21.8223 16.7484 20.5563C17.0816 19.2458 17.7285 18.1102 18.6892 17.1496C19.6498 16.1889 20.7854 15.5365 22.0958 15.1922C23.3619 14.8701 24.628 14.8701 25.894 15.1922C27.2045 15.5365 28.3401 16.1889 29.3007 17.1496C30.2614 18.1102 30.9083 19.2458 31.2415 20.5563C31.5746 21.8223 31.5746 23.0884 31.2415 24.3545C30.9083 25.6649 30.2586 26.7977 29.2924 27.7528L23.9949 33.0503ZM23.9949 24.1212C24.2948 24.1212 24.5724 24.0463 24.8279 23.8964C25.0833 23.7464 25.286 23.5437 25.4359 23.2883C25.5858 23.0329 25.6608 22.7552 25.6608 22.4554C25.6608 22.1555 25.5858 21.8779 25.4359 21.6224C25.286 21.367 25.0833 21.1643 24.8279 21.0144C24.5724 20.8645 24.2948 20.7895 23.9949 20.7895C23.6951 20.7895 23.4174 20.8645 23.162 21.0144C22.9066 21.1643 22.7039 21.367 22.554 21.6224C22.404 21.8779 22.3291 22.1555 22.3291 22.4554C22.3291 22.7552 22.404 23.0329 22.554 23.2883C22.7039 23.5437 22.9066 23.7464 23.162 23.8964C23.4174 24.0463 23.6951 24.1212 23.9949 24.1212ZM23.9949 25.7871C23.3952 25.7871 22.8399 25.6372 22.3291 25.3373C21.8182 25.0375 21.4128 24.6321 21.113 24.1212C20.8131 23.6104 20.6632 23.0523 20.6632 22.447C20.6632 21.8418 20.8131 21.2865 21.113 20.7812C21.4128 20.2759 21.8182 19.8733 22.3291 19.5734C22.8399 19.2736 23.3952 19.1236 23.9949 19.1236C24.5946 19.1236 25.1499 19.2736 25.6608 19.5734C26.1717 19.8733 26.577 20.2759 26.8769 20.7812C27.1767 21.2865 27.3267 21.8418 27.3267 22.447C27.3267 23.0523 27.1767 23.6104 26.8769 24.1212C26.577 24.6321 26.1717 25.0375 25.6608 25.3373C25.1499 25.6372 24.5946 25.7871 23.9949 25.7871Z" fill="#FF6B35"/>
</svg>
