<svg width="48" height="48" viewBox="0 0 48 48" fill="none" xmlns="http://www.w3.org/2000/svg">
<rect width="48" height="48" rx="16" fill="#FF6B35" fill-opacity="0.1"/>
<path d="M21.796 22.9051C22.1847 23.5937 22.6595 24.2184 23.2203 24.7792C23.7812 25.34 24.4059 25.8148 25.0944 26.2035L25.8274 25.1707C25.9496 24.993 26.1134 24.8819 26.3188 24.8375C26.5243 24.7931 26.7214 24.8208 26.9102 24.9208C28.0985 25.576 29.3701 25.9536 30.725 26.0536C30.9361 26.0758 31.1165 26.1646 31.2664 26.3201C31.4164 26.4756 31.4913 26.6644 31.4913 26.8865V30.6014C31.4913 30.8124 31.4192 30.9984 31.2748 31.1595C31.1304 31.3205 30.9527 31.4121 30.7417 31.4343C30.2975 31.4788 29.8532 31.501 29.409 31.501C27.6543 31.501 25.9773 31.1623 24.3781 30.4848C22.8344 29.8296 21.4684 28.9078 20.2801 27.7195C19.0917 26.5311 18.17 25.1651 17.5147 23.6214C16.8373 22.0222 16.4985 20.3452 16.4985 18.5905C16.4985 18.1463 16.5207 17.702 16.5652 17.2578C16.5874 17.0468 16.679 16.8691 16.84 16.7247C17.0011 16.5804 17.1871 16.5082 17.3981 16.5082H21.113C21.3351 16.5082 21.5239 16.5831 21.6794 16.7331C21.8349 16.883 21.9237 17.0635 21.9459 17.2745C22.0459 18.6294 22.4235 19.901 23.0787 21.0893C23.1787 21.2781 23.2064 21.4752 23.162 21.6807C23.1176 21.8861 23.0065 22.05 22.8288 22.1721L21.796 22.9051ZM19.697 22.3554L21.2796 21.2226C20.8353 20.2564 20.5299 19.2402 20.3633 18.174H18.1644V18.5905C18.1644 20.112 18.4587 21.5724 19.0473 22.9717C19.6137 24.3155 20.4161 25.5066 21.4545 26.545C22.4929 27.5834 23.684 28.3858 25.0278 28.9522C26.4271 29.5408 27.8875 29.8351 29.409 29.8351H29.8255V27.6362C28.7593 27.4696 27.7431 27.1642 26.7769 26.7199L25.6441 28.3025C25.1888 28.1248 24.7446 27.9138 24.3115 27.6695L24.2615 27.6528C23.4508 27.1864 22.7122 26.62 22.0459 25.9536C21.3795 25.2873 20.8131 24.5488 20.3467 23.738L20.33 23.6881C20.0857 23.2549 19.8747 22.8107 19.697 22.3554Z" fill="#FF6B35"/>
</svg>
