<svg width="48" height="48" viewBox="0 0 48 48" fill="none" xmlns="http://www.w3.org/2000/svg">
<rect width="48" height="48" rx="16" fill="#FF6B35" fill-opacity="0.1"/>
<path d="M21.98 29.1001H23V24.1001H25V29.1001H26.02C26.0867 28.5268 26.2733 27.9668 26.58 27.4201C26.8467 26.9268 27.24 26.3934 27.76 25.8201L28.04 25.5201C28.4267 25.1201 28.64 24.9001 28.68 24.8601C29.1067 24.3268 29.4333 23.7401 29.66 23.1001C29.8867 22.4601 30 21.7934 30 21.1001C30 20.0201 29.7267 19.0134 29.18 18.0801C28.6467 17.1734 27.9267 16.4534 27.02 15.9201C26.0867 15.3734 25.08 15.1001 24 15.1001C22.92 15.1001 21.9133 15.3734 20.98 15.9201C20.0733 16.4534 19.3533 17.1734 18.82 18.0801C18.2733 19.0134 18 20.0201 18 21.1001C18 21.7934 18.1133 22.4601 18.34 23.1001C18.5667 23.7401 18.8933 24.3201 19.32 24.8401C19.36 24.8934 19.5733 25.1201 19.96 25.5201L20.24 25.8201C20.76 26.3934 21.1533 26.9268 21.42 27.4201C21.7267 27.9668 21.9133 28.5268 21.98 29.1001ZM22 31.1001V32.1001H26V31.1001H22ZM17.76 26.1001C17.2 25.4068 16.7667 24.6401 16.46 23.8001C16.1533 22.9334 16 22.0334 16 21.1001C16 19.6468 16.3667 18.3001 17.1 17.0601C17.8067 15.8601 18.76 14.9068 19.96 14.2001C21.2 13.4668 22.5467 13.1001 24 13.1001C25.4533 13.1001 26.8 13.4668 28.04 14.2001C29.24 14.9068 30.1933 15.8601 30.9 17.0601C31.6333 18.3001 32 19.6468 32 21.1001C32 22.0334 31.8467 22.9334 31.54 23.8001C31.2333 24.6401 30.8 25.4068 30.24 26.1001C30.1467 26.2201 29.96 26.4201 29.68 26.7001C29.16 27.2468 28.7933 27.6801 28.58 28.0001C28.1933 28.5601 28 29.0934 28 29.6001V32.1001C28 32.4601 27.91 32.7934 27.73 33.1001C27.55 33.4068 27.3067 33.6501 27 33.8301C26.6933 34.0101 26.36 34.1001 26 34.1001H22C21.64 34.1001 21.3067 34.0101 21 33.8301C20.6933 33.6501 20.45 33.4068 20.27 33.1001C20.09 32.7934 20 32.4601 20 32.1001V29.6001C20 29.0934 19.8067 28.5601 19.42 28.0001C19.2067 27.6801 18.84 27.2468 18.32 26.7001C18.04 26.4201 17.8533 26.2201 17.76 26.1001Z" fill="#FF6B35"/>
</svg>
