<svg width="48" height="48" viewBox="0 0 48 48" fill="none" xmlns="http://www.w3.org/2000/svg">
<rect width="48" height="48" rx="16" fill="#FF6B35" fill-opacity="0.1"/>
<path d="M16.4985 16.5082H31.4913C31.7245 16.5082 31.9216 16.5887 32.0826 16.7497C32.2437 16.9108 32.3242 17.1079 32.3242 17.3411V30.668C32.3242 30.9013 32.2437 31.0984 32.0826 31.2594C31.9216 31.4205 31.7245 31.501 31.4913 31.501H16.4985C16.2652 31.501 16.0681 31.4205 15.9071 31.2594C15.746 31.0984 15.6655 30.9013 15.6655 30.668V17.3411C15.6655 17.1079 15.746 16.9108 15.9071 16.7497C16.0681 16.5887 16.2652 16.5082 16.4985 16.5082ZM30.6583 20.0398L24.0615 25.9536L17.3314 20.0232V29.8351H30.6583V20.0398ZM17.7645 18.174L24.0448 23.7214L30.2419 18.174H17.7645Z" fill="#FF6B35"/>
</svg>
