<svg width="48" height="48" viewBox="0 0 48 48" fill="none" xmlns="http://www.w3.org/2000/svg">
<rect width="48" height="48" rx="16" fill="#FF6B35" fill-opacity="0.1"/>
<path d="M22.7998 25.8398V27.8398C21.7198 27.8398 20.7131 28.1132 19.7798 28.6598C18.8731 29.1932 18.1531 29.9132 17.6198 30.8198C17.0731 31.7532 16.7998 32.7665 16.7998 33.8598H14.7998C14.7998 32.4065 15.1665 31.0598 15.8998 29.8198C16.6065 28.6065 17.5598 27.6465 18.7598 26.9398C19.9998 26.2065 21.3465 25.8398 22.7998 25.8398ZM22.7998 24.8398C21.7198 24.8398 20.7131 24.5732 19.7798 24.0398C18.8731 23.5065 18.1531 22.7865 17.6198 21.8798C17.0731 20.9465 16.7998 19.9365 16.7998 18.8498C16.7998 17.7632 17.0731 16.7532 17.6198 15.8198C18.1531 14.9132 18.8731 14.1932 19.7798 13.6598C20.7131 13.1132 21.7231 12.8398 22.8098 12.8398C23.8965 12.8398 24.9065 13.1132 25.8398 13.6598C26.7331 14.1932 27.4465 14.9132 27.9798 15.8198C28.5265 16.7532 28.7998 17.7632 28.7998 18.8498C28.7998 19.9365 28.5265 20.9465 27.9798 21.8798C27.4465 22.7865 26.7331 23.5065 25.8398 24.0398C24.9065 24.5732 23.8931 24.8398 22.7998 24.8398ZM22.7998 22.8398C23.5198 22.8398 24.1865 22.6632 24.7998 22.3098C25.4131 21.9565 25.8998 21.4732 26.2598 20.8598C26.6198 20.2465 26.7998 19.5765 26.7998 18.8498C26.7998 18.1232 26.6198 17.4532 26.2598 16.8398C25.8998 16.2265 25.4131 15.7398 24.7998 15.3798C24.1865 15.0198 23.5198 14.8398 22.7998 14.8398C22.0798 14.8398 21.4131 15.0198 20.7998 15.3798C20.1865 15.7398 19.6998 16.2265 19.3398 16.8398C18.9798 17.4532 18.7998 18.1232 18.7998 18.8498C18.7998 19.5765 18.9798 20.2465 19.3398 20.8598C19.6998 21.4732 20.1865 21.9565 20.7998 22.3098C21.4131 22.6632 22.0798 22.8398 22.7998 22.8398ZM25.3998 30.6598C25.3331 30.3932 25.2998 30.1232 25.2998 29.8498C25.2998 29.5765 25.3331 29.3065 25.3998 29.0398L24.3998 28.4598L25.3998 26.7398L26.3998 27.2998C26.7998 26.9265 27.2665 26.6598 27.7998 26.4998V25.3398H29.7998V26.4998C30.3331 26.6598 30.7998 26.9265 31.1998 27.2998L32.1998 26.7398L33.1998 28.4598L32.1998 29.0398C32.2665 29.3065 32.2998 29.5765 32.2998 29.8498C32.2998 30.1232 32.2665 30.3932 32.1998 30.6598L33.1998 31.2398L32.1998 32.9598L31.1998 32.3998C30.7998 32.7732 30.3331 33.0398 29.7998 33.1998V34.3398H27.7998V33.1998C27.2665 33.0398 26.7998 32.7732 26.3998 32.3998L25.3998 32.9598L24.3998 31.2398L25.3998 30.6598ZM28.7998 31.3398C29.2131 31.3398 29.5665 31.1965 29.8598 30.9098C30.1531 30.6232 30.2998 30.2698 30.2998 29.8498C30.2998 29.4298 30.1531 29.0765 29.8598 28.7898C29.5665 28.5032 29.2131 28.3565 28.7998 28.3498C28.3865 28.3432 28.0331 28.4865 27.7398 28.7798C27.4465 29.0732 27.2998 29.4298 27.2998 29.8498C27.2998 30.2698 27.4465 30.6265 27.7398 30.9198C28.0331 31.2132 28.3865 31.3598 28.7998 31.3598V31.3398Z" fill="#FF6B35"/>
</svg>
