<svg width="48" height="48" viewBox="0 0 48 48" fill="none" xmlns="http://www.w3.org/2000/svg">
<rect width="48" height="48" rx="16" fill="#FF6B35" fill-opacity="0.1"/>
<path d="M24 22.6001C24.9067 22.6001 25.7433 22.8234 26.51 23.2701C27.2767 23.7168 27.8833 24.3234 28.33 25.0901C28.7767 25.8568 29 26.6934 29 27.6001V33.6001H27V27.6001C27 27.0801 26.8733 26.5968 26.62 26.1501C26.3667 25.7034 26.0267 25.3434 25.6 25.0701C25.1733 24.7968 24.7 24.6401 24.18 24.6001H24C23.48 24.6001 22.9967 24.7268 22.55 24.9801C22.1033 25.2334 21.7433 25.5734 21.47 26.0001C21.1967 26.4268 21.04 26.9001 21 27.4201V33.6001H19V27.6001C19 26.6934 19.2233 25.8568 19.67 25.0901C20.1167 24.3234 20.7233 23.7168 21.49 23.2701C22.2567 22.8234 23.0933 22.6001 24 22.6001ZM17.5 25.6001C17.78 25.6001 18.0533 25.6334 18.32 25.7001C18.1467 26.2068 18.04 26.7268 18 27.2601V27.6801C17.88 27.6401 17.76 27.6134 17.64 27.6001H17.5C17.1133 27.6001 16.7767 27.7301 16.49 27.9901C16.2033 28.2501 16.04 28.5734 16 28.9601V29.1001V33.6001H14V29.1001C14 28.4601 14.1567 27.8734 14.47 27.3401C14.7833 26.8068 15.2067 26.3834 15.74 26.0701C16.2733 25.7568 16.86 25.6001 17.5 25.6001ZM30.5 25.6001C31.14 25.6001 31.7267 25.7568 32.26 26.0701C32.7933 26.3834 33.2167 26.8068 33.53 27.3401C33.8433 27.8734 34 28.4601 34 29.1001V33.6001H32V29.1001C32 28.7134 31.87 28.3768 31.61 28.0901C31.35 27.8034 31.0267 27.6401 30.64 27.6001H30.5C30.3267 27.6001 30.16 27.6268 30 27.6801V27.6001C30 26.9468 29.9 26.3134 29.7 25.7001C29.9533 25.6334 30.22 25.6001 30.5 25.6001ZM17.5 19.6001C17.9533 19.6001 18.37 19.7134 18.75 19.9401C19.13 20.1668 19.4333 20.4701 19.66 20.8501C19.8867 21.2301 20 21.6468 20 22.1001C20 22.5534 19.8867 22.9701 19.66 23.3501C19.4333 23.7301 19.13 24.0334 18.75 24.2601C18.37 24.4868 17.9533 24.6001 17.5 24.6001C17.0467 24.6001 16.63 24.4868 16.25 24.2601C15.87 24.0334 15.5667 23.7301 15.34 23.3501C15.1133 22.9701 15 22.5534 15 22.1001C15 21.6468 15.1133 21.2301 15.34 20.8501C15.5667 20.4701 15.87 20.1668 16.25 19.9401C16.63 19.7134 17.0467 19.6001 17.5 19.6001ZM30.5 19.6001C30.9533 19.6001 31.37 19.7134 31.75 19.9401C32.13 20.1668 32.4333 20.4701 32.66 20.8501C32.8867 21.2301 33 21.6468 33 22.1001C33 22.5534 32.8867 22.9701 32.66 23.3501C32.4333 23.7301 32.13 24.0334 31.75 24.2601C31.37 24.4868 30.9533 24.6001 30.5 24.6001C30.0467 24.6001 29.63 24.4868 29.25 24.2601C28.87 24.0334 28.5667 23.7301 28.34 23.3501C28.1133 22.9701 28 22.5534 28 22.1001C28 21.6468 28.1133 21.2301 28.34 20.8501C28.5667 20.4701 28.87 20.1668 29.25 19.9401C29.63 19.7134 30.0467 19.6001 30.5 19.6001ZM17.5 21.6001C17.3667 21.6001 17.25 21.6501 17.15 21.7501C17.05 21.8501 17 21.9668 17 22.1001C17 22.2334 17.05 22.3501 17.15 22.4501C17.25 22.5501 17.3667 22.6001 17.5 22.6001C17.6333 22.6001 17.75 22.5501 17.85 22.4501C17.95 22.3501 18 22.2334 18 22.1001C18 21.9668 17.95 21.8501 17.85 21.7501C17.75 21.6501 17.6333 21.6001 17.5 21.6001ZM30.5 21.6001C30.3667 21.6001 30.25 21.6501 30.15 21.7501C30.05 21.8501 30 21.9668 30 22.1001C30 22.2334 30.05 22.3501 30.15 22.4501C30.25 22.5501 30.3667 22.6001 30.5 22.6001C30.6333 22.6001 30.75 22.5501 30.85 22.4501C30.95 22.3501 31 22.2334 31 22.1001C31 21.9668 30.95 21.8501 30.85 21.7501C30.75 21.6501 30.6333 21.6001 30.5 21.6001ZM24 13.6001C24.72 13.6001 25.3867 13.7801 26 14.1401C26.6133 14.5001 27.1 14.9868 27.46 15.6001C27.82 16.2134 28 16.8801 28 17.6001C28 18.3201 27.82 18.9868 27.46 19.6001C27.1 20.2134 26.6133 20.7001 26 21.0601C25.3867 21.4201 24.72 21.6001 24 21.6001C23.28 21.6001 22.6133 21.4201 22 21.0601C21.3867 20.7001 20.9 20.2134 20.54 19.6001C20.18 18.9868 20 18.3201 20 17.6001C20 16.8801 20.18 16.2134 20.54 15.6001C20.9 14.9868 21.3867 14.5001 22 14.1401C22.6133 13.7801 23.28 13.6001 24 13.6001ZM24 15.6001C23.64 15.6001 23.3067 15.6901 23 15.8701C22.6933 16.0501 22.45 16.2934 22.27 16.6001C22.09 16.9068 22 17.2401 22 17.6001C22 17.9601 22.09 18.2934 22.27 18.6001C22.45 18.9068 22.6933 19.1501 23 19.3301C23.3067 19.5101 23.64 19.6001 24 19.6001C24.36 19.6001 24.6933 19.5101 25 19.3301C25.3067 19.1501 25.55 18.9068 25.73 18.6001C25.91 18.2934 26 17.9601 26 17.6001C26 17.2401 25.91 16.9068 25.73 16.6001C25.55 16.2934 25.3067 16.0501 25 15.8701C24.6933 15.6901 24.36 15.6001 24 15.6001Z" fill="#FF6B35"/>
</svg>
