<svg width="64" height="64" viewBox="0 0 64 64" fill="none" xmlns="http://www.w3.org/2000/svg">
<rect width="64" height="64" rx="20" fill="url(#paint0_linear_193_165)"/>
<path d="M23.6401 35.0996V23.0996H21.6401V21.0996H24.6401C24.9201 21.0996 25.1568 21.1963 25.3501 21.3896C25.5435 21.5829 25.6401 21.8196 25.6401 22.0996V34.0996H38.0801L40.0801 26.0996H27.6401V24.0996H41.3601C41.6401 24.0996 41.8768 24.1963 42.0701 24.3896C42.2635 24.5829 42.3601 24.8196 42.3601 25.0996C42.3601 25.1796 42.3468 25.2596 42.3201 25.3396L39.8201 35.3396C39.7668 35.5663 39.6501 35.7496 39.4701 35.8896C39.2901 36.0296 39.0868 36.0996 38.8601 36.0996H24.6401C24.3601 36.0996 24.1235 36.0029 23.9301 35.8096C23.7368 35.6163 23.6401 35.3796 23.6401 35.0996ZM25.6401 42.0996C25.2801 42.0996 24.9468 42.0096 24.6401 41.8296C24.3335 41.6496 24.0901 41.4063 23.9101 41.0996C23.7301 40.7929 23.6401 40.4596 23.6401 40.0996C23.6401 39.7396 23.7301 39.4063 23.9101 39.0996C24.0901 38.7929 24.3335 38.5496 24.6401 38.3696C24.9468 38.1896 25.2801 38.0996 25.6401 38.0996C26.0001 38.0996 26.3335 38.1896 26.6401 38.3696C26.9468 38.5496 27.1901 38.7929 27.3701 39.0996C27.5501 39.4063 27.6401 39.7396 27.6401 40.0996C27.6401 40.4596 27.5501 40.7929 27.3701 41.0996C27.1901 41.4063 26.9468 41.6496 26.6401 41.8296C26.3335 42.0096 26.0001 42.0996 25.6401 42.0996ZM37.6401 42.0996C37.2801 42.0996 36.9468 42.0096 36.6401 41.8296C36.3335 41.6496 36.0901 41.4063 35.9101 41.0996C35.7301 40.7929 35.6401 40.4596 35.6401 40.0996C35.6401 39.7396 35.7301 39.4063 35.9101 39.0996C36.0901 38.7929 36.3335 38.5496 36.6401 38.3696C36.9468 38.1896 37.2801 38.0996 37.6401 38.0996C38.0001 38.0996 38.3335 38.1896 38.6401 38.3696C38.9468 38.5496 39.1901 38.7929 39.3701 39.0996C39.5501 39.4063 39.6401 39.7396 39.6401 40.0996C39.6401 40.4596 39.5501 40.7929 39.3701 41.0996C39.1901 41.4063 38.9468 41.6496 38.6401 41.8296C38.3335 42.0096 38.0001 42.0996 37.6401 42.0996Z" fill="white"/>
<defs>
<linearGradient id="paint0_linear_193_165" x1="0" y1="0" x2="64" y2="64" gradientUnits="userSpaceOnUse">
<stop stop-color="#3B82F6"/>
<stop offset="1" stop-color="#9333EA"/>
</linearGradient>
</defs>
</svg>
