<svg width="64" height="64" viewBox="0 0 64 64" fill="none" xmlns="http://www.w3.org/2000/svg">
<rect width="64" height="64" rx="20" fill="url(#paint0_linear_193_135)"/>
<path d="M33 24.1601C34.48 24.3201 35.84 24.8201 37.08 25.6601C38.28 26.4868 39.2267 27.5468 39.92 28.8401C40.64 30.1601 41 31.5801 41 33.1001V42.1001H23V33.1001C23 31.5801 23.36 30.1601 24.08 28.8401C24.7733 27.5468 25.72 26.4868 26.92 25.6601C28.16 24.8201 29.52 24.3201 31 24.1601V21.1001H33V24.1601ZM39 40.1001V33.1001C39 31.8334 38.68 30.6534 38.04 29.5601C37.4267 28.5068 36.5933 27.6734 35.54 27.0601C34.4467 26.4201 33.2667 26.1001 32 26.1001C30.7333 26.1001 29.5533 26.4201 28.46 27.0601C27.4067 27.6734 26.5733 28.5068 25.96 29.5601C25.32 30.6534 25 31.8334 25 33.1001V40.1001H39ZM32 38.1001C31.0933 38.1001 30.2567 37.8768 29.49 37.4301C28.7233 36.9834 28.1167 36.3768 27.67 35.6101C27.2233 34.8434 27 34.0068 27 33.1001C27 32.1934 27.2233 31.3568 27.67 30.5901C28.1167 29.8234 28.7233 29.2168 29.49 28.7701C30.2567 28.3234 31.0933 28.1001 32 28.1001C32.9067 28.1001 33.7433 28.3234 34.51 28.7701C35.2767 29.2168 35.8833 29.8234 36.33 30.5901C36.7767 31.3568 37 32.1934 37 33.1001C37 34.0068 36.7767 34.8434 36.33 35.6101C35.8833 36.3768 35.2767 36.9834 34.51 37.4301C33.7433 37.8768 32.9067 38.1001 32 38.1001ZM32 36.1001C32.5467 36.1001 33.05 35.9668 33.51 35.7001C33.97 35.4334 34.3333 35.0701 34.6 34.6101C34.8667 34.1501 35 33.6468 35 33.1001C35 32.5534 34.8667 32.0501 34.6 31.5901C34.3333 31.1301 33.97 30.7668 33.51 30.5001C33.05 30.2334 32.5467 30.1001 32 30.1001C31.4533 30.1001 30.95 30.2334 30.49 30.5001C30.03 30.7668 29.6667 31.1301 29.4 31.5901C29.1333 32.0501 29 32.5534 29 33.1001C29 33.6468 29.1333 34.1501 29.4 34.6101C29.6667 35.0701 30.03 35.4334 30.49 35.7001C30.95 35.9668 31.4533 36.1001 32 36.1001ZM32 34.1001C31.72 34.1001 31.4833 34.0034 31.29 33.8101C31.0967 33.6168 31 33.3801 31 33.1001C31 32.8201 31.0967 32.5834 31.29 32.3901C31.4833 32.1968 31.72 32.1001 32 32.1001C32.28 32.1001 32.5167 32.1968 32.71 32.3901C32.9033 32.5834 33 32.8201 33 33.1001C33 33.3801 32.9033 33.6168 32.71 33.8101C32.5167 34.0034 32.28 34.1001 32 34.1001Z" fill="white"/>
<defs>
<linearGradient id="paint0_linear_193_135" x1="0" y1="0" x2="64" y2="64" gradientUnits="userSpaceOnUse">
<stop stop-color="#A855F7"/>
<stop offset="1" stop-color="#DB2777"/>
</linearGradient>
</defs>
</svg>
