<svg width="65" height="64" viewBox="0 0 65 64" fill="none" xmlns="http://www.w3.org/2000/svg">
<rect x="0.600586" width="64" height="64" rx="32" fill="#FF6B35"/>
<path d="M25.6006 27.6001V39.6001H29.6006V27.6001H25.6006ZM23.6006 26.6001L27.6006 21.6001L31.6006 26.6001V41.6001H23.6006V26.6001ZM39.6006 35.6001V33.6001H36.6006V31.6001H39.6006V29.6001H37.6006V27.6001H39.6006V25.6001H35.6006V39.6001H39.6006V37.6001H37.6006V35.6001H39.6006ZM34.6006 23.6001H40.6006C40.8806 23.6001 41.1173 23.6968 41.3106 23.8901C41.5039 24.0834 41.6006 24.3201 41.6006 24.6001V40.6001C41.6006 40.8801 41.5039 41.1168 41.3106 41.3101C41.1173 41.5034 40.8806 41.6001 40.6006 41.6001H34.6006C34.3206 41.6001 34.0839 41.5034 33.8906 41.3101C33.6973 41.1168 33.6006 40.8801 33.6006 40.6001V24.6001C33.6006 24.3201 33.6973 24.0834 33.8906 23.8901C34.0839 23.6968 34.3206 23.6001 34.6006 23.6001Z" fill="white"/>
</svg>
