<svg width="48" height="48" viewBox="0 0 48 48" fill="none" xmlns="http://www.w3.org/2000/svg">
<rect width="48" height="48" rx="24" fill="#FF6B35"/>
<path d="M18.6636 30.999C18.6636 30.0296 18.9082 29.1312 19.3973 28.3041C19.8687 27.5036 20.5047 26.8677 21.3052 26.3963C22.1323 25.9071 23.0306 25.6625 24.0001 25.6625C24.9696 25.6625 25.8679 25.9071 26.6951 26.3963C27.4955 26.8677 28.1315 27.5036 28.6029 28.3041C29.092 29.1312 29.3366 30.0296 29.3366 30.999H28.0025C28.0025 30.2786 27.8202 29.6071 27.4555 28.9845C27.0997 28.3797 26.6195 27.8994 26.0146 27.5436C25.3921 27.179 24.7205 26.9966 24.0001 26.9966C23.2797 26.9966 22.6082 27.179 21.9856 27.5436C21.3808 27.8994 20.9005 28.3797 20.5447 28.9845C20.18 29.6071 19.9977 30.2786 19.9977 30.999H18.6636ZM24.0001 24.9954C23.2708 24.9954 22.5993 24.8131 21.9856 24.4484C21.3808 24.0927 20.9005 23.6124 20.5447 23.0076C20.18 22.3939 19.9977 21.7224 19.9977 20.993C19.9977 20.2637 20.18 19.5922 20.5447 18.9785C20.9005 18.3737 21.3808 17.8934 21.9856 17.5376C22.5993 17.173 23.2708 16.9906 24.0001 16.9906C24.7294 16.9906 25.4009 17.173 26.0146 17.5376C26.6195 17.8934 27.0997 18.3737 27.4555 18.9785C27.8202 19.5922 28.0025 20.2637 28.0025 20.993C28.0025 21.7224 27.8202 22.3939 27.4555 23.0076C27.0997 23.6124 26.6195 24.0927 26.0146 24.4484C25.4009 24.8131 24.7294 24.9954 24.0001 24.9954ZM24.0001 23.6613C24.4804 23.6613 24.9251 23.5412 25.3342 23.3011C25.7434 23.0609 26.068 22.7363 26.3082 22.3272C26.5483 21.918 26.6684 21.4733 26.6684 20.993C26.6684 20.5127 26.5483 20.068 26.3082 19.6589C26.068 19.2498 25.7434 18.9251 25.3342 18.685C24.9251 18.4448 24.4804 18.3248 24.0001 18.3248C23.5198 18.3248 23.0751 18.4448 22.666 18.685C22.2568 18.9251 21.9322 19.2498 21.6921 19.6589C21.4519 20.068 21.3318 20.5127 21.3318 20.993C21.3318 21.4733 21.4519 21.918 21.6921 22.3272C21.9322 22.7363 22.2568 23.0609 22.666 23.3011C23.0751 23.5412 23.5198 23.6613 24.0001 23.6613Z" fill="white"/>
</svg>
