<svg width="64" height="64" viewBox="0 0 64 64" fill="none" xmlns="http://www.w3.org/2000/svg">
<rect width="64" height="64" rx="20" fill="url(#paint0_linear_193_141)"/>
<path d="M30.7998 33.8398V35.8398C29.7198 35.8398 28.7131 36.1132 27.7798 36.6598C26.8731 37.1932 26.1531 37.9132 25.6198 38.8198C25.0731 39.7532 24.7998 40.7665 24.7998 41.8598H22.7998C22.7998 40.4065 23.1665 39.0598 23.8998 37.8198C24.6065 36.6065 25.5598 35.6465 26.7598 34.9398C27.9998 34.2065 29.3465 33.8398 30.7998 33.8398ZM30.7998 32.8398C29.7198 32.8398 28.7131 32.5732 27.7798 32.0398C26.8731 31.5065 26.1531 30.7865 25.6198 29.8798C25.0731 28.9465 24.7998 27.9365 24.7998 26.8498C24.7998 25.7632 25.0731 24.7532 25.6198 23.8198C26.1531 22.9132 26.8731 22.1932 27.7798 21.6598C28.7131 21.1132 29.7231 20.8398 30.8098 20.8398C31.8965 20.8398 32.9065 21.1132 33.8398 21.6598C34.7331 22.1932 35.4465 22.9132 35.9798 23.8198C36.5265 24.7532 36.7998 25.7632 36.7998 26.8498C36.7998 27.9365 36.5265 28.9465 35.9798 29.8798C35.4465 30.7865 34.7331 31.5065 33.8398 32.0398C32.9065 32.5732 31.8931 32.8398 30.7998 32.8398ZM30.7998 30.8398C31.5198 30.8398 32.1865 30.6632 32.7998 30.3098C33.4131 29.9565 33.8998 29.4732 34.2598 28.8598C34.6198 28.2465 34.7998 27.5765 34.7998 26.8498C34.7998 26.1232 34.6198 25.4532 34.2598 24.8398C33.8998 24.2265 33.4131 23.7398 32.7998 23.3798C32.1865 23.0198 31.5198 22.8398 30.7998 22.8398C30.0798 22.8398 29.4131 23.0198 28.7998 23.3798C28.1865 23.7398 27.6998 24.2265 27.3398 24.8398C26.9798 25.4532 26.7998 26.1232 26.7998 26.8498C26.7998 27.5765 26.9798 28.2465 27.3398 28.8598C27.6998 29.4732 28.1865 29.9565 28.7998 30.3098C29.4131 30.6632 30.0798 30.8398 30.7998 30.8398ZM33.3998 38.6598C33.3331 38.3932 33.2998 38.1232 33.2998 37.8498C33.2998 37.5765 33.3331 37.3065 33.3998 37.0398L32.3998 36.4598L33.3998 34.7398L34.3998 35.2998C34.7998 34.9265 35.2665 34.6598 35.7998 34.4998V33.3398H37.7998V34.4998C38.3331 34.6598 38.7998 34.9265 39.1998 35.2998L40.1998 34.7398L41.1998 36.4598L40.1998 37.0398C40.2665 37.3065 40.2998 37.5765 40.2998 37.8498C40.2998 38.1232 40.2665 38.3932 40.1998 38.6598L41.1998 39.2398L40.1998 40.9598L39.1998 40.3998C38.7998 40.7732 38.3331 41.0398 37.7998 41.1998V42.3398H35.7998V41.1998C35.2665 41.0398 34.7998 40.7732 34.3998 40.3998L33.3998 40.9598L32.3998 39.2398L33.3998 38.6598ZM36.7998 39.3398C37.2131 39.3398 37.5665 39.1965 37.8598 38.9098C38.1531 38.6232 38.2998 38.2698 38.2998 37.8498C38.2998 37.4298 38.1531 37.0765 37.8598 36.7898C37.5665 36.5032 37.2131 36.3565 36.7998 36.3498C36.3865 36.3432 36.0331 36.4865 35.7398 36.7798C35.4465 37.0732 35.2998 37.4298 35.2998 37.8498C35.2998 38.2698 35.4465 38.6265 35.7398 38.9198C36.0331 39.2132 36.3865 39.3598 36.7998 39.3598V39.3398Z" fill="white"/>
<defs>
<linearGradient id="paint0_linear_193_141" x1="0" y1="0" x2="64" y2="64" gradientUnits="userSpaceOnUse">
<stop stop-color="#14B8A6"/>
<stop offset="1" stop-color="#16A34A"/>
</linearGradient>
</defs>
</svg>
