<svg width="64" height="64" viewBox="0 0 64 64" fill="none" xmlns="http://www.w3.org/2000/svg">
<rect width="64" height="64" rx="20" fill="url(#paint0_linear_193_138)"/>
<path d="M32 20.6001L41.5 26.1001V37.1001L32 42.6001L22.5 37.1001V26.1001L32 20.6001ZM32 22.9201L24.5 27.2601V35.9401L32 40.2801L39.5 35.9401V27.2601L32 22.9201ZM32 35.6001C31.28 35.6001 30.6133 35.4201 30 35.0601C29.3867 34.7001 28.9 34.2134 28.54 33.6001C28.18 32.9868 28 32.3201 28 31.6001C28 30.8801 28.18 30.2134 28.54 29.6001C28.9 28.9868 29.3867 28.5001 30 28.1401C30.6133 27.7801 31.28 27.6001 32 27.6001C32.72 27.6001 33.3867 27.7801 34 28.1401C34.6133 28.5001 35.1 28.9868 35.46 29.6001C35.82 30.2134 36 30.8801 36 31.6001C36 32.3201 35.82 32.9868 35.46 33.6001C35.1 34.2134 34.6133 34.7001 34 35.0601C33.3867 35.4201 32.72 35.6001 32 35.6001ZM32 33.6001C32.36 33.6001 32.6933 33.5101 33 33.3301C33.3067 33.1501 33.55 32.9068 33.73 32.6001C33.91 32.2934 34 31.9601 34 31.6001C34 31.2401 33.91 30.9068 33.73 30.6001C33.55 30.2934 33.3067 30.0501 33 29.8701C32.6933 29.6901 32.36 29.6001 32 29.6001C31.64 29.6001 31.3067 29.6901 31 29.8701C30.6933 30.0501 30.45 30.2934 30.27 30.6001C30.09 30.9068 30 31.2401 30 31.6001C30 31.9601 30.09 32.2934 30.27 32.6001C30.45 32.9068 30.6933 33.1501 31 33.3301C31.3067 33.5101 31.64 33.6001 32 33.6001Z" fill="white"/>
<defs>
<linearGradient id="paint0_linear_193_138" x1="0" y1="0" x2="64" y2="64" gradientUnits="userSpaceOnUse">
<stop stop-color="#6366F1"/>
<stop offset="1" stop-color="#2563EB"/>
</linearGradient>
</defs>
</svg>
