<svg width="65" height="64" viewBox="0 0 65 64" fill="none" xmlns="http://www.w3.org/2000/svg">
<rect x="0.800781" width="64" height="64" rx="32" fill="#FF6B35"/>
<path d="M33.8008 39.5001C34.5608 39.3534 35.2441 39.0434 35.8508 38.5701C36.4574 38.0968 36.9341 37.5134 37.2808 36.8201C37.6274 36.1268 37.8008 35.3868 37.8008 34.6001V31.6001C37.8008 30.9068 37.6608 30.2401 37.3808 29.6001H28.2208C27.9408 30.2401 27.8008 30.9068 27.8008 31.6001V34.6001C27.8008 35.3868 27.9741 36.1268 28.3208 36.8201C28.6674 37.5134 29.1441 38.0968 29.7508 38.5701C30.3574 39.0434 31.0408 39.3534 31.8008 39.5001V33.6001H33.8008V39.5001ZM26.3408 37.3001C25.9808 36.4334 25.8008 35.5334 25.8008 34.6001H22.8008V32.6001H25.8008V31.6001C25.8008 30.9734 25.8808 30.3534 26.0408 29.7401L23.8408 28.4601L24.8408 26.7401L26.8608 27.9001L27.0608 27.6001H38.5408L38.7408 27.9001L40.7608 26.7401L41.7608 28.4601L39.5608 29.7401C39.7208 30.3534 39.8008 30.9734 39.8008 31.6001V32.6001H42.8008V34.6001H39.8008C39.8008 35.5334 39.6208 36.4334 39.2608 37.3001L41.7608 38.7401L40.7608 40.4601L38.2408 39.0001C37.5874 39.8134 36.7941 40.4468 35.8608 40.9001C34.9008 41.3668 33.8808 41.6001 32.8008 41.6001C31.7208 41.6001 30.7008 41.3668 29.7408 40.9001C28.8074 40.4468 28.0141 39.8134 27.3608 39.0001L24.8408 40.4601L23.8408 38.7401L26.3408 37.3001ZM28.8008 25.6001C28.8008 24.8801 28.9808 24.2134 29.3408 23.6001C29.7008 22.9868 30.1874 22.5001 30.8008 22.1401C31.4141 21.7801 32.0808 21.6001 32.8008 21.6001C33.5208 21.6001 34.1874 21.7801 34.8008 22.1401C35.4141 22.5001 35.9008 22.9868 36.2608 23.6001C36.6208 24.2134 36.8008 24.8801 36.8008 25.6001H28.8008Z" fill="white"/>
</svg>
