<svg width="64" height="64" viewBox="0 0 64 64" fill="none" xmlns="http://www.w3.org/2000/svg">
<rect width="64" height="64" rx="32" fill="#FF6B35"/>
<path d="M37.8798 36.0598L42.1598 40.3398L40.7398 41.7598L36.4598 37.4798C35.6732 38.1064 34.8132 38.5864 33.8798 38.9198C32.8932 39.2664 31.8798 39.4398 30.8398 39.4398C29.2132 39.4398 27.6998 39.0331 26.2998 38.2198C24.9398 37.4198 23.8665 36.3398 23.0798 34.9798C22.2532 33.5798 21.8398 32.0664 21.8398 30.4398C21.8398 28.8131 22.2532 27.2998 23.0798 25.8998C23.8665 24.5398 24.9398 23.4664 26.2998 22.6798C27.6998 21.8531 29.2132 21.4398 30.8398 21.4398C32.4665 21.4398 33.9798 21.8531 35.3798 22.6798C36.7398 23.4664 37.8198 24.5398 38.6198 25.8998C39.4332 27.2998 39.8398 28.8131 39.8398 30.4398C39.8398 31.4798 39.6665 32.4931 39.3198 33.4798C38.9865 34.4131 38.5065 35.2731 37.8798 36.0598ZM35.8598 35.3198C36.4865 34.6798 36.9732 33.9464 37.3198 33.1198C37.6665 32.2664 37.8398 31.3731 37.8398 30.4398C37.8398 29.1731 37.5198 27.9931 36.8798 26.8998C36.2665 25.8464 35.4332 25.0131 34.3798 24.3998C33.2865 23.7598 32.1065 23.4398 30.8398 23.4398C29.5732 23.4398 28.3932 23.7598 27.2998 24.3998C26.2465 25.0131 25.4132 25.8464 24.7998 26.8998C24.1598 27.9931 23.8398 29.1731 23.8398 30.4398C23.8398 31.7064 24.1598 32.8864 24.7998 33.9798C25.4132 35.0331 26.2465 35.8664 27.2998 36.4798C28.3932 37.1198 29.5732 37.4398 30.8398 37.4398C31.7732 37.4398 32.6665 37.2664 33.5198 36.9198C34.3465 36.5731 35.0798 36.0864 35.7198 35.4598L35.8598 35.3198Z" fill="white"/>
</svg>
