<svg width="64" height="64" viewBox="0 0 64 64" fill="none" xmlns="http://www.w3.org/2000/svg">
<rect width="64" height="64" rx="20" fill="url(#paint0_linear_193_131)"/>
<path d="M32 22.1001C33.2667 22.1001 34.4467 22.4201 35.54 23.0601C36.5933 23.6734 37.4267 24.5068 38.04 25.5601C38.68 26.6534 39 27.8334 39 29.1001V29.4401C39.7733 29.7068 40.4633 30.1201 41.07 30.6801C41.6767 31.2401 42.15 31.9034 42.49 32.6701C42.83 33.4368 43 34.2468 43 35.1001C43 36.1801 42.7267 37.1868 42.18 38.1201C41.6467 39.0268 40.9267 39.7468 40.02 40.2801C39.0867 40.8268 38.08 41.1001 37 41.1001H27C25.92 41.1001 24.9133 40.8268 23.98 40.2801C23.0733 39.7468 22.3533 39.0268 21.82 38.1201C21.2733 37.1868 21 36.1801 21 35.1001C21 34.2468 21.17 33.4368 21.51 32.6701C21.85 31.9034 22.3233 31.2401 22.93 30.6801C23.5367 30.1201 24.2267 29.7068 25 29.4401V29.1001C25 27.8334 25.32 26.6534 25.96 25.5601C26.5733 24.5068 27.4067 23.6734 28.46 23.0601C29.5533 22.4201 30.7333 22.1001 32 22.1001ZM32 24.1001C31.0933 24.1001 30.2567 24.3234 29.49 24.7701C28.7233 25.2168 28.1167 25.8234 27.67 26.5901C27.2233 27.3568 27 28.1934 27 29.1001L27.08 30.8401L25.68 31.3201C24.88 31.6001 24.2333 32.0868 23.74 32.7801C23.2467 33.4734 23 34.2468 23 35.1001C23 35.8201 23.18 36.4868 23.54 37.1001C23.9 37.7134 24.3867 38.2001 25 38.5601C25.6133 38.9201 26.28 39.1001 27 39.1001H37C37.72 39.1001 38.3867 38.9201 39 38.5601C39.6133 38.2001 40.1 37.7134 40.46 37.1001C40.82 36.4868 41 35.8201 41 35.1001C41 34.3801 40.82 33.7134 40.46 33.1001C40.1 32.4868 39.6133 32.0001 39 31.6401C38.3867 31.2801 37.72 31.1001 37 31.1001C36.1333 31.1001 35.35 31.3534 34.65 31.8601C33.95 32.3668 33.4667 33.0268 33.2 33.8401L31.3 33.2001C31.5667 32.4134 31.98 31.7068 32.54 31.0801C33.1 30.4534 33.7667 29.9668 34.54 29.6201C35.3133 29.2734 36.1333 29.1001 37 29.1001C37 28.1934 36.7767 27.3568 36.33 26.5901C35.8833 25.8234 35.2767 25.2168 34.51 24.7701C33.7433 24.3234 32.9067 24.1001 32 24.1001Z" fill="white"/>
<defs>
<linearGradient id="paint0_linear_193_131" x1="0" y1="0" x2="64" y2="64" gradientUnits="userSpaceOnUse">
<stop stop-color="#F97316"/>
<stop offset="1" stop-color="#DC2626"/>
</linearGradient>
</defs>
</svg>
