<svg width="64" height="64" viewBox="0 0 64 64" fill="none" xmlns="http://www.w3.org/2000/svg">
<rect width="64" height="64" rx="20" fill="#FF6B35" fill-opacity="0.1"/>
<path d="M25.96 34.3398L21.5 37.8398V22.3398C21.5 22.0732 21.5967 21.8432 21.79 21.6498C21.9833 21.4565 22.22 21.3532 22.5 21.3398H37.5C37.78 21.3398 38.0167 21.4398 38.21 21.6398C38.4033 21.8398 38.5 22.0732 38.5 22.3398V34.3398H25.96ZM25.26 32.3398H36.5V23.3398H23.5V33.7398L25.26 32.3398ZM28.5 36.3398H38.74L40.5 37.7398V27.3398H41.5C41.78 27.3532 42.0167 27.4565 42.21 27.6498C42.4033 27.8432 42.5 28.0732 42.5 28.3398V41.8398L38.04 38.3398H29.5C29.22 38.3398 28.9833 38.2432 28.79 38.0498C28.5967 37.8565 28.5 37.6198 28.5 37.3398V36.3398Z" fill="#FF6B35"/>
</svg>
