<svg width="64" height="64" viewBox="0 0 64 64" fill="none" xmlns="http://www.w3.org/2000/svg">
<rect width="64" height="64" rx="20" fill="#FF6B35" fill-opacity="0.1"/>
<path d="M33 39.5996V41.5996H31V39.5996H23C22.72 39.5996 22.4833 39.5029 22.29 39.3096C22.0967 39.1163 22 38.8796 22 38.5996V22.5996C22 22.3196 22.0967 22.0829 22.29 21.8896C22.4833 21.6963 22.72 21.5996 23 21.5996H29C29.5867 21.5996 30.14 21.7196 30.66 21.9596C31.18 22.1996 31.6267 22.5329 32 22.9596C32.3733 22.5329 32.82 22.1996 33.34 21.9596C33.86 21.7196 34.4133 21.5996 35 21.5996H41C41.28 21.5996 41.5167 21.6963 41.71 21.8896C41.9033 22.0829 42 22.3196 42 22.5996V38.5996C42 38.8796 41.9033 39.1163 41.71 39.3096C41.5167 39.5029 41.28 39.5996 41 39.5996H33ZM40 37.5996V23.5996H35C34.64 23.5996 34.3067 23.6896 34 23.8696C33.6933 24.0496 33.45 24.2929 33.27 24.5996C33.09 24.9063 33 25.2396 33 25.5996V37.5996H40ZM31 37.5996V25.5996C31 25.2396 30.91 24.9063 30.73 24.5996C30.55 24.2929 30.3067 24.0496 30 23.8696C29.6933 23.6896 29.36 23.5996 29 23.5996H24V37.5996H31Z" fill="#FF6B35"/>
</svg>
