<svg width="64" height="64" viewBox="0 0 64 64" fill="none" xmlns="http://www.w3.org/2000/svg">
<rect width="64" height="64" rx="20" fill="#FF6B35" fill-opacity="0.1"/>
<path d="M32 35.5996H28V27.5996H32C32.72 27.5996 33.3867 27.7796 34 28.1396C34.6133 28.4996 35.1 28.9863 35.46 29.5996C35.82 30.2129 36 30.8796 36 31.5996C36 32.3196 35.82 32.9863 35.46 33.5996C35.1 34.2129 34.6133 34.6996 34 35.0596C33.3867 35.4196 32.72 35.5996 32 35.5996ZM30 29.5996V33.5996H32C32.36 33.5996 32.6933 33.5096 33 33.3296C33.3067 33.1496 33.55 32.9063 33.73 32.5996C33.91 32.2929 34 31.9596 34 31.5996C34 31.2396 33.91 30.9063 33.73 30.5996C33.55 30.2929 33.3067 30.0496 33 29.8696C32.6933 29.6896 32.36 29.5996 32 29.5996H30ZM35 23.5996H25V39.5996H39V27.5996H35V23.5996ZM23 22.5996C23 22.3196 23.0967 22.0829 23.29 21.8896C23.4833 21.6963 23.72 21.5996 24 21.5996H36L41 26.5996V40.5996C41 40.8663 40.9033 41.0996 40.71 41.2996C40.5167 41.4996 40.28 41.5996 40 41.5996H24C23.72 41.5996 23.4833 41.5029 23.29 41.3096C23.0967 41.1163 23 40.8796 23 40.5996V22.5996Z" fill="#FF6B35"/>
</svg>
