<svg width="64" height="64" viewBox="0 0 64 64" fill="none" xmlns="http://www.w3.org/2000/svg">
<rect width="64" height="64" rx="20" fill="#FF6B35" fill-opacity="0.1"/>
<path d="M40 41.5996H24C23.72 41.5996 23.4833 41.5029 23.29 41.3096C23.0967 41.1163 23 40.8796 23 40.5996V22.5996C23 22.3196 23.0967 22.0829 23.29 21.8896C23.4833 21.6963 23.72 21.5996 24 21.5996H40C40.28 21.5996 40.5167 21.6963 40.71 21.8896C40.9033 22.0829 41 22.3196 41 22.5996V40.5996C41 40.8796 40.9033 41.1163 40.71 41.3096C40.5167 41.5029 40.28 41.5996 40 41.5996ZM39 39.5996V23.5996H25V39.5996H39ZM27 25.5996H31V29.5996H27V25.5996ZM27 31.5996H37V33.5996H27V31.5996ZM27 35.5996H37V37.5996H27V35.5996ZM33 26.5996H37V28.5996H33V26.5996Z" fill="#FF6B35"/>
</svg>
