<svg width="64" height="65" viewBox="0 0 64 65" fill="none" xmlns="http://www.w3.org/2000/svg">
<path d="M0 32.8651C0 15.1948 14.3247 0.870117 31.995 0.870117V0.870117C49.6653 0.870117 63.99 15.1948 63.99 32.8651V32.8651C63.99 50.5355 49.6653 64.8601 31.995 64.8601V64.8601C14.3247 64.8601 0 50.5355 0 32.8651V32.8651Z" fill="#FF6B35"/>
<path d="M11.8537 39.2705V37.2762L16.5135 32.9616C16.9098 32.578 17.2422 32.2329 17.5107 31.926C17.7834 31.6192 17.9901 31.3188 18.1307 31.0248C18.2713 30.7265 18.3416 30.4047 18.3416 30.0596C18.3416 29.676 18.2543 29.3458 18.0795 29.0688C17.9048 28.7876 17.6662 28.5724 17.3636 28.4232C17.0611 28.2698 16.718 28.1931 16.3345 28.1931C15.934 28.1931 15.5845 28.2741 15.2862 28.436C14.9879 28.5979 14.7578 28.8302 14.5959 29.1327C14.434 29.4353 14.353 29.7954 14.353 30.213H11.7259C11.7259 29.3564 11.9197 28.6128 12.3075 27.9822C12.6953 27.3515 13.2386 26.8635 13.9375 26.5184C14.6364 26.1732 15.4418 26.0006 16.3537 26.0006C17.2912 26.0006 18.1072 26.1668 18.8019 26.4992C19.5007 26.8273 20.044 27.2833 20.4318 27.8671C20.8196 28.4509 21.0135 29.1199 21.0135 29.8742C21.0135 30.3685 20.9155 30.8564 20.7195 31.338C20.5277 31.8195 20.1847 32.3543 19.6903 32.9424C19.196 33.5262 18.4993 34.2272 17.6001 35.0454L15.6889 36.9182V37.0077H21.1861V39.2705H11.8537ZM28.3244 39.5581C27.225 39.5539 26.2789 39.2833 25.4863 38.7464C24.698 38.2094 24.0907 37.4317 23.6646 36.4133C23.2427 35.3948 23.0339 34.1697 23.0382 32.7378C23.0382 31.3103 23.2491 30.0937 23.671 29.088C24.0971 28.0823 24.7044 27.3174 25.4927 26.7932C26.2853 26.2648 27.2292 26.0006 28.3244 26.0006C29.4196 26.0006 30.3613 26.2648 31.1497 26.7932C31.9423 27.3216 32.5517 28.0887 32.9778 29.0944C33.4039 30.0958 33.6149 31.3103 33.6106 32.7378C33.6106 34.1739 33.3976 35.4012 32.9714 36.4197C32.5495 37.4381 31.9444 38.2158 31.1561 38.7528C30.3677 39.2897 29.4238 39.5581 28.3244 39.5581ZM28.3244 37.2634C29.0744 37.2634 29.6731 36.8863 30.1206 36.132C30.568 35.3778 30.7896 34.2464 30.7853 32.7378C30.7853 31.7449 30.6831 30.9182 30.4785 30.2577C30.2782 29.5972 29.9927 29.1008 29.622 28.7684C29.2555 28.436 28.823 28.2698 28.3244 28.2698C27.5787 28.2698 26.9821 28.6427 26.5346 29.3884C26.0872 30.1341 25.8613 31.2506 25.8571 32.7378C25.8571 33.7435 25.9572 34.583 26.1575 35.2563C26.362 35.9253 26.6497 36.4282 27.0204 36.7648C27.3912 37.0972 27.8258 37.2634 28.3244 37.2634ZM41.2795 26.1796V39.2705H38.5117V28.8067H38.435L35.4371 30.686V28.2314L38.6779 26.1796H41.2795ZM49.1721 39.4495C48.2686 39.4495 47.4633 39.2833 46.7559 38.9509C46.0527 38.6185 45.4945 38.1604 45.0811 37.5766C44.6678 36.9928 44.4526 36.3238 44.4356 35.5695H47.1202C47.15 36.0766 47.3631 36.4878 47.7594 36.8032C48.1557 37.1185 48.6266 37.2762 49.1721 37.2762C49.6067 37.2762 49.9902 37.1803 50.3226 36.9885C50.6593 36.7925 50.9213 36.5219 51.1088 36.1768C51.3006 35.8273 51.3965 35.4268 51.3965 34.9751C51.3965 34.5148 51.2985 34.11 51.1025 33.7606C50.9107 33.4111 50.6444 33.1384 50.3034 32.9424C49.9625 32.7464 49.5726 32.6462 49.1337 32.642C48.7502 32.642 48.3773 32.7208 48.0151 32.8785C47.6571 33.0361 47.378 33.2513 47.1777 33.5241L44.7168 33.083L45.3368 26.1796H53.3397V28.4424H47.6188L47.28 31.7215H47.3567C47.5868 31.3976 47.9341 31.1292 48.3986 30.9161C48.8631 30.703 49.383 30.5965 49.9583 30.5965C50.7466 30.5965 51.4498 30.7819 52.0677 31.1526C52.6856 31.5233 53.1735 32.0326 53.5314 32.6803C53.8894 33.3238 54.0662 34.0653 54.062 34.9047C54.0662 35.7868 53.8617 36.5709 53.4483 37.257C53.0392 37.9388 52.4661 38.4758 51.7289 38.8678C50.9959 39.2556 50.1436 39.4495 49.1721 39.4495Z" fill="white"/>
</svg>
