<svg width="64" height="64" viewBox="0 0 64 64" fill="none" xmlns="http://www.w3.org/2000/svg">
<path d="M0 31.995C0 14.3247 14.3247 0 31.995 0V0C49.6653 0 63.99 14.3247 63.99 31.995V31.995C63.99 49.6653 49.6653 63.99 31.995 63.99V63.99C14.3247 63.99 0 49.6653 0 31.995V31.995Z" fill="#FF6B35"/>
<path d="M9.18538 38.4004V36.4061L13.8452 32.0914C14.2415 31.7079 14.5739 31.3627 14.8423 31.0559C15.1151 30.7491 15.3217 30.4487 15.4624 30.1547C15.603 29.8564 15.6733 29.5346 15.6733 29.1895C15.6733 28.8059 15.5859 28.4757 15.4112 28.1987C15.2365 27.9174 14.9979 27.7022 14.6953 27.5531C14.3928 27.3997 14.0497 27.323 13.6662 27.323C13.2656 27.323 12.9162 27.4039 12.6179 27.5659C12.3196 27.7278 12.0895 27.96 11.9276 28.2626C11.7656 28.5652 11.6847 28.9252 11.6847 29.3429H9.05754C9.05754 28.4863 9.25143 27.7427 9.63921 27.112C10.027 26.4814 10.5703 25.9934 11.2692 25.6483C11.9681 25.3031 12.7734 25.1305 13.6854 25.1305C14.6229 25.1305 15.4389 25.2967 16.1335 25.6291C16.8324 25.9572 17.3757 26.4132 17.7635 26.997C18.1513 27.5808 18.3452 28.2498 18.3452 29.0041C18.3452 29.4984 18.2472 29.9863 18.0511 30.4679C17.8594 30.9494 17.5163 31.4842 17.022 32.0723C16.5277 32.6561 15.831 33.3571 14.9318 34.1752L13.0206 36.0481V36.1376H18.5178V38.4004H9.18538ZM25.6561 38.688C24.5567 38.6838 23.6106 38.4132 22.818 37.8762C22.0297 37.3393 21.4224 36.5616 20.9963 35.5431C20.5744 34.5247 20.3656 33.2995 20.3699 31.8677C20.3699 30.4402 20.5808 29.2235 21.0027 28.2179C21.4288 27.2122 22.0361 26.4473 22.8244 25.9231C23.617 25.3947 24.5609 25.1305 25.6561 25.1305C26.7513 25.1305 27.693 25.3947 28.4814 25.9231C29.274 26.4515 29.8834 27.2186 30.3095 28.2243C30.7356 29.2257 30.9466 30.4402 30.9423 31.8677C30.9423 33.3038 30.7292 34.5311 30.3031 35.5495C29.8812 36.568 29.2761 37.3457 28.4878 37.8826C27.6994 38.4196 26.7555 38.688 25.6561 38.688ZM25.6561 36.3933C26.4061 36.3933 27.0048 36.0162 27.4522 35.2619C27.8997 34.5076 28.1213 33.3762 28.117 31.8677C28.117 30.8748 28.0147 30.0481 27.8102 29.3876C27.6099 28.7271 27.3244 28.2306 26.9537 27.8983C26.5872 27.5659 26.1547 27.3997 25.6561 27.3997C24.9103 27.3997 24.3138 27.7725 23.8663 28.5183C23.4189 29.264 23.193 30.3805 23.1888 31.8677C23.1888 32.8734 23.2889 33.7129 23.4892 34.3862C23.6937 35.0552 23.9814 35.5581 24.3521 35.8947C24.7228 36.2271 25.1575 36.3933 25.6561 36.3933ZM38.0487 38.688C36.9492 38.6838 36.0032 38.4132 35.2106 37.8762C34.4222 37.3393 33.815 36.5616 33.3889 35.5431C32.967 34.5247 32.7582 33.2995 32.7624 31.8677C32.7624 30.4402 32.9734 29.2235 33.3953 28.2179C33.8214 27.2122 34.4286 26.4473 35.217 25.9231C36.0096 25.3947 36.9535 25.1305 38.0487 25.1305C39.1438 25.1305 40.0856 25.3947 40.8739 25.9231C41.6666 26.4515 42.2759 27.2186 42.7021 28.2243C43.1282 29.2257 43.3391 30.4402 43.3349 31.8677C43.3349 33.3038 43.1218 34.5311 42.6957 35.5495C42.2738 36.568 41.6687 37.3457 40.8803 37.8826C40.092 38.4196 39.1481 38.688 38.0487 38.688ZM38.0487 36.3933C38.7987 36.3933 39.3974 36.0162 39.8448 35.2619C40.2923 34.5076 40.5139 33.3762 40.5096 31.8677C40.5096 30.8748 40.4073 30.0481 40.2028 29.3876C40.0025 28.7271 39.717 28.2306 39.3462 27.8983C38.9798 27.5659 38.5472 27.3997 38.0487 27.3997C37.3029 27.3997 36.7063 27.7725 36.2589 28.5183C35.8114 29.264 35.5856 30.3805 35.5813 31.8677C35.5813 32.8734 35.6815 33.7129 35.8818 34.3862C36.0863 35.0552 36.3739 35.5581 36.7447 35.8947C37.1154 36.2271 37.5501 36.3933 38.0487 36.3933ZM50.4412 38.688C49.3418 38.6838 48.3958 38.4132 47.6032 37.8762C46.8148 37.3393 46.2076 36.5616 45.7814 35.5431C45.3596 34.5247 45.1508 33.2995 45.155 31.8677C45.155 30.4402 45.366 29.2235 45.7878 28.2179C46.214 27.2122 46.8212 26.4473 47.6096 25.9231C48.4022 25.3947 49.3461 25.1305 50.4412 25.1305C51.5364 25.1305 52.4782 25.3947 53.2665 25.9231C54.0591 26.4515 54.6685 27.2186 55.0946 28.2243C55.5208 29.2257 55.7317 30.4402 55.7275 31.8677C55.7275 33.3038 55.5144 34.5311 55.0883 35.5495C54.6664 36.568 54.0613 37.3457 53.2729 37.8826C52.4846 38.4196 51.5407 38.688 50.4412 38.688ZM50.4412 36.3933C51.1912 36.3933 51.79 36.0162 52.2374 35.2619C52.6848 34.5076 52.9064 33.3762 52.9022 31.8677C52.9022 30.8748 52.7999 30.0481 52.5954 29.3876C52.3951 28.7271 52.1096 28.2306 51.7388 27.8983C51.3723 27.5659 50.9398 27.3997 50.4412 27.3997C49.6955 27.3997 49.0989 27.7725 48.6515 28.5183C48.204 29.264 47.9782 30.3805 47.9739 31.8677C47.9739 32.8734 48.074 33.7129 48.2743 34.3862C48.4789 35.0552 48.7665 35.5581 49.1373 35.8947C49.508 36.2271 49.9427 36.3933 50.4412 36.3933Z" fill="white"/>
</svg>
