<svg width="81" height="80" viewBox="0 0 81 80" fill="none" xmlns="http://www.w3.org/2000/svg">
<path d="M0.660156 20C0.660156 8.9543 9.61446 0 20.6602 0H60.6502C71.6959 0 80.6502 8.95431 80.6502 20V59.99C80.6502 71.0357 71.6958 79.99 60.6502 79.99H20.6602C9.61446 79.99 0.660156 71.0357 0.660156 59.99V20Z" fill="url(#paint0_linear_193_208)"/>
<path d="M40.6505 38.0658C41.8596 38.0658 42.9754 38.3636 43.9978 38.9593C45.0202 39.5549 45.8293 40.364 46.4249 41.3864C47.0206 42.4088 47.3185 43.5246 47.3185 44.7338V52.7354H44.6513V44.7338C44.6513 44.0403 44.4823 43.3957 44.1445 42.8C43.8066 42.2044 43.3532 41.7243 42.7842 41.3597C42.2152 40.9952 41.584 40.7863 40.8905 40.733H40.6505C39.957 40.733 39.3124 40.9019 38.7167 41.2397C38.1211 41.5776 37.641 42.031 37.2764 42.6C36.9119 43.169 36.703 43.8002 36.6497 44.4937V52.7354H33.9825V44.7338C33.9825 43.5246 34.2803 42.4088 34.876 41.3864C35.4716 40.364 36.2807 39.5549 37.3031 38.9593C38.3255 38.3636 39.4413 38.0658 40.6505 38.0658ZM31.9821 42.0666C32.3555 42.0666 32.72 42.111 33.0756 42.1999C32.8444 42.8756 32.7022 43.5691 32.6489 44.2803V44.8404C32.4888 44.7871 32.3288 44.7515 32.1688 44.7338H31.9821C31.4664 44.7338 31.0174 44.9071 30.6351 45.2539C30.2528 45.6006 30.035 46.0318 29.9817 46.5474V46.7342V52.7354H27.3145V46.7342C27.3145 45.8806 27.5234 45.0983 27.9412 44.387C28.3591 43.6758 28.9237 43.1112 29.6349 42.6933C30.3462 42.2755 31.1285 42.0666 31.9821 42.0666ZM49.3189 42.0666C50.1724 42.0666 50.9547 42.2755 51.666 42.6933C52.3772 43.1112 52.9418 43.6758 53.3597 44.387C53.7775 45.0983 53.9865 45.8806 53.9865 46.7342V52.7354H51.3193V46.7342C51.3193 46.2185 51.1459 45.7695 50.7991 45.3872C50.4524 45.0049 50.0212 44.7871 49.5056 44.7338H49.3189C49.0877 44.7338 48.8654 44.7693 48.6521 44.8404V44.7338C48.6521 43.8625 48.5187 43.0179 48.252 42.1999C48.5898 42.111 48.9454 42.0666 49.3189 42.0666ZM31.9821 34.065C32.5866 34.065 33.1423 34.2161 33.6491 34.5184C34.1558 34.8207 34.5603 35.2252 34.8626 35.732C35.1649 36.2387 35.3161 36.7944 35.3161 37.399C35.3161 38.0035 35.1649 38.5592 34.8626 39.066C34.5603 39.5727 34.1558 39.9772 33.6491 40.2795C33.1423 40.5818 32.5866 40.733 31.9821 40.733C31.3775 40.733 30.8218 40.5818 30.3151 40.2795C29.8083 39.9772 29.4038 39.5727 29.1015 39.066C28.7992 38.5592 28.6481 38.0035 28.6481 37.399C28.6481 36.7944 28.7992 36.2387 29.1015 35.732C29.4038 35.2252 29.8083 34.8207 30.3151 34.5184C30.8218 34.2161 31.3775 34.065 31.9821 34.065ZM49.3189 34.065C49.9234 34.065 50.4791 34.2161 50.9859 34.5184C51.4926 34.8207 51.8971 35.2252 52.1994 35.732C52.5017 36.2387 52.6529 36.7944 52.6529 37.399C52.6529 38.0035 52.5017 38.5592 52.1994 39.066C51.8971 39.5727 51.4926 39.9772 50.9859 40.2795C50.4791 40.5818 49.9234 40.733 49.3189 40.733C48.7143 40.733 48.1586 40.5818 47.6519 40.2795C47.1451 39.9772 46.7406 39.5727 46.4383 39.066C46.136 38.5592 45.9849 38.0035 45.9849 37.399C45.9849 36.7944 46.136 36.2387 46.4383 35.732C46.7406 35.2252 47.1451 34.8207 47.6519 34.5184C48.1586 34.2161 48.7143 34.065 49.3189 34.065ZM31.9821 36.7322C31.8042 36.7322 31.6487 36.7988 31.5153 36.9322C31.3819 37.0656 31.3153 37.2211 31.3153 37.399C31.3153 37.5768 31.3819 37.7324 31.5153 37.8657C31.6487 37.9991 31.8042 38.0658 31.9821 38.0658C32.1599 38.0658 32.3155 37.9991 32.4488 37.8657C32.5822 37.7324 32.6489 37.5768 32.6489 37.399C32.6489 37.2211 32.5822 37.0656 32.4488 36.9322C32.3155 36.7988 32.1599 36.7322 31.9821 36.7322ZM49.3189 36.7322C49.141 36.7322 48.9855 36.7988 48.8521 36.9322C48.7187 37.0656 48.6521 37.2211 48.6521 37.399C48.6521 37.5768 48.7187 37.7324 48.8521 37.8657C48.9855 37.9991 49.141 38.0658 49.3189 38.0658C49.4967 38.0658 49.6523 37.9991 49.7856 37.8657C49.919 37.7324 49.9857 37.5768 49.9857 37.399C49.9857 37.2211 49.919 37.0656 49.7856 36.9322C49.6523 36.7988 49.4967 36.7322 49.3189 36.7322ZM40.6505 26.0634C41.6106 26.0634 42.4997 26.3034 43.3177 26.7835C44.1356 27.2636 44.7846 27.9126 45.2647 28.7306C45.7448 29.5485 45.9849 30.4376 45.9849 31.3978C45.9849 32.3579 45.7448 33.247 45.2647 34.065C44.7846 34.8829 44.1356 35.5319 43.3177 36.012C42.4997 36.4921 41.6106 36.7322 40.6505 36.7322C39.6903 36.7322 38.8012 36.4921 37.9833 36.012C37.1653 35.5319 36.5163 34.8829 36.0362 34.065C35.5561 33.247 35.3161 32.3579 35.3161 31.3978C35.3161 30.4376 35.5561 29.5485 36.0362 28.7306C36.5163 27.9126 37.1653 27.2636 37.9833 26.7835C38.8012 26.3034 39.6903 26.0634 40.6505 26.0634ZM40.6505 28.7306C40.1704 28.7306 39.7258 28.8506 39.3169 29.0906C38.9079 29.3307 38.5834 29.6552 38.3433 30.0642C38.1033 30.4731 37.9833 30.9177 37.9833 31.3978C37.9833 31.8778 38.1033 32.3224 38.3433 32.7314C38.5834 33.1403 38.9079 33.4648 39.3169 33.7049C39.7258 33.9449 40.1704 34.065 40.6505 34.065C41.1305 34.065 41.5751 33.9449 41.9841 33.7049C42.393 33.4648 42.7175 33.1403 42.9576 32.7314C43.1976 32.3224 43.3177 31.8778 43.3177 31.3978C43.3177 30.9177 43.1976 30.4731 42.9576 30.0642C42.7175 29.6552 42.393 29.3307 41.9841 29.0906C41.5751 28.8506 41.1305 28.7306 40.6505 28.7306Z" fill="white"/>
<defs>
<linearGradient id="paint0_linear_193_208" x1="0.660156" y1="0" x2="80.6502" y2="79.99" gradientUnits="userSpaceOnUse">
<stop stop-color="#F97316"/>
<stop offset="1" stop-color="#DC2626"/>
</linearGradient>
</defs>
</svg>
