<svg width="81" height="80" viewBox="0 0 81 80" fill="none" xmlns="http://www.w3.org/2000/svg">
<path d="M0.979492 39.995C0.979492 17.9064 18.8859 0 40.9745 0V0C63.0631 0 80.9695 17.9064 80.9695 39.995V39.995C80.9695 62.0836 63.0631 79.99 40.9745 79.99V79.99C18.8859 79.99 0.979492 62.0836 0.979492 39.995V39.995Z" fill="#FF6B35"/>
<path d="M38.3024 26.1871C37.6979 25.9915 37.08 25.9471 36.4487 26.0537C35.8175 26.1604 35.244 26.396 34.7284 26.7606C34.2127 27.1251 33.8126 27.6007 33.5281 28.1875L32.4346 30.2946C32.3101 30.5435 32.1234 30.7302 31.8745 30.8547L29.7674 31.9483C29.1806 32.2328 28.705 32.6328 28.3404 33.1485C27.9759 33.6642 27.7403 34.2376 27.6336 34.8688C27.5269 35.5001 27.5714 36.118 27.767 36.7225L28.4871 38.9897C28.576 39.2564 28.576 39.5231 28.4871 39.7898L27.767 42.0569C27.5714 42.6615 27.5269 43.2794 27.6336 43.9106C27.7403 44.5419 27.9759 45.1153 28.3404 45.631C28.705 46.1467 29.1806 46.5467 29.7674 46.8312L31.8745 47.9248C32.1234 48.0493 32.3101 48.236 32.4346 48.4849L33.5281 50.592C33.8126 51.1788 34.2127 51.6544 34.7284 52.0189C35.244 52.3835 35.8175 52.6191 36.4487 52.7257C37.08 52.8324 37.6979 52.788 38.3024 52.5924L40.5696 51.8722C40.8363 51.7833 41.103 51.7833 41.3697 51.8722L43.6368 52.5924C44.2414 52.788 44.8593 52.8324 45.4905 52.7257C46.1218 52.6191 46.6952 52.3835 47.2109 52.0189C47.7265 51.6544 48.1266 51.1788 48.4111 50.592L49.5047 48.4849C49.6291 48.236 49.8158 48.0493 50.0648 47.9248L52.1719 46.8312C52.7587 46.5467 53.2343 46.1467 53.5988 45.631C53.9633 45.1153 54.1989 44.5419 54.3056 43.9106C54.4123 43.2794 54.3679 42.6615 54.1723 42.0569L53.4521 39.7898C53.3632 39.5231 53.3632 39.2564 53.4521 38.9897L54.1723 36.7225C54.3679 36.118 54.4123 35.5001 54.3056 34.8688C54.1989 34.2376 53.9633 33.6642 53.5988 33.1485C53.2343 32.6328 52.7587 32.2328 52.1719 31.9483L50.0648 30.8547C49.8158 30.7302 49.6291 30.5435 49.5047 30.2946L48.4111 28.1875C48.1266 27.6007 47.7265 27.1251 47.2109 26.7606C46.6952 26.396 46.1218 26.1604 45.4905 26.0537C44.8593 25.9471 44.2414 25.9915 43.6368 26.1871L41.3697 26.9072C41.103 26.9962 40.8363 26.9962 40.5696 26.9072L38.3024 26.1871ZM35.902 29.3877C36.0442 29.1032 36.2665 28.8988 36.5688 28.7743C36.871 28.6498 37.1822 28.632 37.5023 28.7209L39.7427 29.4678C40.5607 29.7345 41.3786 29.7345 42.1965 29.4678L44.437 28.7209C44.7571 28.632 45.0682 28.6498 45.3705 28.7743C45.6728 28.8988 45.8951 29.1032 46.0373 29.3877L47.1309 31.4948C47.5221 32.2594 48.0999 32.8373 48.8645 33.2285L50.9716 34.3221C51.2561 34.4643 51.4606 34.6866 51.5851 34.9889C51.7096 35.2911 51.7273 35.6023 51.6384 35.9224L50.8916 38.1628C50.6249 38.9808 50.6249 39.7987 50.8916 40.6167L51.6384 42.8571C51.7273 43.1772 51.7096 43.4883 51.5851 43.7906C51.4606 44.0929 51.2561 44.3152 50.9716 44.4574L48.8645 45.551C48.0999 45.9422 47.5221 46.5201 47.1309 47.2847L46.0373 49.3917C45.8951 49.6762 45.6728 49.8807 45.3705 50.0052C45.0682 50.1297 44.7571 50.1475 44.437 50.0585L42.1965 49.3117C41.3786 49.045 40.5607 49.045 39.7427 49.3117L37.5023 50.0585C37.1822 50.1475 36.871 50.1297 36.5688 50.0052C36.2665 49.8807 36.0442 49.6762 35.902 49.3917L34.8084 47.2847C34.4172 46.5201 33.8393 45.9422 33.0747 45.551L30.9676 44.4574C30.6831 44.3152 30.4786 44.0929 30.3542 43.7906C30.2297 43.4883 30.2119 43.1772 30.3008 42.8571L31.0476 40.6167C31.3144 39.7987 31.3144 38.9808 31.0476 38.1628L30.3008 35.9224C30.2119 35.6023 30.2297 35.2911 30.3542 34.9889C30.4786 34.6866 30.6831 34.4643 30.9676 34.3221L33.0747 33.2285C33.8393 32.8373 34.4172 32.2594 34.8084 31.4948L35.902 29.3877ZM33.9816 39.0697L39.636 44.7241L49.0779 35.2823L47.1842 33.4152L39.636 40.9634L35.8753 37.176L33.9816 39.0697Z" fill="white"/>
</svg>
