<svg width="64" height="64" viewBox="0 0 64 64" fill="none" xmlns="http://www.w3.org/2000/svg">
<rect width="64" height="64" rx="20" fill="url(#paint0_linear_193_343)"/>
<path d="M33 24.1596C34.48 24.3196 35.84 24.8196 37.08 25.6596C38.28 26.4863 39.2267 27.5463 39.92 28.8396C40.64 30.1596 41 31.5796 41 33.0996V42.0996H23V33.0996C23 31.5796 23.36 30.1596 24.08 28.8396C24.7733 27.5463 25.72 26.4863 26.92 25.6596C28.16 24.8196 29.52 24.3196 31 24.1596V21.0996H33V24.1596ZM39 40.0996V33.0996C39 31.8329 38.68 30.6529 38.04 29.5596C37.4267 28.5063 36.5933 27.6729 35.54 27.0596C34.4467 26.4196 33.2667 26.0996 32 26.0996C30.7333 26.0996 29.5533 26.4196 28.46 27.0596C27.4067 27.6729 26.5733 28.5063 25.96 29.5596C25.32 30.6529 25 31.8329 25 33.0996V40.0996H39ZM32 38.0996C31.0933 38.0996 30.2567 37.8763 29.49 37.4296C28.7233 36.9829 28.1167 36.3763 27.67 35.6096C27.2233 34.8429 27 34.0063 27 33.0996C27 32.1929 27.2233 31.3563 27.67 30.5896C28.1167 29.8229 28.7233 29.2163 29.49 28.7696C30.2567 28.3229 31.0933 28.0996 32 28.0996C32.9067 28.0996 33.7433 28.3229 34.51 28.7696C35.2767 29.2163 35.8833 29.8229 36.33 30.5896C36.7767 31.3563 37 32.1929 37 33.0996C37 34.0063 36.7767 34.8429 36.33 35.6096C35.8833 36.3763 35.2767 36.9829 34.51 37.4296C33.7433 37.8763 32.9067 38.0996 32 38.0996ZM32 36.0996C32.5467 36.0996 33.05 35.9663 33.51 35.6996C33.97 35.4329 34.3333 35.0696 34.6 34.6096C34.8667 34.1496 35 33.6463 35 33.0996C35 32.5529 34.8667 32.0496 34.6 31.5896C34.3333 31.1296 33.97 30.7663 33.51 30.4996C33.05 30.2329 32.5467 30.0996 32 30.0996C31.4533 30.0996 30.95 30.2329 30.49 30.4996C30.03 30.7663 29.6667 31.1296 29.4 31.5896C29.1333 32.0496 29 32.5529 29 33.0996C29 33.6463 29.1333 34.1496 29.4 34.6096C29.6667 35.0696 30.03 35.4329 30.49 35.6996C30.95 35.9663 31.4533 36.0996 32 36.0996ZM32 34.0996C31.72 34.0996 31.4833 34.0029 31.29 33.8096C31.0967 33.6163 31 33.3796 31 33.0996C31 32.8196 31.0967 32.5829 31.29 32.3896C31.4833 32.1963 31.72 32.0996 32 32.0996C32.28 32.0996 32.5167 32.1963 32.71 32.3896C32.9033 32.5829 33 32.8196 33 33.0996C33 33.3796 32.9033 33.6163 32.71 33.8096C32.5167 34.0029 32.28 34.0996 32 34.0996Z" fill="white"/>
<defs>
<linearGradient id="paint0_linear_193_343" x1="0" y1="0" x2="64" y2="64" gradientUnits="userSpaceOnUse">
<stop stop-color="#A855F7"/>
<stop offset="1" stop-color="#DB2777"/>
</linearGradient>
</defs>
</svg>
