<svg width="64" height="64" viewBox="0 0 64 64" fill="none" xmlns="http://www.w3.org/2000/svg">
<rect width="64" height="64" rx="20" fill="url(#paint0_linear_193_335)"/>
<path d="M24 35.0996H40V24.0996H24V35.0996ZM33 37.0996V39.0996H37V41.0996H27V39.0996H31V37.0996H23C22.72 37.0996 22.4833 37.0029 22.29 36.8096C22.0967 36.6163 22 36.3796 22 36.0996V23.0996C22 22.8329 22.0967 22.5996 22.29 22.3996C22.4833 22.1996 22.72 22.0996 23 22.0996H41C41.28 22.0996 41.5167 22.1963 41.71 22.3896C41.9033 22.5829 42 22.8196 42 23.0996V36.0996C42 36.3663 41.9033 36.5996 41.71 36.7996C41.5167 36.9996 41.28 37.0996 41 37.0996H33Z" fill="white"/>
<defs>
<linearGradient id="paint0_linear_193_335" x1="0" y1="0" x2="64" y2="64" gradientUnits="userSpaceOnUse">
<stop stop-color="#22C55E"/>
<stop offset="1" stop-color="#0D9488"/>
</linearGradient>
</defs>
</svg>
