<svg width="64" height="64" viewBox="0 0 64 64" fill="none" xmlns="http://www.w3.org/2000/svg">
<rect width="64" height="64" rx="20" fill="url(#paint0_linear_193_338)"/>
<path d="M32 22.0996C33.2667 22.0996 34.4467 22.4196 35.54 23.0596C36.5933 23.6729 37.4267 24.5063 38.04 25.5596C38.68 26.6529 39 27.8329 39 29.0996V29.4396C39.7733 29.7063 40.4633 30.1196 41.07 30.6796C41.6767 31.2396 42.15 31.9029 42.49 32.6696C42.83 33.4363 43 34.2463 43 35.0996C43 36.1796 42.7267 37.1863 42.18 38.1196C41.6467 39.0263 40.9267 39.7463 40.02 40.2796C39.0867 40.8263 38.08 41.0996 37 41.0996H27C25.92 41.0996 24.9133 40.8263 23.98 40.2796C23.0733 39.7463 22.3533 39.0263 21.82 38.1196C21.2733 37.1863 21 36.1796 21 35.0996C21 34.2463 21.17 33.4363 21.51 32.6696C21.85 31.9029 22.3233 31.2396 22.93 30.6796C23.5367 30.1196 24.2267 29.7063 25 29.4396V29.0996C25 27.8329 25.32 26.6529 25.96 25.5596C26.5733 24.5063 27.4067 23.6729 28.46 23.0596C29.5533 22.4196 30.7333 22.0996 32 22.0996ZM32 24.0996C31.0933 24.0996 30.2567 24.3229 29.49 24.7696C28.7233 25.2163 28.1167 25.8229 27.67 26.5896C27.2233 27.3563 27 28.1929 27 29.0996L27.08 30.8396L25.68 31.3196C24.88 31.5996 24.2333 32.0863 23.74 32.7796C23.2467 33.4729 23 34.2463 23 35.0996C23 35.8196 23.18 36.4863 23.54 37.0996C23.9 37.7129 24.3867 38.1996 25 38.5596C25.6133 38.9196 26.28 39.0996 27 39.0996H37C37.72 39.0996 38.3867 38.9196 39 38.5596C39.6133 38.1996 40.1 37.7129 40.46 37.0996C40.82 36.4863 41 35.8196 41 35.0996C41 34.3796 40.82 33.7129 40.46 33.0996C40.1 32.4863 39.6133 31.9996 39 31.6396C38.3867 31.2796 37.72 31.0996 37 31.0996C36.1333 31.0996 35.35 31.3529 34.65 31.8596C33.95 32.3663 33.4667 33.0263 33.2 33.8396L31.3 33.1996C31.5667 32.4129 31.98 31.7063 32.54 31.0796C33.1 30.4529 33.7667 29.9663 34.54 29.6196C35.3133 29.2729 36.1333 29.0996 37 29.0996C37 28.1929 36.7767 27.3563 36.33 26.5896C35.8833 25.8229 35.2767 25.2163 34.51 24.7696C33.7433 24.3229 32.9067 24.0996 32 24.0996Z" fill="white"/>
<defs>
<linearGradient id="paint0_linear_193_338" x1="0" y1="0" x2="64" y2="64" gradientUnits="userSpaceOnUse">
<stop stop-color="#F97316"/>
<stop offset="1" stop-color="#DC2626"/>
</linearGradient>
</defs>
</svg>
