<svg width="40" height="40" viewBox="0 0 40 40" fill="none" xmlns="http://www.w3.org/2000/svg">
<rect width="40" height="40" rx="16" fill="#1F2937"/>
<path d="M15.9568 14.4664C15.9471 14.7695 15.8591 15.0433 15.6928 15.2877C15.5266 15.5322 15.3066 15.7106 15.0328 15.823C14.7591 15.9355 14.4755 15.9624 14.1822 15.9037C13.8888 15.845 13.6371 15.7082 13.4268 15.493C13.2166 15.2779 13.0871 15.0237 13.0382 14.7304C12.9893 14.437 13.0235 14.1535 13.1408 13.8797C13.2582 13.6059 13.4439 13.3884 13.6982 13.227C13.9524 13.0657 14.2311 12.9899 14.5342 12.9997C14.9253 13.0095 15.2602 13.1562 15.5388 13.4397C15.8175 13.7233 15.9568 14.0655 15.9568 14.4664ZM16.0008 17.0184H13.0675V26.1997H16.0008V17.0184ZM20.6355 17.0184H17.7168V26.1997H20.6062V21.389C20.6062 20.8708 20.7235 20.4308 20.9582 20.069C21.1831 19.7366 21.4715 19.5068 21.8235 19.3797C22.1755 19.2526 22.5275 19.2428 22.8795 19.3504C23.2315 19.4579 23.5151 19.673 23.7302 19.9957C23.9746 20.3673 24.0968 20.8317 24.0968 21.389V26.1997H27.0008V20.3917C27.0008 19.5313 26.8151 18.8028 26.4435 18.2064C26.1208 17.6882 25.6711 17.297 25.0942 17.033C24.5662 16.8082 23.9942 16.7104 23.3782 16.7397C22.7817 16.769 22.2293 16.9182 21.7208 17.187C21.2124 17.4559 20.8408 17.8104 20.6062 18.2504L20.6355 17.0184Z" fill="white"/>
</svg>
