<svg width="48" height="49" viewBox="0 0 48 49" fill="none" xmlns="http://www.w3.org/2000/svg">
<rect y="0.950195" width="48" height="48" rx="24" fill="#FF6B35"/>
<path d="M29.5847 22.5504H30.3847C30.6087 22.5504 30.798 22.6277 30.9527 22.7824C31.1073 22.9371 31.1847 23.1264 31.1847 23.3504V31.3504C31.1847 31.5744 31.1073 31.7637 30.9527 31.9184C30.798 32.0731 30.6087 32.1504 30.3847 32.1504H17.5847C17.3607 32.1504 17.1713 32.0731 17.0167 31.9184C16.862 31.7637 16.7847 31.5744 16.7847 31.3504V23.3504C16.7847 23.1264 16.862 22.9371 17.0167 22.7824C17.1713 22.6277 17.3607 22.5504 17.5847 22.5504H18.3847V21.7504C18.3847 20.7371 18.6407 19.7931 19.1527 18.9184C19.6433 18.0757 20.31 17.4091 21.1527 16.9184C22.0273 16.4064 22.9713 16.1504 23.9847 16.1504C24.998 16.1504 25.942 16.4064 26.8167 16.9184C27.6593 17.4091 28.326 18.0757 28.8167 18.9184C29.3287 19.7931 29.5847 20.7371 29.5847 21.7504V22.5504ZM18.3847 24.1504V30.5504H29.5847V24.1504H18.3847ZM23.1847 25.7504H24.7847V28.9504H23.1847V25.7504ZM27.9847 22.5504V21.7504C27.9847 21.0251 27.806 20.3557 27.4487 19.7424C27.0913 19.1291 26.606 18.6437 25.9927 18.2864C25.3793 17.9291 24.71 17.7504 23.9847 17.7504C23.2593 17.7504 22.59 17.9291 21.9767 18.2864C21.3633 18.6437 20.878 19.1291 20.5207 19.7424C20.1633 20.3557 19.9847 21.0251 19.9847 21.7504V22.5504H27.9847Z" fill="white"/>
</svg>
