<svg width="48" height="49" viewBox="0 0 48 49" fill="none" xmlns="http://www.w3.org/2000/svg">
<rect y="0.980469" width="48" height="48" rx="24" fill="#FF6B35"/>
<path d="M28.4807 19.7383L29.6487 18.5863L30.7687 19.7063L29.6167 20.8743C30.118 21.5036 30.502 22.197 30.7687 22.9543C31.046 23.733 31.1847 24.5383 31.1847 25.3703C31.1847 26.6716 30.8593 27.8823 30.2087 29.0023C29.5687 30.0903 28.7047 30.9543 27.6167 31.5943C26.4967 32.245 25.286 32.5703 23.9847 32.5703C22.6833 32.5703 21.4727 32.245 20.3527 31.5943C19.2647 30.9543 18.4007 30.0903 17.7607 29.0023C17.11 27.8823 16.7847 26.6716 16.7847 25.3703C16.7847 24.069 17.11 22.8583 17.7607 21.7383C18.4007 20.6503 19.2647 19.7863 20.3527 19.1463C21.4727 18.4956 22.6833 18.1703 23.9847 18.1703C24.8167 18.1703 25.622 18.309 26.4007 18.5863C27.158 18.853 27.8513 19.237 28.4807 19.7383ZM23.9847 30.9703C24.998 30.9703 25.942 30.7143 26.8167 30.2023C27.6593 29.7116 28.326 29.045 28.8167 28.2023C29.3287 27.3276 29.5847 26.3836 29.5847 25.3703C29.5847 24.357 29.3287 23.413 28.8167 22.5383C28.326 21.6956 27.6593 21.029 26.8167 20.5383C25.942 20.0263 24.998 19.7703 23.9847 19.7703C22.9713 19.7703 22.0273 20.0263 21.1527 20.5383C20.31 21.029 19.6433 21.6956 19.1527 22.5383C18.6407 23.413 18.3847 24.357 18.3847 25.3703C18.3847 26.3836 18.6407 27.3276 19.1527 28.2023C19.6433 29.045 20.31 29.7116 21.1527 30.2023C22.0273 30.7143 22.9713 30.9703 23.9847 30.9703ZM23.1847 21.3703H24.7847V26.1703H23.1847V21.3703ZM20.7847 15.7703H27.1847V17.3703H20.7847V15.7703Z" fill="white"/>
</svg>
