<svg width="40" height="41" viewBox="0 0 40 41" fill="none" xmlns="http://www.w3.org/2000/svg">
<rect y="0.950195" width="39.99" height="39.99" rx="19.995" fill="#FF6B35"/>
<path d="M20.6452 13.2V15.189C21.4165 15.2843 22.1294 15.54 22.7837 15.956C23.438 16.372 23.9732 16.9072 24.3892 17.5615C24.8052 18.2158 25.0609 18.9287 25.1562 19.7H27.1452V21H25.1562C25.0609 21.7713 24.8052 22.4842 24.3892 23.1385C23.9732 23.7928 23.438 24.328 22.7837 24.744C22.1294 25.16 21.4165 25.4157 20.6452 25.511V27.5H19.3452V25.511C18.5739 25.4157 17.861 25.16 17.2067 24.744C16.5524 24.328 16.0172 23.7928 15.6012 23.1385C15.1852 22.4842 14.9295 21.7713 14.8342 21H12.8452V19.7H14.8342C14.9295 18.9287 15.1852 18.2158 15.6012 17.5615C16.0172 16.9072 16.5524 16.372 17.2067 15.956C17.861 15.54 18.5739 15.2843 19.3452 15.189V13.2H20.6452ZM19.9952 16.45C19.2932 16.45 18.6389 16.6277 18.0322 16.983C17.4429 17.3297 16.9749 17.7977 16.6282 18.387C16.2729 18.9937 16.0952 19.648 16.0952 20.35C16.0952 21.052 16.2729 21.7063 16.6282 22.313C16.9749 22.9023 17.4429 23.3703 18.0322 23.717C18.6389 24.0723 19.2932 24.25 19.9952 24.25C20.6972 24.25 21.3515 24.0723 21.9582 23.717C22.5475 23.3703 23.0155 22.9023 23.3622 22.313C23.7175 21.7063 23.8952 21.052 23.8952 20.35C23.8952 19.648 23.7175 18.9937 23.3622 18.387C23.0155 17.7977 22.5475 17.3297 21.9582 16.983C21.3515 16.6277 20.6972 16.45 19.9952 16.45ZM19.9952 19.05C20.2292 19.05 20.4459 19.1085 20.6452 19.2255C20.8445 19.3425 21.0027 19.5007 21.1197 19.7C21.2367 19.8993 21.2952 20.116 21.2952 20.35C21.2952 20.584 21.2367 20.8007 21.1197 21C21.0027 21.1993 20.8445 21.3575 20.6452 21.4745C20.4459 21.5915 20.2292 21.65 19.9952 21.65C19.7612 21.65 19.5445 21.5915 19.3452 21.4745C19.1459 21.3575 18.9877 21.1993 18.8707 21C18.7537 20.8007 18.6952 20.584 18.6952 20.35C18.6952 20.116 18.7537 19.8993 18.8707 19.7C18.9877 19.5007 19.1459 19.3425 19.3452 19.2255C19.5445 19.1085 19.7612 19.05 19.9952 19.05Z" fill="white"/>
</svg>
