<svg width="48" height="48" viewBox="0 0 48 48" fill="none" xmlns="http://www.w3.org/2000/svg">
<rect width="48" height="48" rx="24" fill="#FF6B35"/>
<path d="M23.9847 14.4L30.5607 15.856C30.742 15.8987 30.8913 15.9947 31.0087 16.144C31.126 16.2933 31.1847 16.4587 31.1847 16.64V24.624C31.1847 25.4347 30.9953 26.192 30.6167 26.896C30.238 27.6 29.7127 28.176 29.0407 28.624L23.9847 32L18.9287 28.624C18.2567 28.176 17.7313 27.6 17.3527 26.896C16.974 26.192 16.7847 25.4347 16.7847 24.624V16.64C16.7847 16.4587 16.8433 16.2933 16.9607 16.144C17.078 15.9947 17.2273 15.8987 17.4087 15.856L23.9847 14.4ZM23.9847 16.032L18.3847 17.28V24.624C18.3847 25.168 18.51 25.6747 18.7607 26.144C19.0113 26.6133 19.3607 26.9973 19.8087 27.296L23.9847 30.08L28.1607 27.296C28.6087 26.9973 28.958 26.6133 29.2087 26.144C29.4593 25.6747 29.5847 25.168 29.5847 24.624V17.28L23.9847 16.032ZM27.5527 20.176L28.6727 21.312L23.5847 26.4L20.1927 23.008L21.3287 21.872L23.5847 24.144L27.5527 20.176Z" fill="white"/>
</svg>
