<svg width="40" height="40" viewBox="0 0 40 40" fill="none" xmlns="http://www.w3.org/2000/svg">
<rect width="39.99" height="39.99" rx="19.995" fill="#FF6B35"/>
<path d="M19.0979 20.6972V21.9972C18.3959 21.9972 17.7416 22.1749 17.1349 22.5302C16.5456 22.8769 16.0776 23.3406 15.7309 23.9212C15.3756 24.5279 15.1979 25.1866 15.1979 25.8972H13.8979C13.8979 24.9526 14.1363 24.0772 14.6129 23.2712C15.0723 22.4826 15.6919 21.8586 16.4719 21.3992C17.2779 20.9312 18.1533 20.6972 19.0979 20.6972ZM19.0979 20.0472C18.3959 20.0472 17.7416 19.8696 17.1349 19.5142C16.5456 19.1676 16.0776 18.6996 15.7309 18.1102C15.3756 17.5036 15.1979 16.8471 15.1979 16.1407C15.1979 15.4344 15.3756 14.7779 15.7309 14.1712C16.0776 13.5906 16.5456 13.1269 17.1349 12.7802C17.7416 12.4249 18.3981 12.2472 19.1044 12.2472C19.8108 12.2472 20.4673 12.4249 21.0739 12.7802C21.6546 13.1269 22.1183 13.5906 22.4649 14.1712C22.8203 14.7779 22.9979 15.4344 22.9979 16.1407C22.9979 16.8471 22.8203 17.5036 22.4649 18.1102C22.1183 18.6996 21.6546 19.1676 21.0739 19.5142C20.4673 19.8696 19.8086 20.0472 19.0979 20.0472ZM19.0979 18.7472C19.5659 18.7472 19.9993 18.6302 20.3979 18.3962C20.7966 18.1622 21.1129 17.8459 21.3469 17.4472C21.5809 17.0486 21.6979 16.6152 21.6979 16.1472C21.6979 15.6792 21.5809 15.2459 21.3469 14.8472C21.1129 14.4486 20.7966 14.1322 20.3979 13.8982C19.9993 13.6642 19.5659 13.5472 19.0979 13.5472C18.6299 13.5472 18.1966 13.6642 17.7979 13.8982C17.3993 14.1322 17.0829 14.4486 16.8489 14.8472C16.6149 15.2459 16.4979 15.6792 16.4979 16.1472C16.4979 16.6152 16.6149 17.0486 16.8489 17.4472C17.0829 17.8459 17.3993 18.1622 17.7979 18.3962C18.1966 18.6302 18.6299 18.7472 19.0979 18.7472ZM22.9979 25.5722L21.0869 26.5732L21.4509 24.4412L19.9039 22.9462L22.0489 22.6342L22.9979 20.6972L23.9599 22.6342L26.0919 22.9462L24.5449 24.4412L24.9089 26.5732L22.9979 25.5722Z" fill="white"/>
</svg>
