<svg width="18" height="17" viewBox="0 0 18 17" fill="none" xmlns="http://www.w3.org/2000/svg">
<path d="M12.7971 11.269L15.5791 14.051L14.6561 14.974L11.8741 12.192C11.3628 12.5993 10.8038 12.9113 10.1971 13.128C9.55576 13.3533 8.89709 13.466 8.22109 13.466C7.16376 13.466 6.18009 13.2017 5.27009 12.673C4.38609 12.153 3.68843 11.451 3.17709 10.567C2.63976 9.657 2.37109 8.67333 2.37109 7.616C2.37109 6.55867 2.63976 5.575 3.17709 4.665C3.68843 3.781 4.38609 3.08333 5.27009 2.572C6.18009 2.03467 7.16376 1.766 8.22109 1.766C9.27843 1.766 10.2621 2.03467 11.1721 2.572C12.0561 3.08333 12.7581 3.781 13.2781 4.665C13.8068 5.575 14.0711 6.55867 14.0711 7.616C14.0711 8.292 13.9584 8.95067 13.7331 9.592C13.5164 10.1987 13.2044 10.7577 12.7971 11.269ZM11.4841 10.788C11.8914 10.372 12.2078 9.89533 12.4331 9.358C12.6584 8.80333 12.7711 8.22267 12.7711 7.616C12.7711 6.79267 12.5631 6.02567 12.1471 5.315C11.7484 4.63033 11.2068 4.08867 10.5221 3.69C9.81143 3.274 9.04443 3.066 8.22109 3.066C7.39776 3.066 6.63076 3.274 5.92009 3.69C5.23543 4.08867 4.69376 4.63033 4.29509 5.315C3.87909 6.02567 3.67109 6.79267 3.67109 7.616C3.67109 8.43933 3.87909 9.20633 4.29509 9.917C4.69376 10.6017 5.23543 11.1433 5.92009 11.542C6.63076 11.958 7.39776 12.166 8.22109 12.166C8.82776 12.166 9.40843 12.0533 9.96309 11.828C10.5004 11.6027 10.9771 11.2863 11.3931 10.879L11.4841 10.788Z" fill="#9CA3AF"/>
</svg>
