<svg width="64" height="65" viewBox="0 0 64 65" fill="none" xmlns="http://www.w3.org/2000/svg">
<rect y="0.759766" width="63.99" height="63.99" rx="31.995" fill="#E5E7EB"/>
<path d="M10.0924 39.1602V37.1658L14.7522 32.8512C15.1485 32.4677 15.4809 32.1225 15.7494 31.8157C16.0221 31.5089 16.2288 31.2085 16.3694 30.9144C16.51 30.6161 16.5803 30.2944 16.5803 29.9492C16.5803 29.5657 16.493 29.2354 16.3183 28.9585C16.1435 28.6772 15.9049 28.462 15.6024 28.3129C15.2998 28.1594 14.9568 28.0827 14.5732 28.0827C14.1727 28.0827 13.8232 28.1637 13.5249 28.3256C13.2266 28.4876 12.9965 28.7198 12.8346 29.0224C12.6727 29.3249 12.5917 29.685 12.5917 30.1026H9.96457C9.96457 29.2461 10.1585 28.5025 10.5462 27.8718C10.934 27.2411 11.4774 26.7532 12.1762 26.408C12.8751 26.0629 13.6805 25.8903 14.5924 25.8903C15.5299 25.8903 16.346 26.0565 17.0406 26.3888C17.7394 26.717 18.2828 27.1729 18.6705 27.7567C19.0583 28.3406 19.2522 29.0096 19.2522 29.7638C19.2522 30.2582 19.1542 30.7461 18.9582 31.2276C18.7664 31.7092 18.4234 32.244 17.9291 32.832C17.4347 33.4158 16.738 34.1168 15.8389 34.935L13.9276 36.8079V36.8974H19.4248V39.1602H10.0924ZM26.5631 39.4478C25.4637 39.4435 24.5177 39.1729 23.725 38.636C22.9367 38.0991 22.3294 37.3214 21.9033 36.3029C21.4814 35.2844 21.2726 34.0593 21.2769 32.6275C21.2769 31.1999 21.4878 29.9833 21.9097 28.9776C22.3358 27.9719 22.9431 27.207 23.7314 26.6829C24.5241 26.1545 25.4679 25.8903 26.5631 25.8903C27.6583 25.8903 28.6 26.1545 29.3884 26.6829C30.181 27.2113 30.7904 27.9783 31.2165 28.984C31.6427 29.9854 31.8536 31.1999 31.8493 32.6275C31.8493 34.0636 31.6363 35.2908 31.2101 36.3093C30.7883 37.3278 30.1831 38.1055 29.3948 38.6424C28.6064 39.1793 27.6625 39.4478 26.5631 39.4478ZM26.5631 37.1531C27.3131 37.1531 27.9118 36.7759 28.3593 36.0217C28.8067 35.2674 29.0283 34.136 29.0241 32.6275C29.0241 31.6346 28.9218 30.8079 28.7172 30.1474C28.517 29.4869 28.2314 28.9904 27.8607 28.658C27.4942 28.3256 27.0617 28.1594 26.5631 28.1594C25.8174 28.1594 25.2208 28.5323 24.7733 29.2781C24.3259 30.0238 24.1 31.1403 24.0958 32.6275C24.0958 33.6332 24.1959 34.4727 24.3962 35.146C24.6008 35.815 24.8884 36.3178 25.2591 36.6545C25.6299 36.9869 26.0645 37.1531 26.5631 37.1531ZM33.8229 39.1602V37.1658L38.4827 32.8512C38.879 32.4677 39.2114 32.1225 39.4798 31.8157C39.7526 31.5089 39.9592 31.2085 40.0999 30.9144C40.2405 30.6161 40.3108 30.2944 40.3108 29.9492C40.3108 29.5657 40.2234 29.2354 40.0487 28.9585C39.874 28.6772 39.6354 28.462 39.3328 28.3129C39.0303 28.1594 38.6872 28.0827 38.3037 28.0827C37.9031 28.0827 37.5537 28.1637 37.2554 28.3256C36.9571 28.4876 36.727 28.7198 36.5651 29.0224C36.4031 29.3249 36.3222 29.685 36.3222 30.1026H33.695C33.695 29.2461 33.8889 28.5025 34.2767 27.8718C34.6645 27.2411 35.2078 26.7532 35.9067 26.408C36.6056 26.0629 37.4109 25.8903 38.3229 25.8903C39.2604 25.8903 40.0764 26.0565 40.771 26.3888C41.4699 26.717 42.0132 27.1729 42.401 27.7567C42.7888 28.3406 42.9827 29.0096 42.9827 29.7638C42.9827 30.2582 42.8847 30.7461 42.6886 31.2276C42.4969 31.7092 42.1538 32.244 41.6595 32.832C41.1652 33.4158 40.4685 34.1168 39.5693 34.935L37.6581 36.8079V36.8974H43.1553V39.1602H33.8229ZM49.942 39.3391C49.0386 39.3391 48.2332 39.1729 47.5258 38.8406C46.8227 38.5082 46.2645 38.0501 45.8511 37.4663C45.4378 36.8825 45.2226 36.2134 45.2055 35.4592H47.8902C47.92 35.9663 48.1331 36.3775 48.5294 36.6928C48.9257 37.0082 49.3966 37.1658 49.942 37.1658C50.3767 37.1658 50.7602 37.07 51.0926 36.8782C51.4292 36.6822 51.6913 36.4116 51.8788 36.0664C52.0706 35.717 52.1665 35.3164 52.1665 34.8647C52.1665 34.4045 52.0684 33.9996 51.8724 33.6502C51.6807 33.3008 51.4143 33.0281 51.0734 32.832C50.7325 32.636 50.3426 32.5359 49.9037 32.5316C49.5201 32.5316 49.1473 32.6104 48.7851 32.7681C48.4271 32.9258 48.148 33.141 47.9477 33.4137L45.4868 32.9727L46.1068 26.0692H54.1096V28.332H48.3888L48.05 31.6112H48.1267C48.3568 31.2873 48.7041 31.0188 49.1686 30.8058C49.6331 30.5927 50.153 30.4862 50.7282 30.4862C51.5166 30.4862 52.2197 30.6715 52.8376 31.0423C53.4555 31.413 53.9434 31.9222 54.3014 32.57C54.6594 33.2134 54.8362 33.9549 54.8319 34.7944C54.8362 35.6765 54.6317 36.4606 54.2183 37.1467C53.8092 37.8285 53.2361 38.3654 52.4988 38.7575C51.7659 39.1452 50.9136 39.3391 49.942 39.3391Z" fill="#4B5563"/>
</svg>
