<svg width="64" height="65" viewBox="0 0 64 65" fill="none" xmlns="http://www.w3.org/2000/svg">
<path d="M0 32.9452C0 15.2748 14.3247 0.950195 31.995 0.950195V0.950195C49.6653 0.950195 63.99 15.2748 63.99 32.9452V32.9452C63.99 50.6155 49.6653 64.9402 31.995 64.9402V64.9402C14.3247 64.9402 0 50.6155 0 32.9452V32.9452Z" fill="#FF6B35"/>
<path d="M9.64682 39.3506V37.3563L14.3066 33.0416C14.7029 32.6581 15.0353 32.3129 15.3038 32.0061C15.5765 31.6993 15.7832 31.3989 15.9238 31.1048C16.0644 30.8066 16.1347 30.4848 16.1347 30.1396C16.1347 29.7561 16.0474 29.4259 15.8727 29.1489C15.698 28.8676 15.4593 28.6524 15.1568 28.5033C14.8542 28.3499 14.5112 28.2732 14.1276 28.2732C13.7271 28.2732 13.3776 28.3541 13.0794 28.5161C12.7811 28.678 12.5509 28.9102 12.389 29.2128C12.2271 29.5154 12.1461 29.8754 12.1461 30.2931H9.51898C9.51898 29.4365 9.71287 28.6929 10.1007 28.0622C10.4884 27.4316 11.0318 26.9436 11.7306 26.5985C12.4295 26.2533 13.2349 26.0807 14.1468 26.0807C15.0843 26.0807 15.9004 26.2469 16.595 26.5793C17.2938 26.9074 17.8372 27.3634 18.2249 27.9472C18.6127 28.531 18.8066 29.2 18.8066 29.9543C18.8066 30.4486 18.7086 30.9365 18.5126 31.4181C18.3208 31.8996 17.9778 32.4344 17.4835 33.0225C16.9892 33.6063 16.2924 34.3073 15.3933 35.1254L13.4821 36.9983V37.0878H18.9792V39.3506H9.64682ZM26.1175 39.6382C25.0181 39.634 24.0721 39.3634 23.2795 38.8264C22.4911 38.2895 21.8839 37.5118 21.4577 36.4933C21.0358 35.4749 20.827 34.2497 20.8313 32.8179C20.8313 31.3904 21.0422 30.1737 21.4641 29.1681C21.8903 28.1624 22.4975 27.3975 23.2858 26.8733C24.0785 26.3449 25.0224 26.0807 26.1175 26.0807C27.2127 26.0807 28.1545 26.3449 28.9428 26.8733C29.7354 27.4017 30.3448 28.1688 30.7709 29.1744C31.1971 30.1759 31.408 31.3904 31.4037 32.8179C31.4037 34.254 31.1907 35.4813 30.7645 36.4997C30.3427 37.5182 29.7376 38.2959 28.9492 38.8328C28.1608 39.3698 27.217 39.6382 26.1175 39.6382ZM26.1175 37.3435C26.8675 37.3435 27.4662 36.9664 27.9137 36.2121C28.3611 35.4578 28.5827 34.3264 28.5785 32.8179C28.5785 31.825 28.4762 30.9983 28.2716 30.3378C28.0714 29.6773 27.7858 29.1808 27.4151 28.8485C27.0486 28.5161 26.6161 28.3499 26.1175 28.3499C25.3718 28.3499 24.7752 28.7227 24.3278 29.4685C23.8803 30.2142 23.6545 31.3307 23.6502 32.8179C23.6502 33.8236 23.7503 34.6631 23.9506 35.3364C24.1552 36.0054 24.4428 36.5083 24.8135 36.8449C25.1843 37.1773 25.6189 37.3435 26.1175 37.3435ZM38.5101 39.6382C37.4107 39.634 36.4646 39.3634 35.672 38.8264C34.8837 38.2895 34.2764 37.5118 33.8503 36.4933C33.4284 35.4749 33.2196 34.2497 33.2239 32.8179C33.2239 31.3904 33.4348 30.1737 33.8567 29.1681C34.2828 28.1624 34.8901 27.3975 35.6784 26.8733C36.471 26.3449 37.4149 26.0807 38.5101 26.0807C39.6053 26.0807 40.547 26.3449 41.3354 26.8733C42.128 27.4017 42.7374 28.1688 43.1635 29.1744C43.5896 30.1759 43.8006 31.3904 43.7963 32.8179C43.7963 34.254 43.5833 35.4813 43.1571 36.4997C42.7352 37.5182 42.1301 38.2959 41.3418 38.8328C40.5534 39.3698 39.6095 39.6382 38.5101 39.6382ZM38.5101 37.3435C39.2601 37.3435 39.8588 36.9664 40.3063 36.2121C40.7537 35.4578 40.9753 34.3264 40.971 32.8179C40.971 31.825 40.8688 30.9983 40.6642 30.3378C40.4639 29.6773 40.1784 29.1808 39.8077 28.8485C39.4412 28.5161 39.0087 28.3499 38.5101 28.3499C37.7644 28.3499 37.1678 28.7227 36.7203 29.4685C36.2729 30.2142 36.047 31.3307 36.0428 32.8179C36.0428 33.8236 36.1429 34.6631 36.3432 35.3364C36.5477 36.0054 36.8354 36.5083 37.2061 36.8449C37.5769 37.1773 38.0115 37.3435 38.5101 37.3435ZM50.5511 39.5296C49.6477 39.5296 48.8423 39.3634 48.1349 39.031C47.4318 38.6986 46.8736 38.2405 46.4602 37.6567C46.0469 37.0729 45.8317 36.4039 45.8146 35.6496H48.4993C48.5291 36.1567 48.7422 36.5679 49.1385 36.8833C49.5348 37.1986 50.0057 37.3563 50.5511 37.3563C50.9858 37.3563 51.3693 37.2604 51.7017 37.0686C52.0383 36.8726 52.3004 36.602 52.4879 36.2568C52.6797 35.9074 52.7756 35.5068 52.7756 35.0551C52.7756 34.5949 52.6775 34.1901 52.4815 33.8406C52.2898 33.4912 52.0234 33.2185 51.6825 33.0225C51.3416 32.8264 50.9517 32.7263 50.5128 32.722C50.1292 32.722 49.7564 32.8009 49.3942 32.9585C49.0362 33.1162 48.7571 33.3314 48.5568 33.6041L46.0959 33.1631L46.7159 26.2597H54.7187V28.5225H48.9979L48.6591 31.8016H48.7358C48.9659 31.4777 49.3132 31.2093 49.7777 30.9962C50.2422 30.7831 50.7621 30.6766 51.3373 30.6766C52.1257 30.6766 52.8288 30.8619 53.4467 31.2327C54.0646 31.6034 54.5525 32.1127 54.9105 32.7604C55.2684 33.4039 55.4453 34.1453 55.441 34.9848C55.4453 35.8669 55.2408 36.651 54.8274 37.3371C54.4183 38.0189 53.8452 38.5558 53.1079 38.9479C52.375 39.3357 51.5227 39.5296 50.5511 39.5296Z" fill="white"/>
</svg>
