<svg width="40" height="40" viewBox="0 0 40 40" fill="none" xmlns="http://www.w3.org/2000/svg">
<rect width="40" height="40" rx="16" fill="#1F2937"/>
<path d="M21.2954 20.6998H23.1288L23.8621 17.7664H21.2954V16.2998C21.2954 15.9673 21.3101 15.7278 21.3394 15.5811C21.3981 15.3464 21.5252 15.1656 21.7208 15.0384C21.9554 14.9016 22.3026 14.8331 22.7621 14.8331H23.8621V12.3691C23.6959 12.3496 23.4319 12.33 23.0701 12.3104C22.6203 12.2811 22.1852 12.2664 21.7648 12.2664C21.0901 12.2664 20.4961 12.4009 19.9828 12.6698C19.4694 12.9387 19.0759 13.3224 18.8021 13.8211C18.5088 14.3589 18.3621 14.9896 18.3621 15.7131V17.7664H16.1621V20.6998H18.3621V26.9331H21.2954V20.6998Z" fill="white"/>
</svg>
