<svg width="80" height="80" viewBox="0 0 80 80" fill="none" xmlns="http://www.w3.org/2000/svg">
<path d="M0 20C0 8.9543 8.95431 0 20 0H59.99C71.0357 0 79.99 8.95431 79.99 20V59.99C79.99 71.0357 71.0357 79.99 59.99 79.99H20C8.9543 79.99 0 71.0357 0 59.99V20Z" fill="url(#paint0_linear_193_205)"/>
<path d="M37.3021 46.7373H38.662V40.0713H41.3284V46.7373H42.6883C42.7771 45.973 43.026 45.2264 43.4348 44.4975C43.7904 43.8398 44.3148 43.1288 45.008 42.3644L45.3813 41.9645C45.8968 41.4312 46.1812 41.1379 46.2346 41.0846C46.8034 40.3735 47.2389 39.5914 47.5411 38.7381C47.8433 37.8849 47.9944 36.9961 47.9944 36.0717C47.9944 34.6319 47.63 33.2898 46.9012 32.0455C46.1901 30.8367 45.2302 29.8768 44.0215 29.1657C42.7771 28.4369 41.435 28.0725 39.9952 28.0725C38.5553 28.0725 37.2132 28.4369 35.9689 29.1657C34.7602 29.8768 33.8003 30.8367 33.0892 32.0455C32.3604 33.2898 31.996 34.6319 31.996 36.0717C31.996 36.9961 32.1471 37.8849 32.4493 38.7381C32.7515 39.5914 33.187 40.3646 33.7558 41.0579C33.8091 41.129 34.0936 41.4312 34.6091 41.9645L34.9824 42.3644C35.6756 43.1288 36.2 43.8398 36.5555 44.4975C36.9644 45.2264 37.2132 45.973 37.3021 46.7373ZM37.3288 49.4037V50.7369H42.6616V49.4037H37.3288ZM31.676 42.7377C30.9294 41.8134 30.3517 40.7912 29.9429 39.6714C29.534 38.5159 29.3296 37.316 29.3296 36.0717C29.3296 34.1341 29.8184 32.3388 30.7961 30.6856C31.7382 29.0858 33.0092 27.8148 34.6091 26.8726C36.2622 25.895 38.0576 25.4061 39.9952 25.4061C41.9328 25.4061 43.7282 25.895 45.3813 26.8726C46.9812 27.8148 48.2521 29.0858 49.1943 30.6856C50.172 32.3388 50.6608 34.1341 50.6608 36.0717C50.6608 37.316 50.4564 38.5159 50.0475 39.6714C49.6387 40.7912 49.061 41.8134 48.3144 42.7377C48.1899 42.8977 47.9411 43.1643 47.5678 43.5376C46.8745 44.2665 46.3857 44.8442 46.1012 45.2708C45.5857 46.0174 45.328 46.7284 45.328 47.4039V50.7369C45.328 51.2169 45.208 51.6613 44.968 52.0701C44.7281 52.479 44.4036 52.8034 43.9948 53.0434C43.5859 53.2833 43.1415 53.4033 42.6616 53.4033H37.3288C36.8488 53.4033 36.4044 53.2833 35.9956 53.0434C35.5867 52.8034 35.2623 52.479 35.0224 52.0701C34.7824 51.6613 34.6624 51.2169 34.6624 50.7369V47.4039C34.6624 46.7284 34.4046 46.0174 33.8891 45.2708C33.6047 44.8442 33.1159 44.2665 32.4226 43.5376C32.0493 43.1643 31.8005 42.8977 31.676 42.7377Z" fill="white"/>
<defs>
<linearGradient id="paint0_linear_193_205" x1="0" y1="0" x2="79.99" y2="79.99" gradientUnits="userSpaceOnUse">
<stop stop-color="#6366F1"/>
<stop offset="1" stop-color="#2563EB"/>
</linearGradient>
</defs>
</svg>
