<svg width="80" height="80" viewBox="0 0 80 80" fill="none" xmlns="http://www.w3.org/2000/svg">
<path d="M-0.00976562 39.995C-0.00976562 17.9064 17.8966 0 39.9852 0V0C62.0739 0 79.9802 17.9064 79.9802 39.995V39.995C79.9802 62.0836 62.0739 79.99 39.9852 79.99V79.99C17.8966 79.99 -0.00976562 62.0836 -0.00976562 39.995V39.995Z" fill="#FF6B35"/>
<path d="M30.6457 29.5213V41.7638C30.6457 42.6706 30.8546 43.5152 31.2725 44.2976C31.6904 45.08 32.2727 45.7201 33.0195 46.218L39.9809 50.8589L46.9423 46.218C47.6891 45.7201 48.2715 45.08 48.6893 44.2976C49.1072 43.5152 49.3161 42.6706 49.3161 41.7638V29.5213L39.9809 27.4409L30.6457 29.5213ZM29.0187 27.1475L39.9809 24.7204L50.9431 27.1475C51.2454 27.2186 51.4943 27.3787 51.6899 27.6276C51.8855 27.8766 51.9833 28.1522 51.9833 28.4545V41.7638C51.9833 43.1152 51.6677 44.3776 51.0365 45.5512C50.4052 46.7248 49.5295 47.685 48.4093 48.4318L39.9809 54.0596L31.5526 48.4318C30.4323 47.685 29.5566 46.7248 28.9254 45.5512C28.2941 44.3776 27.9785 43.1152 27.9785 41.7638V28.4545C27.9785 28.1522 28.0763 27.8766 28.2719 27.6276C28.4675 27.3787 28.7164 27.2186 29.0187 27.1475ZM39.9809 41.3904L36.0601 43.4441L36.8069 39.0966L33.633 36.0026L38.0339 35.3625L39.9809 31.3884L41.928 35.3625L46.3289 36.0026L43.1549 39.0966L43.9017 43.4441L39.9809 41.3904Z" fill="white"/>
</svg>
