<svg width="64" height="64" viewBox="0 0 64 64" fill="none" xmlns="http://www.w3.org/2000/svg">
<path d="M-0.00976562 20C-0.00976562 8.95431 8.94454 0 19.9902 0H43.9802C55.0259 0 63.9802 8.95431 63.9802 20V43.99C63.9802 55.0357 55.0259 63.99 43.9802 63.99H19.9902C8.94454 63.99 -0.00976562 55.0357 -0.00976562 43.99V20Z" fill="url(#paint0_linear_193_191)"/>
<path d="M31.9803 19.3878C34.3275 19.3878 36.5501 19.9212 38.6483 20.9881C40.6576 22.0194 42.3513 23.4464 43.7293 25.269C45.1074 27.0915 46.0009 29.1319 46.4099 31.3902C46.0009 33.6484 45.1074 35.6888 43.7293 37.5114C42.3513 39.334 40.6576 40.7609 38.6483 41.7923C36.5501 42.8591 34.3275 43.3926 31.9803 43.3926C29.6332 43.3926 27.4105 42.8591 25.3123 41.7923C23.303 40.7609 21.6094 39.334 20.2313 37.5114C18.8533 35.6888 17.9598 33.6484 17.5508 31.3902C17.9598 29.1319 18.8533 27.0915 20.2313 25.269C21.6094 23.4464 23.303 22.0194 25.3123 20.9881C27.4105 19.9212 29.6332 19.3878 31.9803 19.3878ZM31.9803 40.7254C33.8296 40.7254 35.5899 40.3164 37.2614 39.4985C38.8795 38.7161 40.2531 37.6136 41.3822 36.1911C42.5113 34.7686 43.2804 33.1683 43.6893 31.3902C43.2804 29.612 42.5113 28.0117 41.3822 26.5892C40.2531 25.1667 38.8795 24.0643 37.2614 23.2819C35.5899 22.4639 33.8296 22.055 31.9803 22.055C30.1311 22.055 28.3707 22.4639 26.6993 23.2819C25.0812 24.0643 23.7076 25.1667 22.5785 26.5892C21.4493 28.0117 20.6803 29.612 20.2713 31.3902C20.6803 33.1683 21.4493 34.7686 22.5785 36.1911C23.7076 37.6136 25.0812 38.7161 26.6993 39.4985C28.3707 40.3164 30.1311 40.7254 31.9803 40.7254ZM31.9803 37.3914C30.8957 37.3914 29.8955 37.1202 28.9797 36.5779C28.064 36.0356 27.335 35.3065 26.7926 34.3908C26.2503 33.475 25.9791 32.4748 25.9791 31.3902C25.9791 30.3055 26.2503 29.3053 26.7926 28.3896C27.335 27.4738 28.064 26.7448 28.9797 26.2025C29.8955 25.6601 30.8957 25.389 31.9803 25.389C33.065 25.389 34.0652 25.6601 34.9809 26.2025C35.8967 26.7448 36.6257 27.4738 37.168 28.3896C37.7104 29.3053 37.9815 30.3055 37.9815 31.3902C37.9815 32.4748 37.7104 33.475 37.168 34.3908C36.6257 35.3065 35.8967 36.0356 34.9809 36.5779C34.0652 37.1202 33.065 37.3914 31.9803 37.3914ZM31.9803 34.7242C32.5849 34.7242 33.1406 34.573 33.6473 34.2708C34.1541 33.9685 34.5586 33.5639 34.8609 33.0572C35.1632 32.5504 35.3143 31.9947 35.3143 31.3902C35.3143 30.7856 35.1632 30.2299 34.8609 29.7232C34.5586 29.2164 34.1541 28.8119 33.6473 28.5096C33.1406 28.2073 32.5849 28.0562 31.9803 28.0562C31.3758 28.0562 30.8201 28.2073 30.3133 28.5096C29.8066 28.8119 29.402 29.2164 29.0998 29.7232C28.7975 30.2299 28.6463 30.7856 28.6463 31.3902C28.6463 31.9947 28.7975 32.5504 29.0998 33.0572C29.402 33.5639 29.8066 33.9685 30.3133 34.2708C30.8201 34.573 31.3758 34.7242 31.9803 34.7242Z" fill="white"/>
<defs>
<linearGradient id="paint0_linear_193_191" x1="-0.00976562" y1="0" x2="63.9802" y2="63.99" gradientUnits="userSpaceOnUse">
<stop stop-color="#A855F7"/>
<stop offset="1" stop-color="#DB2777"/>
</linearGradient>
</defs>
</svg>
