<svg width="65" height="64" viewBox="0 0 65 64" fill="none" xmlns="http://www.w3.org/2000/svg">
<rect x="0.400391" width="64" height="64" rx="32" fill="#FF6B35"/>
<path d="M25.4002 32.36C25.4002 30.6933 25.7002 29.1 26.3002 27.58C26.8868 26.1133 27.7102 24.8233 28.7702 23.71C29.8302 22.5966 31.0402 21.7533 32.4002 21.18C33.7602 21.7533 34.9702 22.5966 36.0302 23.71C37.0902 24.8233 37.9135 26.1133 38.5002 27.58C39.1002 29.1 39.4002 30.6933 39.4002 32.36C39.4002 33.1733 39.3268 33.9733 39.1802 34.76L41.1202 36.58C41.2002 36.66 41.2502 36.7566 41.2702 36.87C41.2902 36.9833 41.2735 37.0933 41.2202 37.2L38.7202 41.76C38.6535 41.88 38.5535 41.96 38.4202 42C38.2868 42.04 38.1602 42.0266 38.0402 41.96C38.0002 41.9466 37.9602 41.92 37.9202 41.88L35.7002 39.64C35.5002 39.4533 35.2602 39.36 34.9802 39.36H29.8202C29.5402 39.36 29.3002 39.4533 29.1002 39.64L26.8802 41.88C26.7735 41.9733 26.6535 42.02 26.5202 42.02C26.3868 42.02 26.2668 41.9733 26.1602 41.88C26.1335 41.8533 26.1068 41.8133 26.0802 41.76L23.5802 37.2C23.5268 37.0933 23.5102 36.9833 23.5302 36.87C23.5502 36.7566 23.6002 36.66 23.6802 36.58L25.6202 34.76C25.4735 33.9733 25.4002 33.1733 25.4002 32.36ZM26.8802 39.04L27.7002 38.24C27.9802 37.96 28.3035 37.7433 28.6702 37.59C29.0368 37.4366 29.4202 37.36 29.8202 37.36H34.9802C35.3802 37.36 35.7635 37.4366 36.1302 37.59C36.4968 37.7433 36.8202 37.96 37.1002 38.24L37.9202 39.04L38.9002 37.24L37.8002 36.22C37.5602 35.98 37.3868 35.7 37.2802 35.38C37.1735 35.06 37.1535 34.7333 37.2202 34.4C37.3402 33.72 37.4002 33.04 37.4002 32.36C37.4002 31.08 37.1935 29.8533 36.7802 28.68C36.3668 27.5333 35.7835 26.5033 35.0302 25.59C34.2768 24.6766 33.4002 23.9466 32.4002 23.4C31.4002 23.9466 30.5235 24.6766 29.7702 25.59C29.0168 26.5033 28.4335 27.5333 28.0202 28.68C27.6068 29.8533 27.4002 31.08 27.4002 32.36C27.4002 33.04 27.4602 33.72 27.5802 34.4C27.6468 34.7333 27.6268 35.06 27.5202 35.38C27.4135 35.7 27.2402 35.98 27.0002 36.22L25.9002 37.24L26.8802 39.04ZM32.4002 32.36C32.0402 32.36 31.7068 32.27 31.4002 32.09C31.0935 31.91 30.8502 31.6666 30.6702 31.36C30.4902 31.0533 30.4002 30.72 30.4002 30.36C30.4002 30 30.4902 29.6666 30.6702 29.36C30.8502 29.0533 31.0935 28.81 31.4002 28.63C31.7068 28.45 32.0402 28.36 32.4002 28.36C32.7602 28.36 33.0935 28.45 33.4002 28.63C33.7068 28.81 33.9502 29.0533 34.1302 29.36C34.3102 29.6666 34.4002 30 34.4002 30.36C34.4002 30.72 34.3102 31.0533 34.1302 31.36C33.9502 31.6666 33.7068 31.91 33.4002 32.09C33.0935 32.27 32.7602 32.36 32.4002 32.36Z" fill="white"/>
</svg>
