<svg width="25" height="25" viewBox="0 0 25 25" fill="none" xmlns="http://www.w3.org/2000/svg">
<path d="M2.5 20.3999H22.5V22.3999H2.5V20.3999ZM4.5 12.3999H6.5V19.3999H4.5V12.3999ZM9.5 12.3999H11.5V19.3999H9.5V12.3999ZM13.5 12.3999H15.5V19.3999H13.5V12.3999ZM18.5 12.3999H20.5V19.3999H18.5V12.3999ZM2.5 7.3999L12.5 2.3999L22.5 7.3999V11.3999H2.5V7.3999ZM4.5 8.6399V9.3999H20.5V8.6399L12.5 4.6399L4.5 8.6399ZM12.5 8.3999C12.22 8.3999 11.9833 8.30324 11.79 8.1099C11.5967 7.91657 11.5 7.6799 11.5 7.3999C11.5 7.1199 11.5967 6.88324 11.79 6.6899C11.9833 6.49657 12.22 6.3999 12.5 6.3999C12.78 6.3999 13.0167 6.49657 13.21 6.6899C13.4033 6.88324 13.5 7.1199 13.5 7.3999C13.5 7.6799 13.4033 7.91657 13.21 8.1099C13.0167 8.30324 12.78 8.3999 12.5 8.3999Z" fill="white"/>
</svg>
