<svg width="64" height="65" viewBox="0 0 64 65" fill="none" xmlns="http://www.w3.org/2000/svg">
<path d="M0 32.8251C0 15.1547 14.3247 0.830078 31.995 0.830078V0.830078C49.6653 0.830078 63.99 15.1547 63.99 32.8251V32.8251C63.99 50.4954 49.6653 64.8201 31.995 64.8201V64.8201C14.3247 64.8201 0 50.4954 0 32.8251V32.8251Z" fill="#FF6B35"/>
<path d="M9.64086 39.2305V37.2362L14.3007 32.9215C14.697 32.538 15.0294 32.1928 15.2978 31.886C15.5705 31.5792 15.7772 31.2788 15.9178 30.9847C16.0585 30.6864 16.1288 30.3647 16.1288 30.0195C16.1288 29.636 16.0414 29.3058 15.8667 29.0288C15.692 28.7475 15.4534 28.5323 15.1508 28.3832C14.8482 28.2298 14.5052 28.1531 14.1217 28.1531C13.7211 28.1531 13.3717 28.234 13.0734 28.396C12.7751 28.5579 12.545 28.7901 12.383 29.0927C12.2211 29.3952 12.1401 29.7553 12.1401 30.1729H9.51302C9.51302 29.3164 9.70691 28.5728 10.0947 27.9421C10.4825 27.3114 11.0258 26.8235 11.7247 26.4783C12.4235 26.1332 13.2289 25.9606 14.1409 25.9606C15.0784 25.9606 15.8944 26.1268 16.589 26.4592C17.2879 26.7873 17.8312 27.2433 18.219 27.8271C18.6068 28.4109 18.8007 29.0799 18.8007 29.8342C18.8007 30.3285 18.7027 30.8164 18.5066 31.2979C18.3149 31.7795 17.9718 32.3143 17.4775 32.9023C16.9832 33.4862 16.2865 34.1871 15.3873 35.0053L13.4761 36.8782V36.9677H18.9732V39.2305H9.64086ZM26.1116 39.5181C25.0121 39.5138 24.0661 39.2433 23.2735 38.7063C22.4851 38.1694 21.8779 37.3917 21.4518 36.3732C21.0299 35.3548 20.8211 34.1296 20.8253 32.6978C20.8253 31.2702 21.0363 30.0536 21.4582 29.0479C21.8843 28.0423 22.4915 27.2773 23.2799 26.7532C24.0725 26.2248 25.0164 25.9606 26.1116 25.9606C27.2067 25.9606 28.1485 26.2248 28.9368 26.7532C29.7295 27.2816 30.3388 28.0487 30.765 29.0543C31.1911 30.0558 31.402 31.2702 31.3978 32.6978C31.3978 34.1339 31.1847 35.3612 30.7586 36.3796C30.3367 37.3981 29.7316 38.1758 28.9432 38.7127C28.1549 39.2496 27.211 39.5181 26.1116 39.5181ZM26.1116 37.2234C26.8616 37.2234 27.4603 36.8462 27.9077 36.092C28.3552 35.3377 28.5768 34.2063 28.5725 32.6978C28.5725 31.7049 28.4702 30.8782 28.2657 30.2177C28.0654 29.5572 27.7799 29.0607 27.4091 28.7283C27.0427 28.396 26.6101 28.2298 26.1116 28.2298C25.3658 28.2298 24.7692 28.6026 24.3218 29.3484C23.8743 30.0941 23.6485 31.2106 23.6442 32.6978C23.6442 33.7035 23.7444 34.543 23.9447 35.2163C24.1492 35.8853 24.4368 36.3881 24.8076 36.7248C25.1783 37.0572 25.613 37.2234 26.1116 37.2234ZM33.3713 39.2305V37.2362L38.0311 32.9215C38.4274 32.538 38.7598 32.1928 39.0283 31.886C39.301 31.5792 39.5077 31.2788 39.6483 30.9847C39.7889 30.6864 39.8593 30.3647 39.8593 30.0195C39.8593 29.636 39.7719 29.3058 39.5972 29.0288C39.4225 28.7475 39.1838 28.5323 38.8813 28.3832C38.5787 28.2298 38.2357 28.1531 37.8522 28.1531C37.4516 28.1531 37.1022 28.234 36.8039 28.396C36.5056 28.5579 36.2754 28.7901 36.1135 29.0927C35.9516 29.3952 35.8706 29.7553 35.8706 30.1729H33.2435C33.2435 29.3164 33.4374 28.5728 33.8252 27.9421C34.2129 27.3114 34.7563 26.8235 35.4551 26.4783C36.154 26.1332 36.9594 25.9606 37.8713 25.9606C38.8088 25.9606 39.6249 26.1268 40.3195 26.4592C41.0183 26.7873 41.5617 27.2433 41.9495 27.8271C42.3372 28.4109 42.5311 29.0799 42.5311 29.8342C42.5311 30.3285 42.4331 30.8164 42.2371 31.2979C42.0453 31.7795 41.7023 32.3143 41.208 32.9023C40.7137 33.4862 40.0169 34.1871 39.1178 35.0053L37.2066 36.8782V36.9677H42.7037V39.2305H33.3713ZM49.842 39.5181C48.7426 39.5138 47.7966 39.2433 47.004 38.7063C46.2156 38.1694 45.6084 37.3917 45.1822 36.3732C44.7604 35.3548 44.5515 34.1296 44.5558 32.6978C44.5558 31.2702 44.7667 30.0536 45.1886 29.0479C45.6148 28.0423 46.222 27.2773 47.0104 26.7532C47.803 26.2248 48.7469 25.9606 49.842 25.9606C50.9372 25.9606 51.879 26.2248 52.6673 26.7532C53.4599 27.2816 54.0693 28.0487 54.4954 29.0543C54.9216 30.0558 55.1325 31.2702 55.1283 32.6978C55.1283 34.1339 54.9152 35.3612 54.489 36.3796C54.0672 37.3981 53.4621 38.1758 52.6737 38.7127C51.8854 39.2496 50.9415 39.5181 49.842 39.5181ZM49.842 37.2234C50.592 37.2234 51.1908 36.8462 51.6382 36.092C52.0856 35.3377 52.3072 34.2063 52.303 32.6978C52.303 31.7049 52.2007 30.8782 51.9962 30.2177C51.7959 29.5572 51.5104 29.0607 51.1396 28.7283C50.7731 28.396 50.3406 28.2298 49.842 28.2298C49.0963 28.2298 48.4997 28.6026 48.0523 29.3484C47.6048 30.0941 47.379 31.2106 47.3747 32.6978C47.3747 33.7035 47.4748 34.543 47.6751 35.2163C47.8797 35.8853 48.1673 36.3881 48.5381 36.7248C48.9088 37.0572 49.3435 37.2234 49.842 37.2234Z" fill="white"/>
</svg>
