<svg width="760" height="48" viewBox="0 0 760 48" fill="none" xmlns="http://www.w3.org/2000/svg">
<rect width="759.26" height="48" rx="24" fill="#F3F4F6"/>
<rect x="4" y="4" width="134.07" height="40" rx="20" fill="#FF6B35"/>
<path d="M30.4863 29.4004H28.6226L32.8101 17.764H34.8385L39.026 29.4004H37.1624L33.8726 19.8777H33.7817L30.4863 29.4004ZM30.7988 24.8436H36.8442V26.3208H30.7988V24.8436ZM42.2689 17.764V29.4004H40.5701V17.764H42.2689ZM46.2533 17.764V29.4004H44.5544V17.764H46.2533ZM52.9096 29.4004V17.764H57.0573C57.9626 17.764 58.7126 17.9288 59.3073 18.2583C59.902 18.5879 60.3471 19.0386 60.6425 19.6106C60.938 20.1788 61.0857 20.819 61.0857 21.5311C61.0857 22.247 60.9361 22.8909 60.6368 23.4629C60.3414 24.0311 59.8944 24.4818 59.2959 24.8152C58.7012 25.1447 57.9531 25.3095 57.0516 25.3095H54.1993V23.8208H56.8925C57.4645 23.8208 57.9285 23.7224 58.2846 23.5254C58.6406 23.3246 58.902 23.0519 59.0686 22.7072C59.2353 22.3625 59.3186 21.9705 59.3186 21.5311C59.3186 21.0917 59.2353 20.7015 59.0686 20.3606C58.902 20.0197 58.6387 19.7527 58.2789 19.5595C57.9228 19.3663 57.4531 19.2697 56.8698 19.2697H54.6652V29.4004H52.9096ZM63.0076 29.4004V20.6731H64.6496V22.0595H64.7405C64.8996 21.5898 65.1799 21.2205 65.5814 20.9515C65.9867 20.6788 66.4451 20.5424 66.9564 20.5424C67.0625 20.5424 67.1875 20.5462 67.3314 20.5538C67.4792 20.5614 67.5947 20.5708 67.678 20.5822V22.2072C67.6098 22.1883 67.4886 22.1674 67.3144 22.1447C67.1401 22.1182 66.9659 22.1049 66.7917 22.1049C66.3901 22.1049 66.0322 22.1902 65.7178 22.3606C65.4072 22.5273 65.161 22.7602 64.9792 23.0595C64.7973 23.3549 64.7064 23.6921 64.7064 24.0708V29.4004H63.0076ZM72.5118 29.5765C71.6936 29.5765 70.9796 29.389 70.3698 29.014C69.7599 28.639 69.2864 28.1144 68.9493 27.4402C68.6122 26.7659 68.4436 25.978 68.4436 25.0765C68.4436 24.1712 68.6122 23.3796 68.9493 22.7015C69.2864 22.0235 69.7599 21.497 70.3698 21.122C70.9796 20.747 71.6936 20.5595 72.5118 20.5595C73.33 20.5595 74.044 20.747 74.6539 21.122C75.2637 21.497 75.7372 22.0235 76.0743 22.7015C76.4114 23.3796 76.58 24.1712 76.58 25.0765C76.58 25.978 76.4114 26.7659 76.0743 27.4402C75.7372 28.1144 75.2637 28.639 74.6539 29.014C74.044 29.389 73.33 29.5765 72.5118 29.5765ZM72.5175 28.1504C73.0478 28.1504 73.4872 28.0102 73.8357 27.7299C74.1842 27.4496 74.4418 27.0765 74.6084 26.6106C74.7789 26.1447 74.8641 25.6315 74.8641 25.0708C74.8641 24.514 74.7789 24.0027 74.6084 23.5368C74.4418 23.0671 74.1842 22.6902 73.8357 22.4061C73.4872 22.122 73.0478 21.9799 72.5175 21.9799C71.9834 21.9799 71.5402 22.122 71.188 22.4061C70.8395 22.6902 70.58 23.0671 70.4096 23.5368C70.2429 24.0027 70.1596 24.514 70.1596 25.0708C70.1596 25.6315 70.2429 26.1447 70.4096 26.6106C70.58 27.0765 70.8395 27.4496 71.188 27.7299C71.5402 28.0102 71.9834 28.1504 72.5175 28.1504ZM78.4763 20.6731H80.1752V29.9686C80.1752 30.5519 80.0691 31.0443 79.857 31.4458C79.6487 31.8474 79.3381 32.1523 78.9252 32.3606C78.5161 32.569 78.0104 32.6731 77.4081 32.6731C77.3475 32.6731 77.2907 32.6731 77.2377 32.6731C77.1809 32.6731 77.1221 32.6712 77.0615 32.6674V31.2072C77.1146 31.2072 77.1619 31.2072 77.2036 31.2072C77.2415 31.2072 77.285 31.2072 77.3343 31.2072C77.7358 31.2072 78.0256 31.0993 78.2036 30.8833C78.3854 30.6712 78.4763 30.3625 78.4763 29.9572V20.6731ZM79.3172 19.3265C79.0218 19.3265 78.768 19.228 78.5559 19.0311C78.3475 18.8303 78.2434 18.5917 78.2434 18.3152C78.2434 18.0349 78.3475 17.7962 78.5559 17.5993C78.768 17.3985 79.0218 17.2981 79.3172 17.2981C79.6127 17.2981 79.8646 17.3985 80.0729 17.5993C80.285 17.7962 80.3911 18.0349 80.3911 18.3152C80.3911 18.5917 80.285 18.8303 80.0729 19.0311C79.8646 19.228 79.6127 19.3265 79.3172 19.3265ZM86.2221 29.5765C85.3622 29.5765 84.6217 29.3928 84.0005 29.0254C83.383 28.6542 82.9058 28.1333 82.5686 27.4629C82.2353 26.7886 82.0686 25.9989 82.0686 25.0936C82.0686 24.1996 82.2353 23.4118 82.5686 22.7299C82.9058 22.0481 83.3755 21.5159 83.9777 21.1333C84.5838 20.7508 85.2921 20.5595 86.1027 20.5595C86.5952 20.5595 87.0724 20.6409 87.5346 20.8038C87.9967 20.9667 88.4114 21.2224 88.7789 21.5708C89.1463 21.9193 89.4361 22.372 89.6482 22.9288C89.8603 23.4818 89.9664 24.1542 89.9664 24.9458V25.5481H83.0289V24.2754H88.3016C88.3016 23.8284 88.2107 23.4326 88.0289 23.0879C87.8471 22.7394 87.5914 22.4648 87.2618 22.264C86.9361 22.0633 86.5535 21.9629 86.1141 21.9629C85.6368 21.9629 85.2202 22.0803 84.8641 22.3152C84.5118 22.5462 84.2391 22.8493 84.0459 23.2243C83.8565 23.5955 83.7618 23.9989 83.7618 24.4345V25.4288C83.7618 26.0121 83.8641 26.5083 84.0686 26.9174C84.277 27.3265 84.5668 27.639 84.938 27.8549C85.3092 28.0671 85.7429 28.1731 86.2391 28.1731C86.5611 28.1731 86.8546 28.1277 87.1198 28.0368C87.3849 27.9421 87.6141 27.8019 87.8073 27.6163C88.0005 27.4307 88.1482 27.2015 88.2505 26.9288L89.8584 27.2186C89.7296 27.6921 89.4986 28.1068 89.1652 28.4629C88.8357 28.8152 88.4209 29.0898 87.9209 29.2868C87.4247 29.4799 86.8584 29.5765 86.2221 29.5765ZM95.5275 29.5765C94.6828 29.5765 93.9555 29.3852 93.3456 29.0027C92.7396 28.6163 92.2737 28.0841 91.9479 27.4061C91.6221 26.728 91.4593 25.9515 91.4593 25.0765C91.4593 24.1902 91.6259 23.408 91.9593 22.7299C92.2926 22.0481 92.7623 21.5159 93.3684 21.1333C93.9744 20.7508 94.6884 20.5595 95.5104 20.5595C96.1733 20.5595 96.7642 20.6826 97.2831 20.9288C97.8021 21.1712 98.2206 21.5121 98.5388 21.9515C98.8608 22.3909 99.0521 22.9042 99.1127 23.4913H97.4593C97.3684 23.0822 97.16 22.7299 96.8343 22.4345C96.5123 22.139 96.0805 21.9913 95.5388 21.9913C95.0653 21.9913 94.6506 22.1163 94.2945 22.3663C93.9422 22.6125 93.6676 22.9648 93.4706 23.4231C93.2737 23.8777 93.1752 24.4155 93.1752 25.0368C93.1752 25.6731 93.2718 26.2224 93.465 26.6845C93.6581 27.1466 93.9309 27.5046 94.2831 27.7583C94.6392 28.0121 95.0578 28.139 95.5388 28.139C95.8608 28.139 96.1525 28.0803 96.4138 27.9629C96.679 27.8417 96.9006 27.6693 97.0786 27.4458C97.2604 27.2224 97.3873 26.9534 97.4593 26.639H99.1127C99.0521 27.2034 98.8684 27.7072 98.5615 28.1504C98.2547 28.5936 97.8437 28.9421 97.3286 29.1958C96.8172 29.4496 96.2168 29.5765 95.5275 29.5765ZM105.003 20.6731V22.0368H100.236V20.6731H105.003ZM101.515 18.5822H103.214V26.8379C103.214 27.1674 103.263 27.4155 103.361 27.5822C103.46 27.7451 103.587 27.8568 103.742 27.9174C103.901 27.9743 104.073 28.0027 104.259 28.0027C104.395 28.0027 104.515 27.9932 104.617 27.9743C104.719 27.9553 104.799 27.9402 104.856 27.9288L105.162 29.3322C105.064 29.3701 104.924 29.408 104.742 29.4458C104.56 29.4875 104.333 29.5102 104.06 29.514C103.613 29.5216 103.196 29.4421 102.81 29.2754C102.424 29.1087 102.111 28.8511 101.873 28.5027C101.634 28.1542 101.515 27.7167 101.515 27.1902V18.5822ZM113.282 22.8038L111.742 23.0765C111.678 22.8796 111.575 22.6921 111.435 22.514C111.299 22.336 111.113 22.1902 110.878 22.0765C110.643 21.9629 110.35 21.9061 109.998 21.9061C109.517 21.9061 109.115 22.014 108.793 22.2299C108.471 22.4421 108.31 22.7167 108.31 23.0538C108.31 23.3455 108.418 23.5803 108.634 23.7583C108.85 23.9364 109.198 24.0822 109.679 24.1958L111.066 24.514C111.869 24.6996 112.467 24.9856 112.861 25.372C113.255 25.7583 113.452 26.2602 113.452 26.8777C113.452 27.4004 113.301 27.8663 112.998 28.2754C112.698 28.6807 112.28 28.9989 111.742 29.2299C111.208 29.461 110.589 29.5765 109.884 29.5765C108.907 29.5765 108.109 29.3682 107.492 28.9515C106.875 28.5311 106.496 27.9345 106.356 27.1618L107.998 26.9118C108.1 27.3398 108.31 27.6636 108.628 27.8833C108.946 28.0993 109.361 28.2072 109.873 28.2072C110.429 28.2072 110.875 28.0917 111.208 27.8606C111.541 27.6258 111.708 27.3398 111.708 27.0027C111.708 26.7299 111.606 26.5008 111.401 26.3152C111.2 26.1296 110.892 25.9894 110.475 25.8947L108.998 25.5708C108.183 25.3852 107.581 25.0898 107.191 24.6845C106.804 24.2792 106.611 23.7659 106.611 23.1447C106.611 22.6296 106.755 22.1788 107.043 21.7924C107.331 21.4061 107.729 21.1049 108.236 20.889C108.744 20.6693 109.325 20.5595 109.981 20.5595C110.924 20.5595 111.666 20.764 112.208 21.1731C112.75 21.5784 113.107 22.122 113.282 22.8038Z" fill="white"/>
<path d="M187.211 29.4004H185.347L189.535 17.764H191.563L195.751 29.4004H193.887L190.597 19.8777H190.506L187.211 29.4004ZM187.523 24.8436H193.569V26.3208H187.523V24.8436ZM199.187 17.764V29.4004H197.431V17.764H199.187ZM206.961 29.4004H205.097L209.285 17.764H211.313L215.501 29.4004H213.637L210.347 19.8777H210.256L206.961 29.4004ZM207.273 24.8436H213.319V26.3208H207.273V24.8436ZM217.045 32.6731V20.6731H218.704V22.0879H218.846C218.944 21.9061 219.086 21.6958 219.272 21.4572C219.458 21.2186 219.715 21.0102 220.045 20.8322C220.374 20.6504 220.81 20.5595 221.352 20.5595C222.056 20.5595 222.685 20.7375 223.238 21.0936C223.791 21.4496 224.225 21.9629 224.539 22.6333C224.857 23.3038 225.016 24.1106 225.016 25.0538C225.016 25.997 224.859 26.8057 224.545 27.4799C224.23 28.1504 223.799 28.6674 223.249 29.0311C222.7 29.3909 222.073 29.5708 221.369 29.5708C220.838 29.5708 220.405 29.4818 220.068 29.3038C219.734 29.1258 219.473 28.9174 219.283 28.6788C219.094 28.4402 218.948 28.228 218.846 28.0424H218.744V32.6731H217.045ZM218.71 25.0368C218.71 25.6504 218.799 26.1883 218.977 26.6504C219.155 27.1125 219.412 27.4743 219.749 27.7356C220.086 27.9932 220.499 28.122 220.988 28.122C221.496 28.122 221.92 27.9875 222.261 27.7186C222.602 27.4458 222.859 27.0765 223.033 26.6106C223.211 26.1447 223.3 25.6201 223.3 25.0368C223.3 24.461 223.213 23.944 223.039 23.4856C222.869 23.0273 222.611 22.6655 222.266 22.4004C221.925 22.1352 221.499 22.0027 220.988 22.0027C220.496 22.0027 220.079 22.1296 219.738 22.3833C219.401 22.6371 219.145 22.9913 218.971 23.4458C218.797 23.9004 218.71 24.4307 218.71 25.0368ZM226.92 32.6731V20.6731H228.579V22.0879H228.721C228.819 21.9061 228.961 21.6958 229.147 21.4572C229.333 21.2186 229.59 21.0102 229.92 20.8322C230.249 20.6504 230.685 20.5595 231.227 20.5595C231.931 20.5595 232.56 20.7375 233.113 21.0936C233.666 21.4496 234.1 21.9629 234.414 22.6333C234.732 23.3038 234.891 24.1106 234.891 25.0538C234.891 25.997 234.734 26.8057 234.42 27.4799C234.105 28.1504 233.674 28.6674 233.124 29.0311C232.575 29.3909 231.948 29.5708 231.244 29.5708C230.713 29.5708 230.28 29.4818 229.943 29.3038C229.609 29.1258 229.348 28.9174 229.158 28.6788C228.969 28.4402 228.823 28.228 228.721 28.0424H228.619V32.6731H226.92ZM228.585 25.0368C228.585 25.6504 228.674 26.1883 228.852 26.6504C229.03 27.1125 229.287 27.4743 229.624 27.7356C229.961 27.9932 230.374 28.122 230.863 28.122C231.371 28.122 231.795 27.9875 232.136 27.7186C232.477 27.4458 232.734 27.0765 232.908 26.6106C233.086 26.1447 233.175 25.6201 233.175 25.0368C233.175 24.461 233.088 23.944 232.914 23.4856C232.744 23.0273 232.486 22.6655 232.141 22.4004C231.8 22.1352 231.374 22.0027 230.863 22.0027C230.371 22.0027 229.954 22.1296 229.613 22.3833C229.276 22.6371 229.02 22.9913 228.846 23.4458C228.672 23.9004 228.585 24.4307 228.585 25.0368ZM238.494 17.764V29.4004H236.795V17.764H238.494ZM240.779 29.4004V20.6731H242.478V29.4004H240.779ZM241.637 19.3265C241.342 19.3265 241.088 19.228 240.876 19.0311C240.667 18.8303 240.563 18.5917 240.563 18.3152C240.563 18.0349 240.667 17.7962 240.876 17.5993C241.088 17.3985 241.342 17.2981 241.637 17.2981C241.933 17.2981 242.184 17.3985 242.393 17.5993C242.605 17.7962 242.711 18.0349 242.711 18.3152C242.711 18.5917 242.605 18.8303 242.393 19.0311C242.184 19.228 241.933 19.3265 241.637 19.3265ZM248.44 29.5765C247.595 29.5765 246.868 29.3852 246.258 29.0027C245.652 28.6163 245.186 28.0841 244.86 27.4061C244.534 26.728 244.371 25.9515 244.371 25.0765C244.371 24.1902 244.538 23.408 244.871 22.7299C245.205 22.0481 245.675 21.5159 246.281 21.1333C246.887 20.7508 247.601 20.5595 248.423 20.5595C249.085 20.5595 249.676 20.6826 250.195 20.9288C250.714 21.1712 251.133 21.5121 251.451 21.9515C251.773 22.3909 251.964 22.9042 252.025 23.4913H250.371C250.281 23.0822 250.072 22.7299 249.746 22.4345C249.425 22.139 248.993 21.9913 248.451 21.9913C247.978 21.9913 247.563 22.1163 247.207 22.3663C246.854 22.6125 246.58 22.9648 246.383 23.4231C246.186 23.8777 246.087 24.4155 246.087 25.0368C246.087 25.6731 246.184 26.2224 246.377 26.6845C246.57 27.1466 246.843 27.5046 247.195 27.7583C247.551 28.0121 247.97 28.139 248.451 28.139C248.773 28.139 249.065 28.0803 249.326 27.9629C249.591 27.8417 249.813 27.6693 249.991 27.4458C250.173 27.2224 250.3 26.9534 250.371 26.639H252.025C251.964 27.2034 251.781 27.7072 251.474 28.1504C251.167 28.5936 250.756 28.9421 250.241 29.1958C249.729 29.4496 249.129 29.5765 248.44 29.5765ZM256.381 29.5936C255.828 29.5936 255.328 29.4913 254.881 29.2868C254.434 29.0784 254.08 28.7773 253.819 28.3833C253.561 27.9894 253.433 27.5065 253.433 26.9345C253.433 26.4421 253.527 26.0368 253.717 25.7186C253.906 25.4004 254.162 25.1485 254.484 24.9629C254.806 24.7773 255.166 24.6371 255.563 24.5424C255.961 24.4477 256.366 24.3758 256.779 24.3265C257.302 24.2659 257.726 24.2167 258.052 24.1788C258.378 24.1371 258.614 24.0708 258.762 23.9799C258.91 23.889 258.984 23.7413 258.984 23.5368V23.497C258.984 23.0008 258.844 22.6163 258.563 22.3436C258.287 22.0708 257.874 21.9345 257.325 21.9345C256.753 21.9345 256.302 22.0614 255.972 22.3152C255.647 22.5652 255.421 22.8436 255.296 23.1504L253.7 22.7868C253.889 22.2565 254.166 21.8284 254.529 21.5027C254.897 21.1731 255.319 20.9345 255.796 20.7868C256.273 20.6352 256.775 20.5595 257.302 20.5595C257.65 20.5595 258.02 20.6011 258.41 20.6845C258.804 20.764 259.171 20.9118 259.512 21.1277C259.857 21.3436 260.139 21.6523 260.359 22.0538C260.578 22.4515 260.688 22.9686 260.688 23.6049V29.4004H259.029V28.2072H258.961C258.851 28.4269 258.686 28.6428 258.467 28.8549C258.247 29.0671 257.965 29.2432 257.62 29.3833C257.275 29.5235 256.862 29.5936 256.381 29.5936ZM256.751 28.2299C257.22 28.2299 257.622 28.1371 257.955 27.9515C258.292 27.7659 258.548 27.5235 258.722 27.2243C258.9 26.9212 258.989 26.5974 258.989 26.2527V25.1277C258.929 25.1883 258.811 25.2451 258.637 25.2981C258.467 25.3474 258.272 25.3909 258.052 25.4288C257.832 25.4629 257.618 25.4951 257.41 25.5254C257.202 25.5519 257.027 25.5746 256.887 25.5936C256.558 25.6352 256.256 25.7053 255.984 25.8038C255.715 25.9023 255.499 26.0443 255.336 26.2299C255.177 26.4118 255.097 26.6542 255.097 26.9572C255.097 27.3777 255.253 27.6958 255.563 27.9118C255.874 28.1239 256.27 28.2299 256.751 28.2299ZM267.025 20.6731V22.0368H262.258V20.6731H267.025ZM263.536 18.5822H265.235V26.8379C265.235 27.1674 265.284 27.4155 265.383 27.5822C265.481 27.7451 265.608 27.8568 265.764 27.9174C265.923 27.9743 266.095 28.0027 266.281 28.0027C266.417 28.0027 266.536 27.9932 266.639 27.9743C266.741 27.9553 266.82 27.9402 266.877 27.9288L267.184 29.3322C267.085 29.3701 266.945 29.408 266.764 29.4458C266.582 29.4875 266.354 29.5102 266.082 29.514C265.635 29.5216 265.218 29.4421 264.832 29.2754C264.445 29.1087 264.133 28.8511 263.894 28.5027C263.656 28.1542 263.536 27.7167 263.536 27.1902V18.5822ZM268.904 29.4004V20.6731H270.603V29.4004H268.904ZM269.762 19.3265C269.467 19.3265 269.213 19.228 269.001 19.0311C268.792 18.8303 268.688 18.5917 268.688 18.3152C268.688 18.0349 268.792 17.7962 269.001 17.5993C269.213 17.3985 269.467 17.2981 269.762 17.2981C270.058 17.2981 270.309 17.3985 270.518 17.5993C270.73 17.7962 270.836 18.0349 270.836 18.3152C270.836 18.5917 270.73 18.8303 270.518 19.0311C270.309 19.228 270.058 19.3265 269.762 19.3265ZM276.565 29.5765C275.746 29.5765 275.032 29.389 274.423 29.014C273.813 28.639 273.339 28.1144 273.002 27.4402C272.665 26.7659 272.496 25.978 272.496 25.0765C272.496 24.1712 272.665 23.3796 273.002 22.7015C273.339 22.0235 273.813 21.497 274.423 21.122C275.032 20.747 275.746 20.5595 276.565 20.5595C277.383 20.5595 278.097 20.747 278.707 21.122C279.317 21.497 279.79 22.0235 280.127 22.7015C280.464 23.3796 280.633 24.1712 280.633 25.0765C280.633 25.978 280.464 26.7659 280.127 27.4402C279.79 28.1144 279.317 28.639 278.707 29.014C278.097 29.389 277.383 29.5765 276.565 29.5765ZM276.57 28.1504C277.101 28.1504 277.54 28.0102 277.889 27.7299C278.237 27.4496 278.495 27.0765 278.661 26.6106C278.832 26.1447 278.917 25.6315 278.917 25.0708C278.917 24.514 278.832 24.0027 278.661 23.5368C278.495 23.0671 278.237 22.6902 277.889 22.4061C277.54 22.122 277.101 21.9799 276.57 21.9799C276.036 21.9799 275.593 22.122 275.241 22.4061C274.892 22.6902 274.633 23.0671 274.462 23.5368C274.296 24.0027 274.212 24.514 274.212 25.0708C274.212 25.6315 274.296 26.1447 274.462 26.6106C274.633 27.0765 274.892 27.4496 275.241 27.7299C275.593 28.0102 276.036 28.1504 276.57 28.1504ZM284.228 24.2186V29.4004H282.529V20.6731H284.16V22.0936H284.268C284.469 21.6315 284.783 21.2602 285.211 20.9799C285.643 20.6996 286.186 20.5595 286.842 20.5595C287.436 20.5595 287.957 20.6845 288.404 20.9345C288.851 21.1807 289.198 21.5481 289.444 22.0368C289.69 22.5254 289.813 23.1296 289.813 23.8493V29.4004H288.114V24.0538C288.114 23.4212 287.95 22.9269 287.62 22.5708C287.291 22.211 286.838 22.0311 286.262 22.0311C285.868 22.0311 285.518 22.1163 285.211 22.2868C284.908 22.4572 284.667 22.7072 284.489 23.0368C284.315 23.3625 284.228 23.7565 284.228 24.2186ZM298.631 22.8038L297.092 23.0765C297.027 22.8796 296.925 22.6921 296.785 22.514C296.648 22.336 296.463 22.1902 296.228 22.0765C295.993 21.9629 295.7 21.9061 295.347 21.9061C294.866 21.9061 294.465 22.014 294.143 22.2299C293.821 22.4421 293.66 22.7167 293.66 23.0538C293.66 23.3455 293.768 23.5803 293.984 23.7583C294.2 23.9364 294.548 24.0822 295.029 24.1958L296.416 24.514C297.219 24.6996 297.817 24.9856 298.211 25.372C298.605 25.7583 298.802 26.2602 298.802 26.8777C298.802 27.4004 298.65 27.8663 298.347 28.2754C298.048 28.6807 297.63 28.9989 297.092 29.2299C296.558 29.461 295.938 29.5765 295.234 29.5765C294.256 29.5765 293.459 29.3682 292.842 28.9515C292.224 28.5311 291.845 27.9345 291.705 27.1618L293.347 26.9118C293.45 27.3398 293.66 27.6636 293.978 27.8833C294.296 28.0993 294.711 28.2072 295.222 28.2072C295.779 28.2072 296.224 28.0917 296.558 27.8606C296.891 27.6258 297.058 27.3398 297.058 27.0027C297.058 26.7299 296.955 26.5008 296.751 26.3152C296.55 26.1296 296.241 25.9894 295.825 25.8947L294.347 25.5708C293.533 25.3852 292.931 25.0898 292.541 24.6845C292.154 24.2792 291.961 23.7659 291.961 23.1447C291.961 22.6296 292.105 22.1788 292.393 21.7924C292.681 21.4061 293.078 21.1049 293.586 20.889C294.094 20.6693 294.675 20.5595 295.33 20.5595C296.273 20.5595 297.016 20.764 297.558 21.1731C298.099 21.5784 298.457 22.122 298.631 22.8038Z" fill="#4B5563"/>
<path d="M397.29 20.8208C397.229 20.283 396.979 19.8663 396.54 19.5708C396.101 19.2716 395.548 19.122 394.881 19.122C394.404 19.122 393.991 19.1977 393.642 19.3493C393.294 19.497 393.023 19.7015 392.83 19.9629C392.64 20.2205 392.546 20.514 392.546 20.8436C392.546 21.1201 392.61 21.3587 392.739 21.5595C392.871 21.7602 393.044 21.9288 393.256 22.0652C393.472 22.1977 393.703 22.3095 393.949 22.4004C394.195 22.4875 394.432 22.5595 394.659 22.6163L395.796 22.9118C396.167 23.0027 396.548 23.1258 396.938 23.2811C397.328 23.4364 397.69 23.6409 398.023 23.8947C398.356 24.1485 398.625 24.4629 398.83 24.8379C399.038 25.2129 399.142 25.6618 399.142 26.1845C399.142 26.8436 398.972 27.4288 398.631 27.9402C398.294 28.4515 397.803 28.8549 397.159 29.1504C396.519 29.4458 395.745 29.5936 394.835 29.5936C393.964 29.5936 393.21 29.4553 392.574 29.1788C391.938 28.9023 391.44 28.5102 391.08 28.0027C390.72 27.4913 390.521 26.8852 390.483 26.1845H392.245C392.279 26.6049 392.415 26.9553 392.654 27.2356C392.896 27.5121 393.205 27.7186 393.58 27.8549C393.959 27.9875 394.373 28.0538 394.824 28.0538C395.32 28.0538 395.762 27.9761 396.148 27.8208C396.538 27.6618 396.845 27.4421 397.068 27.1618C397.292 26.8777 397.404 26.5462 397.404 26.1674C397.404 25.8227 397.305 25.5405 397.108 25.3208C396.915 25.1011 396.652 24.9193 396.318 24.7754C395.989 24.6315 395.616 24.5046 395.199 24.3947L393.824 24.0197C392.892 23.7659 392.154 23.3928 391.608 22.9004C391.067 22.408 390.796 21.7565 390.796 20.9458C390.796 20.2754 390.978 19.6902 391.341 19.1902C391.705 18.6902 392.197 18.3019 392.818 18.0254C393.44 17.7451 394.14 17.6049 394.921 17.6049C395.709 17.6049 396.404 17.7432 397.006 18.0197C397.612 18.2962 398.089 18.6769 398.438 19.1618C398.786 19.6428 398.968 20.1958 398.983 20.8208H397.29ZM403.644 29.5936C403.091 29.5936 402.591 29.4913 402.144 29.2868C401.697 29.0784 401.343 28.7773 401.081 28.3833C400.824 27.9894 400.695 27.5065 400.695 26.9345C400.695 26.4421 400.79 26.0368 400.979 25.7186C401.168 25.4004 401.424 25.1485 401.746 24.9629C402.068 24.7773 402.428 24.6371 402.826 24.5424C403.223 24.4477 403.629 24.3758 404.041 24.3265C404.564 24.2659 404.988 24.2167 405.314 24.1788C405.64 24.1371 405.877 24.0708 406.024 23.9799C406.172 23.889 406.246 23.7413 406.246 23.5368V23.497C406.246 23.0008 406.106 22.6163 405.826 22.3436C405.549 22.0708 405.136 21.9345 404.587 21.9345C404.015 21.9345 403.564 22.0614 403.235 22.3152C402.909 22.5652 402.683 22.8436 402.558 23.1504L400.962 22.7868C401.151 22.2565 401.428 21.8284 401.791 21.5027C402.159 21.1731 402.581 20.9345 403.058 20.7868C403.536 20.6352 404.038 20.5595 404.564 20.5595C404.913 20.5595 405.282 20.6011 405.672 20.6845C406.066 20.764 406.433 20.9118 406.774 21.1277C407.119 21.3436 407.401 21.6523 407.621 22.0538C407.841 22.4515 407.951 22.9686 407.951 23.6049V29.4004H406.291V28.2072H406.223C406.113 28.4269 405.949 28.6428 405.729 28.8549C405.509 29.0671 405.227 29.2432 404.882 29.3833C404.538 29.5235 404.125 29.5936 403.644 29.5936ZM404.013 28.2299C404.483 28.2299 404.884 28.1371 405.218 27.9515C405.555 27.7659 405.81 27.5235 405.985 27.2243C406.163 26.9212 406.252 26.5974 406.252 26.2527V25.1277C406.191 25.1883 406.074 25.2451 405.899 25.2981C405.729 25.3474 405.534 25.3909 405.314 25.4288C405.094 25.4629 404.88 25.4951 404.672 25.5254C404.464 25.5519 404.29 25.5746 404.149 25.5936C403.82 25.6352 403.519 25.7053 403.246 25.8038C402.977 25.9023 402.761 26.0443 402.598 26.2299C402.439 26.4118 402.36 26.6542 402.36 26.9572C402.36 27.3777 402.515 27.6958 402.826 27.9118C403.136 28.1239 403.532 28.2299 404.013 28.2299ZM412.753 29.5936C412.2 29.5936 411.7 29.4913 411.253 29.2868C410.806 29.0784 410.452 28.7773 410.191 28.3833C409.933 27.9894 409.804 27.5065 409.804 26.9345C409.804 26.4421 409.899 26.0368 410.088 25.7186C410.278 25.4004 410.533 25.1485 410.855 24.9629C411.177 24.7773 411.537 24.6371 411.935 24.5424C412.333 24.4477 412.738 24.3758 413.151 24.3265C413.674 24.2659 414.098 24.2167 414.424 24.1788C414.749 24.1371 414.986 24.0708 415.134 23.9799C415.281 23.889 415.355 23.7413 415.355 23.5368V23.497C415.355 23.0008 415.215 22.6163 414.935 22.3436C414.658 22.0708 414.246 21.9345 413.696 21.9345C413.124 21.9345 412.674 22.0614 412.344 22.3152C412.018 22.5652 411.793 22.8436 411.668 23.1504L410.071 22.7868C410.261 22.2565 410.537 21.8284 410.901 21.5027C411.268 21.1731 411.691 20.9345 412.168 20.7868C412.645 20.6352 413.147 20.5595 413.674 20.5595C414.022 20.5595 414.391 20.6011 414.781 20.6845C415.175 20.764 415.543 20.9118 415.884 21.1277C416.228 21.3436 416.511 21.6523 416.73 22.0538C416.95 22.4515 417.06 22.9686 417.06 23.6049V29.4004H415.401V28.2072H415.333C415.223 28.4269 415.058 28.6428 414.838 28.8549C414.619 29.0671 414.336 29.2432 413.992 29.3833C413.647 29.5235 413.234 29.5936 412.753 29.5936ZM413.122 28.2299C413.592 28.2299 413.994 28.1371 414.327 27.9515C414.664 27.7659 414.92 27.5235 415.094 27.2243C415.272 26.9212 415.361 26.5974 415.361 26.2527V25.1277C415.3 25.1883 415.183 25.2451 415.009 25.2981C414.838 25.3474 414.643 25.3909 414.424 25.4288C414.204 25.4629 413.99 25.4951 413.781 25.5254C413.573 25.5519 413.399 25.5746 413.259 25.5936C412.929 25.6352 412.628 25.7053 412.355 25.8038C412.086 25.9023 411.871 26.0443 411.708 26.2299C411.549 26.4118 411.469 26.6542 411.469 26.9572C411.469 27.3777 411.624 27.6958 411.935 27.9118C412.246 28.1239 412.641 28.2299 413.122 28.2299ZM425.806 20.8208C425.745 20.283 425.495 19.8663 425.056 19.5708C424.616 19.2716 424.063 19.122 423.397 19.122C422.919 19.122 422.506 19.1977 422.158 19.3493C421.809 19.497 421.539 19.7015 421.345 19.9629C421.156 20.2205 421.061 20.514 421.061 20.8436C421.061 21.1201 421.126 21.3587 421.255 21.5595C421.387 21.7602 421.559 21.9288 421.772 22.0652C421.987 22.1977 422.219 22.3095 422.465 22.4004C422.711 22.4875 422.948 22.5595 423.175 22.6163L424.311 22.9118C424.683 23.0027 425.063 23.1258 425.453 23.2811C425.844 23.4364 426.205 23.6409 426.539 23.8947C426.872 24.1485 427.141 24.4629 427.345 24.8379C427.554 25.2129 427.658 25.6618 427.658 26.1845C427.658 26.8436 427.487 27.4288 427.147 27.9402C426.809 28.4515 426.319 28.8549 425.675 29.1504C425.035 29.4458 424.26 29.5936 423.351 29.5936C422.48 29.5936 421.726 29.4553 421.09 29.1788C420.453 28.9023 419.955 28.5102 419.595 28.0027C419.236 27.4913 419.037 26.8852 418.999 26.1845H420.76C420.794 26.6049 420.931 26.9553 421.169 27.2356C421.412 27.5121 421.72 27.7186 422.095 27.8549C422.474 27.9875 422.889 28.0538 423.34 28.0538C423.836 28.0538 424.277 27.9761 424.664 27.8208C425.054 27.6618 425.361 27.4421 425.584 27.1618C425.808 26.8777 425.919 26.5462 425.919 26.1674C425.919 25.8227 425.821 25.5405 425.624 25.3208C425.431 25.1011 425.167 24.9193 424.834 24.7754C424.505 24.6315 424.131 24.5046 423.715 24.3947L422.34 24.0197C421.408 23.7659 420.669 23.3928 420.124 22.9004C419.582 22.408 419.311 21.7565 419.311 20.9458C419.311 20.2754 419.493 19.6902 419.857 19.1902C420.22 18.6902 420.713 18.3019 421.334 18.0254C421.955 17.7451 422.656 17.6049 423.436 17.6049C424.224 17.6049 424.919 17.7432 425.522 18.0197C426.128 18.2962 426.605 18.6769 426.953 19.1618C427.302 19.6428 427.484 20.1958 427.499 20.8208H425.806ZM433.99 29.4004V17.764H438.138C439.043 17.764 439.793 17.9288 440.388 18.2583C440.983 18.5879 441.428 19.0386 441.723 19.6106C442.019 20.1788 442.166 20.819 442.166 21.5311C442.166 22.247 442.017 22.8909 441.718 23.4629C441.422 24.0311 440.975 24.4818 440.377 24.8152C439.782 25.1447 439.034 25.3095 438.132 25.3095H435.28V23.8208H437.973C438.545 23.8208 439.009 23.7224 439.365 23.5254C439.721 23.3246 439.983 23.0519 440.149 22.7072C440.316 22.3625 440.399 21.9705 440.399 21.5311C440.399 21.0917 440.316 20.7015 440.149 20.3606C439.983 20.0197 439.719 19.7527 439.36 19.5595C439.004 19.3663 438.534 19.2697 437.951 19.2697H435.746V29.4004H433.99ZM445.787 17.764V29.4004H444.088V17.764H445.787ZM450.612 29.5936C450.059 29.5936 449.559 29.4913 449.112 29.2868C448.665 29.0784 448.311 28.7773 448.05 28.3833C447.792 27.9894 447.664 27.5065 447.664 26.9345C447.664 26.4421 447.758 26.0368 447.948 25.7186C448.137 25.4004 448.393 25.1485 448.715 24.9629C449.037 24.7773 449.397 24.6371 449.794 24.5424C450.192 24.4477 450.597 24.3758 451.01 24.3265C451.533 24.2659 451.957 24.2167 452.283 24.1788C452.609 24.1371 452.845 24.0708 452.993 23.9799C453.141 23.889 453.215 23.7413 453.215 23.5368V23.497C453.215 23.0008 453.075 22.6163 452.794 22.3436C452.518 22.0708 452.105 21.9345 451.556 21.9345C450.984 21.9345 450.533 22.0614 450.203 22.3152C449.878 22.5652 449.652 22.8436 449.527 23.1504L447.931 22.7868C448.12 22.2565 448.397 21.8284 448.76 21.5027C449.128 21.1731 449.55 20.9345 450.027 20.7868C450.505 20.6352 451.006 20.5595 451.533 20.5595C451.881 20.5595 452.251 20.6011 452.641 20.6845C453.035 20.764 453.402 20.9118 453.743 21.1277C454.088 21.3436 454.37 21.6523 454.59 22.0538C454.809 22.4515 454.919 22.9686 454.919 23.6049V29.4004H453.26V28.2072H453.192C453.082 28.4269 452.917 28.6428 452.698 28.8549C452.478 29.0671 452.196 29.2432 451.851 29.3833C451.506 29.5235 451.094 29.5936 450.612 29.5936ZM450.982 28.2299C451.451 28.2299 451.853 28.1371 452.186 27.9515C452.523 27.7659 452.779 27.5235 452.953 27.2243C453.131 26.9212 453.22 26.5974 453.22 26.2527V25.1277C453.16 25.1883 453.042 25.2451 452.868 25.2981C452.698 25.3474 452.503 25.3909 452.283 25.4288C452.063 25.4629 451.849 25.4951 451.641 25.5254C451.433 25.5519 451.258 25.5746 451.118 25.5936C450.789 25.6352 450.487 25.7053 450.215 25.8038C449.946 25.9023 449.73 26.0443 449.567 26.2299C449.408 26.4118 449.328 26.6542 449.328 26.9572C449.328 27.3777 449.484 27.6958 449.794 27.9118C450.105 28.1239 450.501 28.2299 450.982 28.2299ZM461.256 20.6731V22.0368H456.489V20.6731H461.256ZM457.767 18.5822H459.466V26.8379C459.466 27.1674 459.515 27.4155 459.614 27.5822C459.712 27.7451 459.839 27.8568 459.995 27.9174C460.154 27.9743 460.326 28.0027 460.512 28.0027C460.648 28.0027 460.767 27.9932 460.87 27.9743C460.972 27.9553 461.051 27.9402 461.108 27.9288L461.415 29.3322C461.317 29.3701 461.176 29.408 460.995 29.4458C460.813 29.4875 460.585 29.5102 460.313 29.514C459.866 29.5216 459.449 29.4421 459.063 29.2754C458.676 29.1087 458.364 28.8511 458.125 28.5027C457.887 28.1542 457.767 27.7167 457.767 27.1902V18.5822ZM467.289 20.6731V22.0368H462.357V20.6731H467.289ZM463.709 29.4004V19.6618C463.709 19.1163 463.828 18.6636 464.067 18.3038C464.306 17.9402 464.622 17.6693 465.016 17.4913C465.41 17.3095 465.838 17.2186 466.3 17.2186C466.641 17.2186 466.933 17.247 467.175 17.3038C467.417 17.3568 467.597 17.4061 467.715 17.4515L467.317 18.8265C467.237 18.8038 467.135 18.7773 467.01 18.747C466.885 18.7129 466.734 18.6958 466.556 18.6958C466.143 18.6958 465.847 18.7981 465.669 19.0027C465.495 19.2072 465.408 19.5027 465.408 19.889V29.4004H463.709ZM472.374 29.5765C471.556 29.5765 470.842 29.389 470.232 29.014C469.622 28.639 469.148 28.1144 468.811 27.4402C468.474 26.7659 468.306 25.978 468.306 25.0765C468.306 24.1712 468.474 23.3796 468.811 22.7015C469.148 22.0235 469.622 21.497 470.232 21.122C470.842 20.747 471.556 20.5595 472.374 20.5595C473.192 20.5595 473.906 20.747 474.516 21.122C475.126 21.497 475.599 22.0235 475.936 22.7015C476.273 23.3796 476.442 24.1712 476.442 25.0765C476.442 25.978 476.273 26.7659 475.936 27.4402C475.599 28.1144 475.126 28.639 474.516 29.014C473.906 29.389 473.192 29.5765 472.374 29.5765ZM472.38 28.1504C472.91 28.1504 473.349 28.0102 473.698 27.7299C474.046 27.4496 474.304 27.0765 474.47 26.6106C474.641 26.1447 474.726 25.6315 474.726 25.0708C474.726 24.514 474.641 24.0027 474.47 23.5368C474.304 23.0671 474.046 22.6902 473.698 22.4061C473.349 22.122 472.91 21.9799 472.38 21.9799C471.845 21.9799 471.402 22.122 471.05 22.4061C470.701 22.6902 470.442 23.0671 470.272 23.5368C470.105 24.0027 470.022 24.514 470.022 25.0708C470.022 25.6315 470.105 26.1447 470.272 26.6106C470.442 27.0765 470.701 27.4496 471.05 27.7299C471.402 28.0102 471.845 28.1504 472.38 28.1504ZM478.338 29.4004V20.6731H479.98V22.0595H480.071C480.23 21.5898 480.511 21.2205 480.912 20.9515C481.317 20.6788 481.776 20.5424 482.287 20.5424C482.393 20.5424 482.518 20.5462 482.662 20.5538C482.81 20.5614 482.925 20.5708 483.009 20.5822V22.2072C482.941 22.1883 482.819 22.1674 482.645 22.1447C482.471 22.1182 482.297 22.1049 482.122 22.1049C481.721 22.1049 481.363 22.1902 481.049 22.3606C480.738 22.5273 480.492 22.7602 480.31 23.0595C480.128 23.3549 480.037 23.6921 480.037 24.0708V29.4004H478.338ZM484.479 29.4004V20.6731H486.11V22.0936H486.218C486.399 21.6125 486.697 21.2375 487.11 20.9686C487.522 20.6958 488.017 20.5595 488.593 20.5595C489.176 20.5595 489.665 20.6958 490.058 20.9686C490.456 21.2413 490.75 21.6163 490.939 22.0936H491.03C491.238 21.6277 491.57 21.2565 492.024 20.9799C492.479 20.6996 493.021 20.5595 493.649 20.5595C494.441 20.5595 495.087 20.8076 495.587 21.3038C496.091 21.8 496.343 22.5481 496.343 23.5481V29.4004H494.644V23.7072C494.644 23.1163 494.483 22.6883 494.161 22.4231C493.839 22.158 493.454 22.0254 493.007 22.0254C492.454 22.0254 492.024 22.1958 491.718 22.5368C491.411 22.8739 491.257 23.3076 491.257 23.8379V29.4004H489.564V23.5993C489.564 23.1258 489.416 22.7451 489.121 22.4572C488.826 22.1693 488.441 22.0254 487.968 22.0254C487.646 22.0254 487.348 22.1106 487.076 22.2811C486.807 22.4477 486.589 22.6807 486.422 22.9799C486.259 23.2792 486.178 23.6258 486.178 24.0197V29.4004H484.479ZM505.159 22.8038L503.62 23.0765C503.555 22.8796 503.453 22.6921 503.313 22.514C503.176 22.336 502.991 22.1902 502.756 22.0765C502.521 21.9629 502.228 21.9061 501.875 21.9061C501.394 21.9061 500.993 22.014 500.671 22.2299C500.349 22.4421 500.188 22.7167 500.188 23.0538C500.188 23.3455 500.296 23.5803 500.512 23.7583C500.728 23.9364 501.076 24.0822 501.557 24.1958L502.943 24.514C503.746 24.6996 504.345 24.9856 504.739 25.372C505.133 25.7583 505.33 26.2602 505.33 26.8777C505.33 27.4004 505.178 27.8663 504.875 28.2754C504.576 28.6807 504.157 28.9989 503.62 29.2299C503.085 29.461 502.466 29.5765 501.762 29.5765C500.784 29.5765 499.987 29.3682 499.37 28.9515C498.752 28.5311 498.373 27.9345 498.233 27.1618L499.875 26.9118C499.978 27.3398 500.188 27.6636 500.506 27.8833C500.824 28.0993 501.239 28.2072 501.75 28.2072C502.307 28.2072 502.752 28.0917 503.085 27.8606C503.419 27.6258 503.585 27.3398 503.585 27.0027C503.585 26.7299 503.483 26.5008 503.279 26.3152C503.078 26.1296 502.769 25.9894 502.353 25.8947L500.875 25.5708C500.061 25.3852 499.459 25.0898 499.068 24.6845C498.682 24.2792 498.489 23.7659 498.489 23.1447C498.489 22.6296 498.633 22.1788 498.921 21.7924C499.209 21.4061 499.606 21.1049 500.114 20.889C500.621 20.6693 501.203 20.5595 501.858 20.5595C502.801 20.5595 503.544 20.764 504.085 21.1731C504.627 21.5784 504.985 22.122 505.159 22.8038Z" fill="#4B5563"/>
<path d="M588.464 29.4004L585.237 17.764H587.084L589.351 26.7754H589.459L591.817 17.764H593.646L596.004 26.7811H596.112L598.373 17.764H600.226L596.993 29.4004H595.226L592.777 20.6845H592.686L590.237 29.4004H588.464ZM604.592 29.5765C603.732 29.5765 602.992 29.3928 602.371 29.0254C601.753 28.6542 601.276 28.1333 600.939 27.4629C600.605 26.7886 600.439 25.9989 600.439 25.0936C600.439 24.1996 600.605 23.4118 600.939 22.7299C601.276 22.0481 601.746 21.5159 602.348 21.1333C602.954 20.7508 603.662 20.5595 604.473 20.5595C604.965 20.5595 605.442 20.6409 605.905 20.8038C606.367 20.9667 606.782 21.2224 607.149 21.5708C607.516 21.9193 607.806 22.372 608.018 22.9288C608.23 23.4818 608.336 24.1542 608.336 24.9458V25.5481H601.399V24.2754H606.672C606.672 23.8284 606.581 23.4326 606.399 23.0879C606.217 22.7394 605.961 22.4648 605.632 22.264C605.306 22.0633 604.924 21.9629 604.484 21.9629C604.007 21.9629 603.59 22.0803 603.234 22.3152C602.882 22.5462 602.609 22.8493 602.416 23.2243C602.227 23.5955 602.132 23.9989 602.132 24.4345V25.4288C602.132 26.0121 602.234 26.5083 602.439 26.9174C602.647 27.3265 602.937 27.639 603.308 27.8549C603.679 28.0671 604.113 28.1731 604.609 28.1731C604.931 28.1731 605.225 28.1277 605.49 28.0368C605.755 27.9421 605.984 27.8019 606.177 27.6163C606.371 27.4307 606.518 27.2015 606.621 26.9288L608.228 27.2186C608.1 27.6921 607.869 28.1068 607.535 28.4629C607.206 28.8152 606.791 29.0898 606.291 29.2868C605.795 29.4799 605.228 29.5765 604.592 29.5765ZM610.358 29.4004V17.764H612.057V22.0879H612.159C612.257 21.9061 612.399 21.6958 612.585 21.4572C612.771 21.2186 613.028 21.0102 613.358 20.8322C613.687 20.6504 614.123 20.5595 614.665 20.5595C615.369 20.5595 615.998 20.7375 616.551 21.0936C617.104 21.4496 617.538 21.9629 617.852 22.6333C618.17 23.3038 618.329 24.1106 618.329 25.0538C618.329 25.997 618.172 26.8057 617.858 27.4799C617.543 28.1504 617.112 28.6674 616.562 29.0311C616.013 29.3909 615.386 29.5708 614.682 29.5708C614.151 29.5708 613.718 29.4818 613.38 29.3038C613.047 29.1258 612.786 28.9174 612.596 28.6788C612.407 28.4402 612.261 28.228 612.159 28.0424H612.017V29.4004H610.358ZM612.023 25.0368C612.023 25.6504 612.112 26.1883 612.29 26.6504C612.468 27.1125 612.725 27.4743 613.062 27.7356C613.399 27.9932 613.812 28.122 614.301 28.122C614.808 28.122 615.233 27.9875 615.574 27.7186C615.915 27.4458 616.172 27.0765 616.346 26.6106C616.524 26.1447 616.613 25.6201 616.613 25.0368C616.613 24.461 616.526 23.944 616.352 23.4856C616.182 23.0273 615.924 22.6655 615.579 22.4004C615.238 22.1352 614.812 22.0027 614.301 22.0027C613.808 22.0027 613.392 22.1296 613.051 22.3833C612.714 22.6371 612.458 22.9913 612.284 23.4458C612.11 23.9004 612.023 24.4307 612.023 25.0368ZM628.375 29.4004H624.608V17.764H628.494C629.634 17.764 630.613 17.997 631.432 18.4629C632.25 18.925 632.877 19.5898 633.312 20.4572C633.752 21.3208 633.971 22.3568 633.971 23.5652C633.971 24.7773 633.75 25.819 633.307 26.6902C632.867 27.5614 632.231 28.2318 631.398 28.7015C630.564 29.1674 629.557 29.4004 628.375 29.4004ZM626.363 27.8663H628.278C629.165 27.8663 629.901 27.6996 630.488 27.3663C631.076 27.0292 631.515 26.5424 631.807 25.9061C632.098 25.2659 632.244 24.4856 632.244 23.5652C632.244 22.6523 632.098 21.8777 631.807 21.2413C631.519 20.6049 631.089 20.122 630.517 19.7924C629.945 19.4629 629.235 19.2981 628.386 19.2981H626.363V27.8663ZM639.78 29.5765C638.92 29.5765 638.179 29.3928 637.558 29.0254C636.941 28.6542 636.463 28.1333 636.126 27.4629C635.793 26.7886 635.626 25.9989 635.626 25.0936C635.626 24.1996 635.793 23.4118 636.126 22.7299C636.463 22.0481 636.933 21.5159 637.535 21.1333C638.141 20.7508 638.85 20.5595 639.66 20.5595C640.153 20.5595 640.63 20.6409 641.092 20.8038C641.554 20.9667 641.969 21.2224 642.336 21.5708C642.704 21.9193 642.994 22.372 643.206 22.9288C643.418 23.4818 643.524 24.1542 643.524 24.9458V25.5481H636.586V24.2754H641.859C641.859 23.8284 641.768 23.4326 641.586 23.0879C641.405 22.7394 641.149 22.4648 640.819 22.264C640.494 22.0633 640.111 21.9629 639.672 21.9629C639.194 21.9629 638.778 22.0803 638.422 22.3152C638.069 22.5462 637.797 22.8493 637.603 23.2243C637.414 23.5955 637.319 23.9989 637.319 24.4345V25.4288C637.319 26.0121 637.422 26.5083 637.626 26.9174C637.835 27.3265 638.124 27.639 638.496 27.8549C638.867 28.0671 639.3 28.1731 639.797 28.1731C640.119 28.1731 640.412 28.1277 640.677 28.0368C640.942 27.9421 641.172 27.8019 641.365 27.6163C641.558 27.4307 641.706 27.2015 641.808 26.9288L643.416 27.2186C643.287 27.6921 643.056 28.1068 642.723 28.4629C642.393 28.8152 641.978 29.0898 641.478 29.2868C640.982 29.4799 640.416 29.5765 639.78 29.5765ZM652.625 20.6731L649.46 29.4004H647.642L644.471 20.6731H646.295L648.505 27.389H648.596L650.801 20.6731H652.625ZM657.686 29.5765C656.826 29.5765 656.085 29.3928 655.464 29.0254C654.847 28.6542 654.37 28.1333 654.032 27.4629C653.699 26.7886 653.532 25.9989 653.532 25.0936C653.532 24.1996 653.699 23.4118 654.032 22.7299C654.37 22.0481 654.839 21.5159 655.442 21.1333C656.048 20.7508 656.756 20.5595 657.567 20.5595C658.059 20.5595 658.536 20.6409 658.998 20.8038C659.46 20.9667 659.875 21.2224 660.243 21.5708C660.61 21.9193 660.9 22.372 661.112 22.9288C661.324 23.4818 661.43 24.1542 661.43 24.9458V25.5481H654.493V24.2754H659.765C659.765 23.8284 659.675 23.4326 659.493 23.0879C659.311 22.7394 659.055 22.4648 658.726 22.264C658.4 22.0633 658.017 21.9629 657.578 21.9629C657.101 21.9629 656.684 22.0803 656.328 22.3152C655.976 22.5462 655.703 22.8493 655.51 23.2243C655.32 23.5955 655.226 23.9989 655.226 24.4345V25.4288C655.226 26.0121 655.328 26.5083 655.532 26.9174C655.741 27.3265 656.031 27.639 656.402 27.8549C656.773 28.0671 657.207 28.1731 657.703 28.1731C658.025 28.1731 658.318 28.1277 658.584 28.0368C658.849 27.9421 659.078 27.8019 659.271 27.6163C659.464 27.4307 659.612 27.2015 659.714 26.9288L661.322 27.2186C661.193 27.6921 660.962 28.1068 660.629 28.4629C660.3 28.8152 659.885 29.0898 659.385 29.2868C658.889 29.4799 658.322 29.5765 657.686 29.5765ZM665.014 17.764V29.4004H663.315V17.764H665.014ZM670.976 29.5765C670.157 29.5765 669.443 29.389 668.834 29.014C668.224 28.639 667.75 28.1144 667.413 27.4402C667.076 26.7659 666.907 25.978 666.907 25.0765C666.907 24.1712 667.076 23.3796 667.413 22.7015C667.75 22.0235 668.224 21.497 668.834 21.122C669.443 20.747 670.157 20.5595 670.976 20.5595C671.794 20.5595 672.508 20.747 673.118 21.122C673.728 21.497 674.201 22.0235 674.538 22.7015C674.875 23.3796 675.044 24.1712 675.044 25.0765C675.044 25.978 674.875 26.7659 674.538 27.4402C674.201 28.1144 673.728 28.639 673.118 29.014C672.508 29.389 671.794 29.5765 670.976 29.5765ZM670.981 28.1504C671.512 28.1504 671.951 28.0102 672.3 27.7299C672.648 27.4496 672.906 27.0765 673.072 26.6106C673.243 26.1447 673.328 25.6315 673.328 25.0708C673.328 24.514 673.243 24.0027 673.072 23.5368C672.906 23.0671 672.648 22.6902 672.3 22.4061C671.951 22.122 671.512 21.9799 670.981 21.9799C670.447 21.9799 670.004 22.122 669.652 22.4061C669.303 22.6902 669.044 23.0671 668.873 23.5368C668.707 24.0027 668.623 24.514 668.623 25.0708C668.623 25.6315 668.707 26.1447 668.873 26.6106C669.044 27.0765 669.303 27.4496 669.652 27.7299C670.004 28.0102 670.447 28.1504 670.981 28.1504ZM676.94 32.6731V20.6731H678.599V22.0879H678.741C678.84 21.9061 678.982 21.6958 679.167 21.4572C679.353 21.2186 679.611 21.0102 679.94 20.8322C680.27 20.6504 680.705 20.5595 681.247 20.5595C681.951 20.5595 682.58 20.7375 683.133 21.0936C683.686 21.4496 684.12 21.9629 684.434 22.6333C684.753 23.3038 684.912 24.1106 684.912 25.0538C684.912 25.997 684.755 26.8057 684.44 27.4799C684.126 28.1504 683.694 28.6674 683.145 29.0311C682.595 29.3909 681.969 29.5708 681.264 29.5708C680.734 29.5708 680.3 29.4818 679.963 29.3038C679.63 29.1258 679.368 28.9174 679.179 28.6788C678.989 28.4402 678.844 28.228 678.741 28.0424H678.639V32.6731H676.94ZM678.605 25.0368C678.605 25.6504 678.694 26.1883 678.872 26.6504C679.05 27.1125 679.308 27.4743 679.645 27.7356C679.982 27.9932 680.395 28.122 680.883 28.122C681.391 28.122 681.815 27.9875 682.156 27.7186C682.497 27.4458 682.755 27.0765 682.929 26.6106C683.107 26.1447 683.196 25.6201 683.196 25.0368C683.196 24.461 683.109 23.944 682.934 23.4856C682.764 23.0273 682.506 22.6655 682.162 22.4004C681.821 22.1352 681.395 22.0027 680.883 22.0027C680.391 22.0027 679.974 22.1296 679.633 22.3833C679.296 22.6371 679.041 22.9913 678.866 23.4458C678.692 23.9004 678.605 24.4307 678.605 25.0368ZM686.815 29.4004V20.6731H688.446V22.0936H688.554C688.736 21.6125 689.033 21.2375 689.446 20.9686C689.859 20.6958 690.353 20.5595 690.929 20.5595C691.512 20.5595 692.001 20.6958 692.395 20.9686C692.792 21.2413 693.086 21.6163 693.275 22.0936H693.366C693.575 21.6277 693.906 21.2565 694.361 20.9799C694.815 20.6996 695.357 20.5595 695.986 20.5595C696.777 20.5595 697.423 20.8076 697.923 21.3038C698.427 21.8 698.679 22.5481 698.679 23.5481V29.4004H696.98V23.7072C696.98 23.1163 696.819 22.6883 696.497 22.4231C696.175 22.158 695.791 22.0254 695.344 22.0254C694.791 22.0254 694.361 22.1958 694.054 22.5368C693.747 22.8739 693.594 23.3076 693.594 23.8379V29.4004H691.9V23.5993C691.9 23.1258 691.753 22.7451 691.457 22.4572C691.162 22.1693 690.777 22.0254 690.304 22.0254C689.982 22.0254 689.684 22.1106 689.412 22.2811C689.143 22.4477 688.925 22.6807 688.758 22.9799C688.595 23.2792 688.514 23.6258 688.514 24.0197V29.4004H686.815ZM704.717 29.5765C703.857 29.5765 703.117 29.3928 702.496 29.0254C701.878 28.6542 701.401 28.1333 701.064 27.4629C700.73 26.7886 700.564 25.9989 700.564 25.0936C700.564 24.1996 700.73 23.4118 701.064 22.7299C701.401 22.0481 701.871 21.5159 702.473 21.1333C703.079 20.7508 703.787 20.5595 704.598 20.5595C705.09 20.5595 705.567 20.6409 706.03 20.8038C706.492 20.9667 706.907 21.2224 707.274 21.5708C707.641 21.9193 707.931 22.372 708.143 22.9288C708.355 23.4818 708.461 24.1542 708.461 24.9458V25.5481H701.524V24.2754H706.797C706.797 23.8284 706.706 23.4326 706.524 23.0879C706.342 22.7394 706.086 22.4648 705.757 22.264C705.431 22.0633 705.049 21.9629 704.609 21.9629C704.132 21.9629 703.715 22.0803 703.359 22.3152C703.007 22.5462 702.734 22.8493 702.541 23.2243C702.352 23.5955 702.257 23.9989 702.257 24.4345V25.4288C702.257 26.0121 702.359 26.5083 702.564 26.9174C702.772 27.3265 703.062 27.639 703.433 27.8549C703.804 28.0671 704.238 28.1731 704.734 28.1731C705.056 28.1731 705.35 28.1277 705.615 28.0368C705.88 27.9421 706.109 27.8019 706.302 27.6163C706.496 27.4307 706.643 27.2015 706.746 26.9288L708.353 27.2186C708.225 27.6921 707.994 28.1068 707.66 28.4629C707.331 28.8152 706.916 29.0898 706.416 29.2868C705.92 29.4799 705.353 29.5765 704.717 29.5765ZM712.045 24.2186V29.4004H710.346V20.6731H711.977V22.0936H712.085C712.286 21.6315 712.6 21.2602 713.028 20.9799C713.46 20.6996 714.004 20.5595 714.659 20.5595C715.254 20.5595 715.774 20.6845 716.221 20.9345C716.668 21.1807 717.015 21.5481 717.261 22.0368C717.507 22.5254 717.63 23.1296 717.63 23.8493V29.4004H715.932V24.0538C715.932 23.4212 715.767 22.9269 715.437 22.5708C715.108 22.211 714.655 22.0311 714.079 22.0311C713.685 22.0311 713.335 22.1163 713.028 22.2868C712.725 22.4572 712.485 22.7072 712.307 23.0368C712.132 23.3625 712.045 23.7565 712.045 24.2186ZM723.983 20.6731V22.0368H719.216V20.6731H723.983ZM720.494 18.5822H722.193V26.8379C722.193 27.1674 722.242 27.4155 722.341 27.5822C722.439 27.7451 722.566 27.8568 722.721 27.9174C722.88 27.9743 723.053 28.0027 723.238 28.0027C723.375 28.0027 723.494 27.9932 723.596 27.9743C723.699 27.9553 723.778 27.9402 723.835 27.9288L724.142 29.3322C724.043 29.3701 723.903 29.408 723.721 29.4458C723.54 29.4875 723.312 29.5102 723.04 29.514C722.593 29.5216 722.176 29.4421 721.79 29.2754C721.403 29.1087 721.091 28.8511 720.852 28.5027C720.613 28.1542 720.494 27.7167 720.494 27.1902V18.5822Z" fill="#4B5563"/>
</svg>
