<svg width="64" height="65" viewBox="0 0 64 65" fill="none" xmlns="http://www.w3.org/2000/svg">
<path d="M0 32.7948C0 15.1245 14.3247 0.799805 31.995 0.799805V0.799805C49.6653 0.799805 63.99 15.1245 63.99 32.7948V32.7948C63.99 50.4652 49.6653 64.7898 31.995 64.7898V64.7898C14.3247 64.7898 0 50.4652 0 32.7948V32.7948Z" fill="#FF6B35"/>
<path d="M9.8973 39.2002V37.2059L14.5571 32.8912C14.9534 32.5077 15.2858 32.1626 15.5543 31.8557C15.827 31.5489 16.0337 31.2485 16.1743 30.9545C16.3149 30.6562 16.3852 30.3344 16.3852 29.9893C16.3852 29.6057 16.2979 29.2755 16.1232 28.9985C15.9484 28.7172 15.7098 28.502 15.4072 28.3529C15.1047 28.1995 14.7616 28.1228 14.3781 28.1228C13.9776 28.1228 13.6281 28.2037 13.3298 28.3657C13.0315 28.5276 12.8014 28.7599 12.6395 29.0624C12.4776 29.365 12.3966 29.7251 12.3966 30.1427H9.76946C9.76946 29.2861 9.96335 28.5425 10.3511 27.9118C10.7389 27.2812 11.2822 26.7932 11.9811 26.4481C12.68 26.1029 13.4854 25.9303 14.3973 25.9303C15.3348 25.9303 16.1509 26.0965 16.8455 26.4289C17.5443 26.757 18.0876 27.213 18.4754 27.7968C18.8632 28.3806 19.0571 29.0496 19.0571 29.8039C19.0571 30.2982 18.9591 30.7861 18.7631 31.2677C18.5713 31.7492 18.2283 32.284 17.7339 32.8721C17.2396 33.4559 16.5429 34.1569 15.6438 34.9751L13.7325 36.8479V36.9374H19.2297V39.2002H9.8973ZM26.368 39.4878C25.2686 39.4836 24.3226 39.213 23.5299 38.676C22.7416 38.1391 22.1343 37.3614 21.7082 36.343C21.2863 35.3245 21.0775 34.0993 21.0818 32.6675C21.0818 31.24 21.2927 30.0233 21.7146 29.0177C22.1407 28.012 22.748 27.2471 23.5363 26.7229C24.3289 26.1945 25.2728 25.9303 26.368 25.9303C27.4632 25.9303 28.4049 26.1945 29.1933 26.7229C29.9859 27.2513 30.5953 28.0184 31.0214 29.0241C31.4476 30.0255 31.6585 31.24 31.6542 32.6675C31.6542 34.1036 31.4412 35.3309 31.015 36.3493C30.5931 37.3678 29.988 38.1455 29.1997 38.6824C28.4113 39.2194 27.4674 39.4878 26.368 39.4878ZM26.368 37.1931C27.118 37.1931 27.7167 36.816 28.1642 36.0617C28.6116 35.3074 28.8332 34.176 28.8289 32.6675C28.8289 31.6746 28.7267 30.8479 28.5221 30.1874C28.3218 29.5269 28.0363 29.0305 27.6656 28.6981C27.2991 28.3657 26.8666 28.1995 26.368 28.1995C25.6223 28.1995 25.0257 28.5724 24.5782 29.3181C24.1308 30.0638 23.9049 31.1803 23.9007 32.6675C23.9007 33.6732 24.0008 34.5127 24.2011 35.186C24.4056 35.855 24.6933 36.3579 25.064 36.6945C25.4348 37.0269 25.8694 37.1931 26.368 37.1931ZM33.6278 39.2002V37.2059L38.2876 32.8912C38.6839 32.5077 39.0163 32.1626 39.2847 31.8557C39.5575 31.5489 39.7641 31.2485 39.9048 30.9545C40.0454 30.6562 40.1157 30.3344 40.1157 29.9893C40.1157 29.6057 40.0283 29.2755 39.8536 28.9985C39.6789 28.7172 39.4403 28.502 39.1377 28.3529C38.8352 28.1995 38.4921 28.1228 38.1086 28.1228C37.708 28.1228 37.3586 28.2037 37.0603 28.3657C36.762 28.5276 36.5319 28.7599 36.37 29.0624C36.208 29.365 36.1271 29.7251 36.1271 30.1427H33.4999C33.4999 29.2861 33.6938 28.5425 34.0816 27.9118C34.4694 27.2812 35.0127 26.7932 35.7116 26.4481C36.4104 26.1029 37.2158 25.9303 38.1278 25.9303C39.0653 25.9303 39.8813 26.0965 40.5759 26.4289C41.2748 26.757 41.8181 27.213 42.2059 27.7968C42.5937 28.3806 42.7876 29.0496 42.7876 29.8039C42.7876 30.2982 42.6896 30.7861 42.4935 31.2677C42.3018 31.7492 41.9587 32.284 41.4644 32.8721C40.9701 33.4559 40.2734 34.1569 39.3742 34.9751L37.463 36.8479V36.9374H42.9602V39.2002H33.6278ZM49.8044 39.3792C48.8499 39.3792 47.9997 39.2151 47.254 38.887C46.5125 38.5546 45.9266 38.0986 45.4962 37.5191C45.0701 36.9353 44.8506 36.262 44.8378 35.4992H47.6247C47.6418 35.8188 47.7462 36.1001 47.938 36.343C48.134 36.5816 48.3939 36.767 48.7178 36.8991C49.0417 37.0312 49.406 37.0972 49.8108 37.0972C50.2327 37.0972 50.6056 37.0226 50.9294 36.8735C51.2533 36.7243 51.5069 36.5177 51.6901 36.2535C51.8733 35.9893 51.9649 35.6846 51.9649 35.3394C51.9649 34.99 51.8669 34.681 51.6709 34.4126C51.4792 34.1398 51.2022 33.9268 50.8399 33.7733C50.482 33.6199 50.0559 33.5432 49.5615 33.5432H48.3407V31.5106H49.5615C49.9792 31.5106 50.3478 31.4381 50.6674 31.2932C50.9912 31.1483 51.2426 30.9481 51.4216 30.6924C51.6006 30.4324 51.6901 30.1299 51.6901 29.7847C51.6901 29.4566 51.6113 29.1689 51.4536 28.9218C51.3002 28.6704 51.0828 28.4743 50.8016 28.3337C50.5246 28.1931 50.2007 28.1228 49.83 28.1228C49.455 28.1228 49.112 28.191 48.8009 28.3273C48.4898 28.4594 48.2405 28.6491 48.053 28.8962C47.8655 29.1434 47.7654 29.4331 47.7526 29.7655H45.0999C45.1127 29.0113 45.3279 28.3465 45.7455 27.7712C46.1631 27.1959 46.7256 26.7464 47.433 26.4225C48.1446 26.0944 48.9479 25.9303 49.8428 25.9303C50.7462 25.9303 51.5367 26.0944 52.2142 26.4225C52.8918 26.7506 53.4181 27.1938 53.7931 27.752C54.1723 28.306 54.3598 28.9282 54.3556 29.6185C54.3598 30.3515 54.1319 30.963 53.6716 31.453C53.2157 31.9431 52.6212 32.2542 51.8882 32.3863V32.4885C52.8513 32.6121 53.5843 32.9466 54.0871 33.4921C54.5942 34.0333 54.8456 34.7108 54.8414 35.5248C54.8456 36.2705 54.6304 36.9331 54.1958 37.5127C53.7654 38.0922 53.1709 38.5482 52.4124 38.8806C51.6539 39.213 50.7846 39.3792 49.8044 39.3792Z" fill="white"/>
</svg>
