<svg width="64" height="65" viewBox="0 0 64 65" fill="none" xmlns="http://www.w3.org/2000/svg">
<path d="M0 32.9052C0 15.2348 14.3247 0.910156 31.995 0.910156V0.910156C49.6653 0.910156 63.99 15.2348 63.99 32.9052V32.9052C63.99 50.5755 49.6653 64.9002 31.995 64.9002V64.9002C14.3247 64.9002 0 50.5755 0 32.9052V32.9052Z" fill="#FF6B35"/>
<path d="M11.4099 39.3105V37.3162L16.0697 33.0016C16.466 32.6181 16.7983 32.2729 17.0668 31.9661C17.3395 31.6593 17.5462 31.3588 17.6868 31.0648C17.8275 30.7665 17.8978 30.4448 17.8978 30.0996C17.8978 29.7161 17.8104 29.3858 17.6357 29.1088C17.461 28.8276 17.2224 28.6124 16.9198 28.4632C16.6172 28.3098 16.2742 28.2331 15.8907 28.2331C15.4901 28.2331 15.1407 28.3141 14.8424 28.476C14.5441 28.638 14.314 28.8702 14.152 29.1728C13.9901 29.4753 13.9091 29.8354 13.9091 30.253H11.282C11.282 29.3965 11.4759 28.6529 11.8637 28.0222C12.2515 27.3915 12.7948 26.9036 13.4937 26.5584C14.1925 26.2132 14.9979 26.0407 15.9099 26.0407C16.8474 26.0407 17.6634 26.2069 18.358 26.5392C19.0569 26.8674 19.6002 27.3233 19.988 27.9071C20.3758 28.4909 20.5697 29.16 20.5697 29.9142C20.5697 30.4086 20.4716 30.8965 20.2756 31.378C20.0839 31.8596 19.7408 32.3944 19.2465 32.9824C18.7522 33.5662 18.0555 34.2672 17.1563 35.0854L15.2451 36.9583V37.0478H20.7422V39.3105H11.4099ZM27.8806 39.5982C26.7811 39.5939 25.8351 39.3233 25.0425 38.7864C24.2541 38.2495 23.6469 37.4718 23.2208 36.4533C22.7989 35.4348 22.5901 34.2097 22.5943 32.7779C22.5943 31.3503 22.8053 30.1337 23.2271 29.128C23.6533 28.1223 24.2605 27.3574 25.0489 26.8333C25.8415 26.3049 26.7854 26.0407 27.8806 26.0407C28.9757 26.0407 29.9175 26.3049 30.7058 26.8333C31.4985 27.3617 32.1078 28.1287 32.534 29.1344C32.9601 30.1358 33.171 31.3503 33.1668 32.7779C33.1668 34.214 32.9537 35.4412 32.5276 36.4597C32.1057 37.4782 31.5006 38.2559 30.7122 38.7928C29.9239 39.3297 28.98 39.5982 27.8806 39.5982ZM27.8806 37.3034C28.6306 37.3034 29.2293 36.9263 29.6767 36.1721C30.1242 35.4178 30.3458 34.2864 30.3415 32.7779C30.3415 31.785 30.2392 30.9583 30.0347 30.2978C29.8344 29.6373 29.5489 29.1408 29.1781 28.8084C28.8117 28.476 28.3791 28.3098 27.8806 28.3098C27.1348 28.3098 26.5382 28.6827 26.0908 29.4284C25.6433 30.1742 25.4175 31.2907 25.4132 32.7779C25.4132 33.7836 25.5134 34.623 25.7137 35.2963C25.9182 35.9654 26.2058 36.4682 26.5766 36.8049C26.9473 37.1373 27.382 37.3034 27.8806 37.3034ZM40.8356 26.2196V39.3105H38.0679V28.8468H37.9912L34.9933 30.726V28.2715L38.2341 26.2196H40.8356ZM49.0798 39.5982C47.9803 39.5939 47.0343 39.3233 46.2417 38.7864C45.4534 38.2495 44.8461 37.4718 44.42 36.4533C43.9981 35.4348 43.7893 34.2097 43.7936 32.7779C43.7936 31.3503 44.0045 30.1337 44.4264 29.128C44.8525 28.1223 45.4597 27.3574 46.2481 26.8333C47.0407 26.3049 47.9846 26.0407 49.0798 26.0407C50.1749 26.0407 51.1167 26.3049 51.9051 26.8333C52.6977 27.3617 53.307 28.1287 53.7332 29.1344C54.1593 30.1358 54.3703 31.3503 54.366 32.7779C54.366 34.214 54.1529 35.4412 53.7268 36.4597C53.3049 37.4782 52.6998 38.2559 51.9115 38.7928C51.1231 39.3297 50.1792 39.5982 49.0798 39.5982ZM49.0798 37.3034C49.8298 37.3034 50.4285 36.9263 50.8759 36.1721C51.3234 35.4178 51.545 34.2864 51.5407 32.7779C51.5407 31.785 51.4384 30.9583 51.2339 30.2978C51.0336 29.6373 50.7481 29.1408 50.3774 28.8084C50.0109 28.476 49.5784 28.3098 49.0798 28.3098C48.334 28.3098 47.7374 28.6827 47.29 29.4284C46.8426 30.1742 46.6167 31.2907 46.6124 32.7779C46.6124 33.7836 46.7126 34.623 46.9129 35.2963C47.1174 35.9654 47.4051 36.4682 47.7758 36.8049C48.1465 37.1373 48.5812 37.3034 49.0798 37.3034Z" fill="white"/>
</svg>
