<svg width="81" height="80" viewBox="0 0 81 80" fill="none" xmlns="http://www.w3.org/2000/svg">
<path d="M0.329102 20C0.329102 8.9543 9.28341 0 20.3291 0H60.3191C71.3648 0 80.3191 8.95431 80.3191 20V59.99C80.3191 71.0357 71.3648 79.99 60.3191 79.99H20.3291C9.2834 79.99 0.329102 71.0357 0.329102 59.99V20Z" fill="url(#paint0_linear_193_211)"/>
<path d="M52.3228 26.7395V29.4059C52.3228 33.5299 51.594 37.0407 50.1363 39.9382C48.7854 42.6401 46.8745 44.6844 44.4036 46.0709C42.0572 47.4041 39.3641 48.0707 36.3244 48.0707H31.3116C31.0983 49.2795 30.9916 50.6127 30.9916 52.0703H28.3252C28.3252 50.2572 28.4763 48.5951 28.7785 47.0841C28.4763 45.3599 28.3252 43.0223 28.3252 40.0715C28.3252 38.2584 28.6718 36.5252 29.3651 34.872C30.0406 33.29 30.996 31.8812 32.2315 30.6458C33.4669 29.4104 34.8757 28.4549 36.4577 27.7794C38.1109 27.0861 39.844 26.7395 41.6572 26.7395C42.1905 26.7395 43.0259 26.8284 44.1636 27.0062C45.088 27.1484 45.8168 27.2372 46.3501 27.2728C47.2566 27.3439 48.1454 27.3528 49.0165 27.2995C50.0652 27.2106 51.1674 27.0239 52.3228 26.7395ZM41.6572 29.4059C39.7196 29.4059 37.9242 29.8948 36.2711 30.8724C34.6712 31.8146 33.4002 33.0855 32.4581 34.6854C31.4804 36.3386 30.9916 38.1339 30.9916 40.0715V41.458C31.8093 40.1782 32.8403 38.9872 34.0846 37.8851C35.2756 36.8363 36.6888 35.8497 38.3242 34.9254L39.6574 37.2185C37.6843 38.3561 36.0933 39.556 34.8845 40.8181C33.6047 42.1513 32.6537 43.68 32.0315 45.4043H36.3244C39.0086 45.4043 41.3417 44.8177 43.3237 43.6445C45.3057 42.4713 46.83 40.747 47.8966 38.4717C49.0165 36.1075 49.6031 33.2544 49.6564 29.9125C48.7676 30.0014 47.861 30.0281 46.9367 29.9925C46.1012 29.9392 45.1324 29.8325 44.0303 29.6726C43.2481 29.5481 42.7238 29.4726 42.4571 29.4459C42.1905 29.4192 41.9238 29.4059 41.6572 29.4059Z" fill="white"/>
<defs>
<linearGradient id="paint0_linear_193_211" x1="0.329102" y1="0" x2="80.3191" y2="79.99" gradientUnits="userSpaceOnUse">
<stop stop-color="#3B82F6"/>
<stop offset="1" stop-color="#9333EA"/>
</linearGradient>
</defs>
</svg>
