<svg width="80" height="80" viewBox="0 0 80 80" fill="none" xmlns="http://www.w3.org/2000/svg">
<rect width="80" height="80" rx="40" fill="#FF6B35"/>
<path d="M39.9949 53.334C38.1821 53.334 36.4493 52.9874 34.7964 52.2943C33.2147 51.6189 31.8062 50.6637 30.571 49.4285C29.3358 48.1933 28.3806 46.7848 27.7052 45.2031C27.0121 43.5503 26.6655 41.8174 26.6655 40.0046C26.6655 38.1919 27.0121 36.459 27.7052 34.8062C28.3806 33.2245 29.3358 31.816 30.571 30.5808C31.8062 29.3456 33.2147 28.3904 34.7964 27.715C36.4493 27.0219 38.1821 26.6753 39.9949 26.6753C41.8077 26.6753 43.5405 27.0219 45.1933 27.715C46.7751 28.3904 48.1835 29.3456 49.4187 30.5808C50.6539 31.816 51.6092 33.2245 52.2845 34.8062C52.9776 36.459 53.3242 38.1919 53.3242 40.0046C53.3242 41.8174 52.9776 43.5503 52.2845 45.2031C51.6092 46.7848 50.6539 48.1933 49.4187 49.4285C48.1835 50.6637 46.7751 51.6189 45.1933 52.2943C43.5405 52.9874 41.8077 53.334 39.9949 53.334ZM39.9949 50.6681C41.9321 50.6681 43.7271 50.1794 45.3799 49.2019C46.9794 48.26 48.2502 46.9892 49.1921 45.3897C50.1696 43.7369 50.6583 41.9418 50.6583 40.0046C50.6583 38.0675 50.1696 36.2724 49.1921 34.6196C48.2502 33.0201 46.9794 31.7493 45.3799 30.8074C43.7271 29.8299 41.9321 29.3412 39.9949 29.3412C38.0577 29.3412 36.2626 29.8299 34.6098 30.8074C33.0103 31.7493 31.7396 33.0201 30.7976 34.6196C29.8201 36.2724 29.3314 38.0675 29.3314 40.0046C29.3314 41.9418 29.8201 43.7369 30.7976 45.3897C31.7396 46.9892 33.0103 48.26 34.6098 49.2019C36.2626 50.1794 38.0577 50.6681 39.9949 50.6681ZM41.3278 40.0046H46.6595V42.6705H38.6619V33.34H41.3278V40.0046Z" fill="white"/>
</svg>
