<svg width="80" height="80" viewBox="0 0 80 80" fill="none" xmlns="http://www.w3.org/2000/svg">
<rect width="80" height="80" rx="40" fill="#FF6B35"/>
<path d="M39.9949 25.3425L50.9516 27.7684C51.2538 27.8395 51.5026 27.9994 51.6981 28.2483C51.8936 28.4971 51.9913 28.7725 51.9913 29.0747V42.3773C51.9913 43.7281 51.6759 44.9899 51.045 46.1629C50.414 47.3359 49.5387 48.2956 48.4191 49.042L39.9949 54.667L31.5708 49.042C30.4511 48.2956 29.5758 47.3359 28.9449 46.1629C28.314 44.9899 27.9985 43.7281 27.9985 42.3773V29.0747C27.9985 28.7725 28.0963 28.4971 28.2918 28.2483C28.4873 27.9994 28.7361 27.8395 29.0382 27.7684L39.9949 25.3425ZM39.9949 28.0616L30.6644 30.141V42.3773C30.6644 43.2837 30.8732 44.1279 31.2909 44.9099C31.7085 45.6919 32.2906 46.3317 33.037 46.8293L39.9949 51.468L46.9528 46.8293C47.6993 46.3317 48.2813 45.6919 48.699 44.9099C49.1166 44.1279 49.3255 43.2837 49.3255 42.3773V30.141L39.9949 28.0616ZM45.9398 34.9662L47.8059 36.859L39.3285 45.3365L33.6768 39.6848L35.5696 37.7921L39.3285 41.5776L45.9398 34.9662Z" fill="white"/>
</svg>
