<svg width="24" height="24" viewBox="0 0 24 24" fill="none" xmlns="http://www.w3.org/2000/svg">
<rect width="24" height="24" rx="12" fill="#FF6B35"/>
<path d="M10.8161 14.8095H11.4114V11.8915H12.5786V14.8095H13.1738C13.2128 14.4749 13.3217 14.1481 13.5007 13.8291C13.6563 13.5412 13.8858 13.2299 14.1893 12.8953L14.3527 12.7203C14.5784 12.4868 14.7029 12.3584 14.7262 12.3351C14.9752 12.0238 15.1659 11.6814 15.2981 11.3079C15.4304 10.9344 15.4966 10.5454 15.4966 10.1407C15.4966 9.51045 15.3371 8.92296 15.018 8.37827C14.7068 7.84914 14.2866 7.42894 13.7574 7.11769C13.2128 6.79866 12.6253 6.63914 11.995 6.63914C11.3647 6.63914 10.7772 6.79866 10.2325 7.11769C9.70337 7.42894 9.28318 7.84914 8.97192 8.37827C8.65289 8.92296 8.49337 9.51045 8.49337 10.1407C8.49337 10.5454 8.55951 10.9344 8.6918 11.3079C8.82408 11.6814 9.01472 12.0199 9.26372 12.3234C9.28707 12.3545 9.41157 12.4868 9.63723 12.7203L9.80064 12.8953C10.1041 13.2299 10.3337 13.5412 10.4893 13.8291C10.6683 14.1481 10.7772 14.4749 10.8161 14.8095ZM10.8278 15.9767V16.5603H13.1622V15.9767H10.8278ZM8.35331 13.0587C8.02649 12.6541 7.7736 12.2067 7.59463 11.7165C7.41566 11.2107 7.32617 10.6854 7.32617 10.1407C7.32617 9.29257 7.54016 8.50666 7.96813 7.78299C8.38054 7.08267 8.93691 6.52631 9.63723 6.1139C10.3609 5.68593 11.1468 5.47194 11.995 5.47194C12.8431 5.47194 13.6291 5.68593 14.3527 6.1139C15.053 6.52631 15.6094 7.08267 16.0218 7.78299C16.4498 8.50666 16.6638 9.29257 16.6638 10.1407C16.6638 10.6854 16.5743 11.2107 16.3953 11.7165C16.2163 12.2067 15.9635 12.6541 15.6366 13.0587C15.5822 13.1288 15.4732 13.2455 15.3098 13.4089C15.0063 13.7279 14.7924 13.9808 14.6679 14.1676C14.4422 14.4944 14.3294 14.8056 14.3294 15.1013V16.5603C14.3294 16.7704 14.2768 16.965 14.1718 17.1439C14.0668 17.3229 13.9247 17.4649 13.7458 17.57C13.5668 17.675 13.3723 17.7275 13.1622 17.7275H10.8278C10.6177 17.7275 10.4231 17.675 10.2442 17.57C10.0652 17.4649 9.92319 17.3229 9.81814 17.1439C9.7131 16.965 9.66057 16.7704 9.66057 16.5603V15.1013C9.66057 14.8056 9.54774 14.4944 9.32208 14.1676C9.19758 13.9808 8.9836 13.7279 8.68012 13.4089C8.51672 13.2455 8.40778 13.1288 8.35331 13.0587Z" fill="white"/>
</svg>
