<svg width="80" height="80" viewBox="0 0 80 80" fill="none" xmlns="http://www.w3.org/2000/svg">
<rect width="80" height="80" rx="40" fill="#FF6B35"/>
<path d="M41.3282 46.5893V49.3351H47.9929V52.001H31.9977V49.3351H38.6623V46.5893C36.9206 46.376 35.3389 45.7717 33.9171 44.7765C32.4953 43.7812 31.3845 42.5283 30.5848 41.0176C29.7495 39.4536 29.3318 37.783 29.3318 36.0058V28.0082H50.6587V36.0058C50.6587 37.783 50.2411 39.4536 49.4058 41.0176C48.606 42.5283 47.4952 43.7812 46.0735 44.7765C44.6517 45.7717 43.0699 46.376 41.3282 46.5893ZM31.9977 30.674V36.0058C31.9977 37.4453 32.362 38.7872 33.0907 40.0312C33.8016 41.2398 34.7613 42.1995 35.9698 42.9104C37.2139 43.639 38.5557 44.0034 39.9953 44.0034C41.4348 44.0034 42.7767 43.639 44.0207 42.9104C45.2293 42.1995 46.189 41.2398 46.8999 40.0312C47.6285 38.7872 47.9929 37.4453 47.9929 36.0058V30.674H31.9977ZM25.333 30.674H27.9989V36.0058H25.333V30.674ZM51.9917 30.674H54.6575V36.0058H51.9917V30.674Z" fill="white"/>
</svg>
