<svg width="81" height="80" viewBox="0 0 81 80" fill="none" xmlns="http://www.w3.org/2000/svg">
<path d="M0.980469 39.995C0.980469 17.9064 18.8868 0 40.9755 0V0C63.0641 0 80.9705 17.9064 80.9705 39.995V39.995C80.9705 62.0836 63.0641 79.99 40.9755 79.99V79.99C18.8868 79.99 0.980469 62.0836 0.980469 39.995V39.995Z" fill="#FF6B35"/>
<path d="M40.9803 32.055C42.9185 32.055 44.7144 32.544 46.3681 33.5219C47.9684 34.4643 49.2398 35.7357 50.1822 37.336C51.1601 38.9897 51.6491 40.7856 51.6491 42.7238C51.6491 44.6619 51.1601 46.4579 50.1822 48.1115C49.2398 49.7118 47.9684 50.9832 46.3681 51.9256C44.7144 52.9036 42.9185 53.3926 40.9803 53.3926C39.0422 53.3926 37.2462 52.9036 35.5926 51.9256C33.9923 50.9832 32.7209 49.7118 31.7785 48.1115C30.8005 46.4579 30.3115 44.6619 30.3115 42.7238C30.3115 40.7856 30.8005 38.9897 31.7785 37.336C32.7209 35.7357 33.9923 34.4643 35.5926 33.5219C37.2462 32.544 39.0422 32.055 40.9803 32.055ZM40.9803 34.7222C39.54 34.7222 38.1975 35.0867 36.9529 35.8157C35.7437 36.527 34.7835 37.4872 34.0723 38.6963C33.3432 39.941 32.9787 41.2879 32.9787 42.7371C32.9787 44.1863 33.3432 45.5243 34.0723 46.7513C34.7835 47.9604 35.7437 48.9206 36.9529 49.6318C38.1975 50.3609 39.54 50.7254 40.9803 50.7254C42.4206 50.7254 43.7631 50.3609 45.0078 49.6318C46.2169 48.9206 47.1771 47.9604 47.8884 46.7513C48.6174 45.5243 48.9819 44.1863 48.9819 42.7371C48.9819 41.2879 48.6174 39.941 47.8884 38.6963C47.1771 37.4872 46.2169 36.527 45.0078 35.8157C43.7631 35.0867 42.4206 34.7222 40.9803 34.7222ZM40.9803 36.7226L42.7407 40.2966L46.6881 40.8567L43.8342 43.6573L44.501 47.5781L40.9803 45.7377L37.4596 47.5781L38.1264 43.6573L35.2725 40.8567L39.22 40.2966L40.9803 36.7226ZM48.9819 25.387V29.3878L47.1682 30.9081C45.639 30.1079 44.0209 29.6189 42.3139 29.4411V25.387H48.9819ZM39.6467 25.387V29.4411C37.9397 29.6189 36.3216 30.1079 34.7924 30.9081L32.9787 29.3878V25.387H39.6467Z" fill="white"/>
</svg>
