<svg width="24" height="24" viewBox="0 0 24 24" fill="none" xmlns="http://www.w3.org/2000/svg">
<rect width="24" height="24" rx="12" fill="#FF6B35"/>
<path d="M12.5789 14.4831V15.6853H15.4969V16.8525H8.49368V15.6853H11.4117V14.4831C10.6491 14.3897 9.95657 14.1252 9.33407 13.6894C8.71156 13.2537 8.22523 12.7051 7.87507 12.0437C7.50934 11.3589 7.32648 10.6275 7.32648 9.84934V6.34774H16.6641V9.84934C16.6641 10.6275 16.4812 11.3589 16.1155 12.0437C15.7653 12.7051 15.279 13.2537 14.6565 13.6894C14.034 14.1252 13.3415 14.3897 12.5789 14.4831ZM8.49368 7.51494V9.84934C8.49368 10.4796 8.6532 11.0671 8.97224 11.6118C9.28349 12.1409 9.70368 12.5611 10.2328 12.8724C10.7775 13.1914 11.365 13.3509 11.9953 13.3509C12.6256 13.3509 13.2131 13.1914 13.7578 12.8724C14.2869 12.5611 14.7071 12.1409 15.0183 11.6118C15.3374 11.0671 15.4969 10.4796 15.4969 9.84934V7.51494H8.49368ZM5.57568 7.51494H6.74288V9.84934H5.57568V7.51494ZM17.2477 7.51494H18.4149V9.84934H17.2477V7.51494Z" fill="white"/>
</svg>
