<svg width="80" height="80" viewBox="0 0 80 80" fill="none" xmlns="http://www.w3.org/2000/svg">
<rect width="80" height="80" rx="40" fill="#FF6B35"/>
<path d="M29.8563 43.3597L34.3896 38.8263L38.1763 42.5863L42.3896 38.3997L39.9896 35.9997H46.6563V42.6663L44.2563 40.2663L38.1763 46.373L34.3896 42.5863L31.1096 45.893C32.0696 47.3686 33.3229 48.5241 34.8696 49.3597C36.4518 50.2308 38.1585 50.6663 39.9896 50.6663C41.9274 50.6663 43.7229 50.1775 45.3763 49.1997C46.9763 48.2575 48.2474 46.9863 49.1896 45.3863C50.1674 43.733 50.6563 41.9375 50.6563 39.9997C50.6563 38.0619 50.1674 36.2663 49.1896 34.613C48.2474 33.013 46.9763 31.7419 45.3763 30.7997C43.7229 29.8219 41.9274 29.333 39.9896 29.333C38.0518 29.333 36.2563 29.8219 34.6029 30.7997C33.0029 31.7419 31.7318 33.013 30.7896 34.613C29.8118 36.2663 29.3229 38.0619 29.3229 39.9997C29.3229 41.1552 29.5007 42.2752 29.8563 43.3597ZM27.8029 45.4397V45.413C27.0385 43.7063 26.6562 41.9019 26.6562 39.9997C26.6562 38.1863 27.0029 36.453 27.6963 34.7997C28.3718 33.2175 29.3274 31.8086 30.5629 30.573C31.7985 29.3375 33.2074 28.3819 34.7896 27.7063C36.4429 27.013 38.1763 26.6663 39.9896 26.6663C41.8029 26.6663 43.5363 27.013 45.1896 27.7063C46.7718 28.3819 48.1807 29.3375 49.4163 30.573C50.6518 31.8086 51.6074 33.2175 52.2829 34.7997C52.9763 36.453 53.3229 38.1863 53.3229 39.9997C53.3229 41.813 52.9763 43.5463 52.2829 45.1997C51.6074 46.7819 50.6518 48.1908 49.4163 49.4263C48.1807 50.6619 46.7718 51.6175 45.1896 52.293C43.5363 52.9863 41.8118 53.333 40.0163 53.333C38.2207 53.333 36.514 52.9952 34.8963 52.3197C33.314 51.6619 31.9096 50.7375 30.6829 49.5463C29.4563 48.3552 28.4963 46.9863 27.8029 45.4397Z" fill="white"/>
</svg>
