<svg width="64" height="64" viewBox="0 0 64 64" fill="none" xmlns="http://www.w3.org/2000/svg">
<path d="M0 20C0 8.95431 8.95431 0 20 0H43.99C55.0357 0 63.99 8.95431 63.99 20V43.99C63.99 55.0357 55.0357 63.99 43.99 63.99H20C8.95431 63.99 0 55.0357 0 43.99V20Z" fill="url(#paint0_linear_193_188)"/>
<path d="M31.9848 44.7266C30.1717 44.7266 28.4385 44.3799 26.7854 43.6867C25.2033 43.0112 23.7945 42.0557 22.5591 40.8203C21.3237 39.5849 20.3682 38.1761 19.6927 36.594C18.9995 34.9409 18.6528 33.2077 18.6528 31.3946C18.6528 29.5814 18.9995 27.8482 19.6927 26.1951C20.3682 24.613 21.3237 23.2043 22.5591 21.9688C23.7945 20.7334 25.2033 19.7779 26.7854 19.1025C28.4385 18.4092 30.1717 18.0626 31.9848 18.0626C33.798 18.0626 35.5311 18.4092 37.1843 19.1025C38.7664 19.7779 40.1751 20.7334 41.4106 21.9688C42.646 23.2043 43.6014 24.613 44.2769 26.1951C44.9702 27.8482 45.3168 29.5814 45.3168 31.3946C45.3168 33.2077 44.9702 34.9409 44.2769 36.594C43.6014 38.1761 42.646 39.5849 41.4106 40.8203C40.1751 42.0557 38.7664 43.0112 37.1843 43.6867C35.5311 44.3799 33.798 44.7266 31.9848 44.7266ZM31.9848 42.0602C33.9224 42.0602 35.7178 41.5713 37.371 40.5936C38.9708 39.6515 40.2418 38.3805 41.1839 36.7807C42.1616 35.1275 42.6504 33.3321 42.6504 31.3946C42.6504 29.457 42.1616 27.6616 41.1839 26.0084C40.2418 24.4086 38.9708 23.1376 37.371 22.1955C35.7178 21.2178 33.9224 20.729 31.9848 20.729C30.0472 20.729 28.2519 21.2178 26.5987 22.1955C24.9989 23.1376 23.7279 24.4086 22.7858 26.0084C21.8081 27.6616 21.3192 29.457 21.3192 31.3946C21.3192 33.3321 21.8081 35.1275 22.7858 36.7807C23.7279 38.3805 24.9989 39.6515 26.5987 40.5936C28.2519 41.5713 30.0472 42.0602 31.9848 42.0602Z" fill="white"/>
<defs>
<linearGradient id="paint0_linear_193_188" x1="0" y1="0" x2="63.99" y2="63.99" gradientUnits="userSpaceOnUse">
<stop stop-color="#3B82F6"/>
<stop offset="1" stop-color="#9333EA"/>
</linearGradient>
</defs>
</svg>
