<svg width="80" height="80" viewBox="0 0 80 80" fill="none" xmlns="http://www.w3.org/2000/svg">
<path d="M0 39.995C0 17.9064 17.9064 0 39.995 0V0C62.0836 0 79.99 17.9064 79.99 39.995V39.995C79.99 62.0836 62.0836 79.99 39.995 79.99V79.99C17.9064 79.99 0 62.0836 0 39.995V39.995Z" fill="#FF6B35"/>
<path d="M46.6576 43.9776V53.1261C46.6576 53.3217 46.5909 53.4817 46.4576 53.6062C46.3242 53.7306 46.1686 53.7929 45.9908 53.7929C45.8663 53.7929 45.7508 53.7662 45.6441 53.7129L39.9896 50.3255L34.3351 53.7129C34.1751 53.8018 34.0062 53.824 33.8284 53.7795C33.6506 53.7351 33.5172 53.6328 33.4283 53.4728C33.3572 53.3661 33.3216 53.2505 33.3216 53.1261V43.9776C32.0769 42.9818 31.1078 41.7727 30.4144 40.3502C29.6853 38.8743 29.3208 37.3096 29.3208 35.6559C29.3208 33.7177 29.8098 31.9218 30.7878 30.2682C31.7302 28.6501 33.0015 27.3698 34.6019 26.4274C36.2555 25.4672 38.0514 24.9871 39.9896 24.9871C41.9278 24.9871 43.7237 25.4672 45.3773 26.4274C46.9777 27.3698 48.249 28.6501 49.1914 30.2682C50.1694 31.9218 50.6584 33.7177 50.6584 35.6559C50.6584 37.3096 50.2939 38.8743 49.5648 40.3502C48.8714 41.7727 47.9023 42.9818 46.6576 43.9776ZM35.9888 45.5245V49.6054L39.9896 47.2049L43.9904 49.6054V45.5245C42.7101 46.058 41.3765 46.3247 39.9896 46.3247C38.6027 46.3247 37.2691 46.0669 35.9888 45.5512V45.5245ZM39.9896 43.6575C41.4299 43.6575 42.7724 43.293 44.0171 42.564C45.2262 41.8527 46.1864 40.8925 46.8976 39.6834C47.6267 38.4387 47.9912 37.0918 47.9912 35.6426C47.9912 34.1934 47.6267 32.8465 46.8976 31.6018C46.1864 30.3926 45.2262 29.4413 44.0171 28.7479C42.7724 28.0188 41.4299 27.6543 39.9896 27.6543C38.5493 27.6543 37.2068 28.0188 35.9621 28.7479C34.753 29.4413 33.7928 30.3926 33.0816 31.6018C32.3525 32.8465 31.988 34.1934 31.988 35.6426C31.988 37.0918 32.3525 38.4387 33.0816 39.6834C33.7928 40.8925 34.753 41.8527 35.9621 42.564C37.2068 43.293 38.5493 43.6575 39.9896 43.6575Z" fill="white"/>
</svg>
