<svg width="40" height="40" viewBox="0 0 40 40" fill="none" xmlns="http://www.w3.org/2000/svg">
<rect width="40" height="40" rx="16" fill="#1F2937"/>
<path d="M21.2954 20.7H23.1288L23.8621 17.7667H21.2954V16.3C21.2954 15.9676 21.3101 15.728 21.3394 15.5814C21.3981 15.3467 21.5252 15.1658 21.7208 15.0387C21.9554 14.9018 22.3026 14.8334 22.7621 14.8334H23.8621V12.3694C23.6959 12.3498 23.4319 12.3302 23.0701 12.3107C22.6203 12.2814 22.1852 12.2667 21.7648 12.2667C21.0901 12.2667 20.4961 12.4011 19.9828 12.67C19.4694 12.9389 19.0759 13.3227 18.8021 13.8214C18.5088 14.3591 18.3621 14.9898 18.3621 15.7134V17.7667H16.1621V20.7H18.3621V26.9333H21.2954V20.7Z" fill="white"/>
</svg>
