<svg width="40" height="40" viewBox="0 0 40 40" fill="none" xmlns="http://www.w3.org/2000/svg">
<rect width="40" height="40" rx="16" fill="#1F2937"/>
<path d="M15.9568 14.4667C15.9471 14.7699 15.8591 15.0436 15.6928 15.2881C15.5266 15.5325 15.3066 15.711 15.0328 15.8234C14.7591 15.9359 14.4755 15.9627 14.1822 15.9041C13.8888 15.8454 13.6371 15.7085 13.4268 15.4934C13.2166 15.2783 13.0871 15.0241 13.0382 14.7307C12.9893 14.4374 13.0235 14.1539 13.1408 13.8801C13.2582 13.6063 13.4439 13.3887 13.6982 13.2274C13.9524 13.0661 14.2311 12.9903 14.5342 13.0001C14.9253 13.0099 15.2602 13.1565 15.5388 13.4401C15.8175 13.7236 15.9568 14.0659 15.9568 14.4667ZM16.0008 17.0187H13.0675V26.2001H16.0008V17.0187ZM20.6355 17.0187H17.7168V26.2001H20.6062V21.3894C20.6062 20.8712 20.7235 20.4312 20.9582 20.0694C21.1831 19.737 21.4715 19.5072 21.8235 19.3801C22.1755 19.253 22.5275 19.2432 22.8795 19.3507C23.2315 19.4583 23.5151 19.6734 23.7302 19.9961C23.9746 20.3676 24.0968 20.8321 24.0968 21.3894V26.2001H27.0008V20.3921C27.0008 19.5316 26.8151 18.8032 26.4435 18.2067C26.1208 17.6885 25.6711 17.2974 25.0942 17.0334C24.5662 16.8085 23.9942 16.7107 23.3782 16.7401C22.7817 16.7694 22.2293 16.9185 21.7208 17.1874C21.2124 17.4563 20.8408 17.8107 20.6062 18.2507L20.6355 17.0187Z" fill="white"/>
</svg>
