<svg width="40" height="40" viewBox="0 0 40 40" fill="none" xmlns="http://www.w3.org/2000/svg">
<rect width="40" height="40" rx="16" fill="#1F2937"/>
<path d="M27.4849 14.9653C26.9178 15.2098 26.3311 15.3711 25.7249 15.4493C26.0378 15.2538 26.3116 15.0093 26.5462 14.716C26.7809 14.4227 26.952 14.1 27.0596 13.748C26.4533 14.1098 25.808 14.3591 25.1236 14.496C24.8302 14.1831 24.488 13.9436 24.0969 13.7773C23.7058 13.6111 23.3 13.528 22.8796 13.528C22.3222 13.528 21.8089 13.6649 21.3396 13.9387C20.8702 14.2124 20.4987 14.584 20.2249 15.0533C19.9511 15.5227 19.8142 16.036 19.8142 16.5933C19.8142 16.828 19.8387 17.0627 19.8876 17.2973C18.636 17.2289 17.4529 16.9111 16.3382 16.344C15.2627 15.7867 14.3387 15.0338 13.5662 14.0853C13.2925 14.5644 13.1556 15.0778 13.1556 15.6253C13.1556 16.1533 13.2778 16.6422 13.5222 17.092C13.7667 17.5418 14.0991 17.9036 14.5196 18.1773C14.0307 18.1676 13.5662 18.0404 13.1262 17.796V17.84C13.1262 18.3289 13.2338 18.7836 13.4489 19.204C13.664 19.6244 13.9598 19.9789 14.3362 20.2673C14.7127 20.5558 15.1307 20.7489 15.5902 20.8467C15.3262 20.9151 15.0573 20.9493 14.7836 20.9493C14.588 20.9493 14.3973 20.9298 14.2116 20.8907C14.4071 21.5067 14.7665 22.0127 15.2896 22.4087C15.8127 22.8047 16.4067 23.0124 17.0716 23.032C16.524 23.4524 15.9251 23.7751 15.2749 24C14.6247 24.2249 13.9525 24.3373 13.2582 24.3373C13.0138 24.3373 12.7693 24.3227 12.5249 24.2933C13.2289 24.7431 13.9818 25.0853 14.7836 25.32C15.5853 25.5547 16.4018 25.672 17.2329 25.672C18.5822 25.672 19.8289 25.408 20.9729 24.88C22.0191 24.3911 22.9333 23.7067 23.7156 22.8267C24.4391 22.0053 24.9965 21.0716 25.3876 20.0253C25.7689 19.0084 25.9596 17.9818 25.9596 16.9453C25.9596 16.8182 25.9547 16.6862 25.9449 16.5493C26.5511 16.1093 27.0645 15.5813 27.4849 14.9653Z" fill="white"/>
</svg>
